<svg width="18" height="18" viewBox="0 0 18 18" fill="none"
    xmlns="http://www.w3.org/2000/svg">
    <path d="M10.377 15.4375C10.6672 15.4375 10.9025 15.6727 10.9025 15.9629C10.9025 16.2489 10.6739 16.4815 10.3894 16.4881L10.377 16.4883H7.2276C6.93735 16.4883 6.70206 16.2531 6.70206 15.9629C6.70206 15.6769 6.93069 15.4442 7.21519 15.4376L7.2276 15.4375H10.3769H10.377ZM8.84466 1.89844C9.13076 1.89844 9.36346 2.12699 9.37005 2.41144L9.3702 2.42383L9.37025 3.26113C12.1184 3.54422 14.2617 5.86596 14.2617 8.68816V13.4167H16.0155C16.3057 13.4167 16.541 13.652 16.541 13.9421C16.541 14.2281 16.3124 14.4608 16.0279 14.4674L16.0155 14.4675H1.63296C1.34271 14.4675 1.10742 14.2323 1.10742 13.9421C1.10742 13.6561 1.33604 13.4235 1.62056 13.4169L1.63296 13.4167H3.3467V8.68816C3.3467 5.83835 5.53224 3.49882 8.31908 3.25339L8.31913 2.42383C8.31913 2.13367 8.55441 1.89844 8.84466 1.89844ZM8.80423 4.28293C6.39497 4.28293 4.4373 6.21598 4.39838 8.61532L4.39778 8.68816V13.3763H13.2107V8.68816C13.2107 6.27956 11.2771 4.32243 8.87709 4.28353L8.80423 4.28293Z" fill="currentColor"/>
</svg>
