<svg width="18" height="19" viewBox="0 0 18 19" fill="none"
    xmlns="http://www.w3.org/2000/svg">
    <path fill-rule="evenodd" clip-rule="evenodd" d="M4.35766 10.9925C4.55333 10.7637 4.89368 10.7402 5.11785 10.9398L9.0008 14.3982L12.8837 10.9398C13.1079 10.7402 13.4483 10.7637 13.6439 10.9925C13.8396 11.2212 13.8165 11.5685 13.5923 11.7682L9.35509 15.5421C9.15211 15.7229 8.84948 15.7229 8.64651 15.5421L4.40927 11.7682C4.1851 11.5685 4.16199 11.2212 4.35766 10.9925Z" fill="currentColor"/>
    <path fill-rule="evenodd" clip-rule="evenodd" d="M4.35766 5.39287C4.55333 5.16412 4.89368 5.14054 5.11785 5.34021L9.0008 8.7986L12.8837 5.34021C13.1079 5.14054 13.4483 5.16412 13.6439 5.39287C13.8396 5.62162 13.8165 5.96892 13.5923 6.16858L9.35509 9.94253C9.15211 10.1233 8.84948 10.1233 8.64651 9.94253L4.40927 6.16858C4.1851 5.96892 4.16199 5.62162 4.35766 5.39287Z" fill="currentColor"/>
</svg>
