<svg width="18" height="18" viewBox="0 0 18 18" fill="none"
    xmlns="http://www.w3.org/2000/svg">
    <path d="M13.3734 15.5953H4.6125C3.81094 15.5953 3.16406 14.9484 3.16406 14.1469V3.83906C3.16406 3.0375 3.81094 2.39062 4.6125 2.39062H13.3734C14.175 2.39062 14.8219 3.0375 14.8219 3.83906V14.1469C14.8219 14.9484 14.175 15.5953 13.3734 15.5953ZM4.6125 3.23438C4.28906 3.23438 4.00781 3.51562 4.00781 3.83906V14.1469C4.00781 14.4844 4.275 14.7516 4.6125 14.7516H13.3734C13.7109 14.7516 13.9781 14.4844 13.9781 14.1469V3.83906C13.9781 3.50156 13.7109 3.23438 13.3734 3.23438H4.6125Z" fill="currentColor"/>
    <path d="M11.6719 8.0998H6.32812C5.77969 8.0998 5.34375 7.66387 5.34375 7.11543V5.38574C5.34375 4.8373 5.77969 4.40137 6.32812 4.40137H11.6719C12.2203 4.40137 12.6562 4.8373 12.6562 5.38574V7.11543C12.6562 7.66387 12.2203 8.0998 11.6719 8.0998ZM6.32812 5.24512C6.25781 5.24512 6.1875 5.2873 6.1875 5.38574V7.11543C6.1875 7.18574 6.25781 7.25605 6.32812 7.25605H11.6719C11.7422 7.25605 11.8125 7.18574 11.8125 7.11543V5.38574C11.8125 5.31543 11.7422 5.24512 11.6719 5.24512H6.32812Z" fill="currentColor"/>
    <path d="M5.48438 10.1953C5.48438 10.4191 5.57327 10.6337 5.7315 10.7919C5.88974 10.9502 6.10435 11.0391 6.32812 11.0391C6.5519 11.0391 6.76651 10.9502 6.92475 10.7919C7.08298 10.6337 7.17188 10.4191 7.17188 10.1953C7.17188 9.97154 7.08298 9.75693 6.92475 9.59869C6.76651 9.44046 6.5519 9.35156 6.32812 9.35156C6.10435 9.35156 5.88974 9.44046 5.7315 9.59869C5.57327 9.75693 5.48438 9.97154 5.48438 10.1953Z" fill="currentColor"/>
    <path d="M8.15625 10.1953C8.15625 10.4191 8.24514 10.6337 8.40338 10.7919C8.56161 10.9502 8.77622 11.0391 9 11.0391C9.22378 11.0391 9.43839 10.9502 9.59662 10.7919C9.75485 10.6337 9.84375 10.4191 9.84375 10.1953C9.84375 9.97154 9.75485 9.75693 9.59662 9.59869C9.43839 9.44046 9.22378 9.35156 9 9.35156C8.77622 9.35156 8.56161 9.44046 8.40338 9.59869C8.24514 9.75693 8.15625 9.97154 8.15625 10.1953Z" fill="currentColor"/>
    <path d="M10.8281 10.1953C10.8281 10.4191 10.917 10.6337 11.0753 10.7919C11.2335 10.9502 11.4481 11.0391 11.6719 11.0391C11.8957 11.0391 12.1103 10.9502 12.2685 10.7919C12.4267 10.6337 12.5156 10.4191 12.5156 10.1953C12.5156 9.97154 12.4267 9.75693 12.2685 9.59869C12.1103 9.44046 11.8957 9.35156 11.6719 9.35156C11.4481 9.35156 11.2335 9.44046 11.0753 9.59869C10.917 9.75693 10.8281 9.97154 10.8281 10.1953Z" fill="currentColor"/>
    <path d="M5.48438 12.7266C5.48438 12.9503 5.57327 13.1649 5.7315 13.3232C5.88974 13.4814 6.10435 13.5703 6.32812 13.5703C6.5519 13.5703 6.76651 13.4814 6.92475 13.3232C7.08298 13.1649 7.17188 12.9503 7.17188 12.7266C7.17188 12.5028 7.08298 12.2882 6.92475 12.1299C6.76651 11.9717 6.5519 11.8828 6.32812 11.8828C6.10435 11.8828 5.88974 11.9717 5.7315 12.1299C5.57327 12.2882 5.48438 12.5028 5.48438 12.7266Z" fill="currentColor"/>
    <path d="M8.15625 12.7266C8.15625 12.9503 8.24514 13.1649 8.40338 13.3232C8.56161 13.4814 8.77622 13.5703 9 13.5703C9.22378 13.5703 9.43839 13.4814 9.59662 13.3232C9.75485 13.1649 9.84375 12.9503 9.84375 12.7266C9.84375 12.5028 9.75485 12.2882 9.59662 12.1299C9.43839 11.9717 9.22378 11.8828 9 11.8828C8.77622 11.8828 8.56161 11.9717 8.40338 12.1299C8.24514 12.2882 8.15625 12.5028 8.15625 12.7266Z" fill="currentColor"/>
    <path d="M10.8281 12.7266C10.8281 12.9503 10.917 13.1649 11.0753 13.3232C11.2335 13.4814 11.4481 13.5703 11.6719 13.5703C11.8957 13.5703 12.1103 13.4814 12.2685 13.3232C12.4267 13.1649 12.5156 12.9503 12.5156 12.7266C12.5156 12.5028 12.4267 12.2882 12.2685 12.1299C12.1103 11.9717 11.8957 11.8828 11.6719 11.8828C11.4481 11.8828 11.2335 11.9717 11.0753 12.1299C10.917 12.2882 10.8281 12.5028 10.8281 12.7266Z" fill="currentColor"/>
</svg>
