<svg width="16" height="12" viewBox="0 0 16 12" fill="none"
    xmlns="http://www.w3.org/2000/svg">
    <path fill-rule="evenodd" clip-rule="evenodd" d="M2.19062 11.0438H14.6172C14.8172 11.0438 14.9797 10.8812 14.9797 10.6812C14.9797 10.4812 14.8172 10.3188 14.6172 10.3188H2.19062C1.93437 10.3188 1.725 10.1094 1.725 9.85312V1.3625C1.725 1.1625 1.5625 1 1.3625 1C1.1625 1 1 1.1625 1 1.3625V9.85312C1 10.5094 1.53437 11.0438 2.19062 11.0438ZM2.58438 8.825C2.64062 8.85625 2.7 8.87031 2.75937 8.87031C2.8875 8.87031 3.01094 8.80156 3.07656 8.68281L4.79219 5.57656L5.68906 6.19531C5.82812 6.29219 6.00313 6.32031 6.16562 6.27344C6.32969 6.22656 6.4625 6.10781 6.53125 5.94844L7.90625 2.74531C7.91406 2.72656 7.925 2.70781 7.95312 2.70937C7.98281 2.71094 7.99375 2.73281 8 2.75156L9.0125 5.89531C9.06719 6.06562 9.19375 6.19844 9.35938 6.25937C9.52344 6.32031 9.70312 6.30156 9.85156 6.20937L11.675 5.07656L12.8938 7.54219C12.9828 7.72187 13.2 7.79531 13.3797 7.70625C13.5594 7.61719 13.6328 7.4 13.5437 7.22031L12.2516 4.60469C12.1812 4.45781 12.0516 4.34844 11.8969 4.30312C11.7437 4.25781 11.5781 4.28125 11.4422 4.36562L9.64219 5.48437L8.69063 2.52812C8.58906 2.2125 8.31406 2 7.98906 1.98437C7.66719 1.97031 7.37187 2.15469 7.24219 2.45781L5.94219 5.4875L5.05937 4.87812C4.92813 4.7875 4.76406 4.75625 4.60938 4.79219C4.45313 4.82969 4.31875 4.93125 4.24063 5.07344L2.44219 8.33281C2.34531 8.50781 2.40938 8.72812 2.58438 8.825ZM11.6 4.92187C11.6 4.92187 11.6 4.92344 11.6016 4.92344L11.6 4.92187Z" fill="currentColor"/>
    <path d="M2.58438 8.825L2.6815 8.65017L2.68124 8.65002L2.58438 8.825ZM3.07656 8.68281L3.25161 8.77955L3.25163 8.77951L3.07656 8.68281ZM4.79219 5.57656L4.90576 5.41194L4.72392 5.28649L4.61712 5.47987L4.79219 5.57656ZM5.68906 6.19531L5.80338 6.03121L5.80264 6.03069L5.68906 6.19531ZM6.16562 6.27344L6.11068 6.08113L6.11019 6.08127L6.16562 6.27344ZM6.53125 5.94844L6.71489 6.02766L6.71503 6.02733L6.53125 5.94844ZM7.90625 2.74531L8.09004 2.82421L8.09087 2.82224L7.90625 2.74531ZM7.95312 2.70937L7.94203 2.90907L7.94261 2.9091L7.95312 2.70937ZM8 2.75156L8.19038 2.69025L8.18974 2.68832L8 2.75156ZM9.0125 5.89531L9.20292 5.83417L9.20287 5.834L9.0125 5.89531ZM9.35938 6.25937L9.42901 6.07189L9.42843 6.07168L9.35938 6.25937ZM9.85156 6.20937L9.95708 6.37927L9.9571 6.37926L9.85156 6.20937ZM11.675 5.07656L11.8543 4.98794L11.7566 4.79039L11.5695 4.90668L11.675 5.07656ZM12.8938 7.54219L12.7145 7.63081L12.7146 7.631L12.8938 7.54219ZM13.5437 7.22031L13.3644 7.3089L13.3646 7.30913L13.5437 7.22031ZM12.2516 4.60469L12.0712 4.69105L12.0722 4.69327L12.2516 4.60469ZM11.8969 4.30312L11.8401 4.4949L11.8407 4.49506L11.8969 4.30312ZM11.4422 4.36562L11.3367 4.1957L11.3366 4.19576L11.4422 4.36562ZM9.64219 5.48437L9.45181 5.54565L9.53027 5.78942L9.74776 5.65424L9.64219 5.48437ZM8.69063 2.52812L8.50024 2.58939L8.50024 2.5894L8.69063 2.52812ZM7.98906 1.98437L7.99867 1.7846L7.99779 1.78457L7.98906 1.98437ZM7.24219 2.45781L7.42598 2.53668L7.42607 2.53648L7.24219 2.45781ZM5.94219 5.4875L5.82857 5.6521L6.02964 5.79089L6.12598 5.56636L5.94219 5.4875ZM5.05937 4.87812L4.94574 5.0427L4.94576 5.04272L5.05937 4.87812ZM4.60938 4.79219L4.56411 4.59737L4.5627 4.59771L4.60938 4.79219ZM4.24063 5.07344L4.41574 5.17006L4.41591 5.16975L4.24063 5.07344ZM2.44219 8.33281L2.61717 8.42968L2.6173 8.42943L2.44219 8.33281ZM11.6 4.92187L11.7414 4.78047L11.4 4.43893V4.92187H11.6ZM11.6016 4.92344V5.12344H12.0843L11.743 4.78204L11.6016 4.92344ZM14.6172 10.8438H2.19062V11.2438H14.6172V10.8438ZM14.7797 10.6812C14.7797 10.7708 14.7067 10.8438 14.6172 10.8438V11.2438C14.9276 11.2438 15.1797 10.9917 15.1797 10.6812H14.7797ZM14.6172 10.5188C14.7067 10.5188 14.7797 10.5917 14.7797 10.6812H15.1797C15.1797 10.3708 14.9276 10.1188 14.6172 10.1188V10.5188ZM2.19062 10.5188H14.6172V10.1188H2.19062V10.5188ZM1.525 9.85312C1.525 10.2198 1.82392 10.5188 2.19062 10.5188V10.1188C2.04483 10.1188 1.925 9.99892 1.925 9.85312H1.525ZM1.525 1.3625V9.85312H1.925V1.3625H1.525ZM1.3625 1.2C1.45204 1.2 1.525 1.27296 1.525 1.3625H1.925C1.925 1.05204 1.67296 0.8 1.3625 0.8V1.2ZM1.2 1.3625C1.2 1.27296 1.27296 1.2 1.3625 1.2V0.8C1.05204 0.8 0.8 1.05204 0.8 1.3625H1.2ZM1.2 9.85312V1.3625H0.8V9.85312H1.2ZM2.19062 10.8438C1.64483 10.8438 1.2 10.3989 1.2 9.85312H0.8C0.8 10.6198 1.42392 11.2438 2.19062 11.2438V10.8438ZM2.75937 8.67031C2.73247 8.67031 2.70675 8.66419 2.6815 8.65017L2.48725 8.99983C2.5745 9.04831 2.66753 9.07031 2.75937 9.07031V8.67031ZM2.90151 8.58607C2.87202 8.63944 2.81664 8.67031 2.75937 8.67031V9.07031C2.95836 9.07031 3.14985 8.96369 3.25161 8.77955L2.90151 8.58607ZM4.61712 5.47987L2.90149 8.58612L3.25163 8.77951L4.96726 5.67326L4.61712 5.47987ZM5.80264 6.03069L4.90576 5.41194L4.67861 5.74119L5.57549 6.35994L5.80264 6.03069ZM6.11019 6.08127C6.005 6.11162 5.89246 6.09326 5.80338 6.03121L5.57474 6.35942C5.76379 6.49112 6.00125 6.52901 6.22106 6.4656L6.11019 6.08127ZM6.34761 5.86922C6.30186 5.97528 6.21522 6.05126 6.11068 6.08113L6.22057 6.46574C6.44415 6.40186 6.62314 6.24035 6.71489 6.02766L6.34761 5.86922ZM7.72247 2.66642L6.34747 5.86954L6.71503 6.02733L8.09003 2.8242L7.72247 2.66642ZM7.96422 2.50968C7.89718 2.50596 7.83315 2.52853 7.78463 2.57443C7.74505 2.61188 7.72728 2.65484 7.72163 2.66839L8.09087 2.82224C8.09303 2.81703 8.08464 2.84125 8.05951 2.86502C8.04506 2.87869 8.02599 2.89154 8.00259 2.89994C7.97945 2.90824 7.95827 2.90997 7.94203 2.90907L7.96422 2.50968ZM8.18974 2.68832C8.18404 2.67123 8.16921 2.62923 8.13383 2.59003C8.09231 2.54402 8.03309 2.51331 7.96364 2.50965L7.94261 2.9091C7.9256 2.9082 7.90552 2.90396 7.88498 2.89402C7.86451 2.88412 7.84856 2.87097 7.83687 2.85802C7.82565 2.84558 7.81905 2.83413 7.81551 2.82709C7.81202 2.82014 7.81041 2.81523 7.81026 2.81481L8.18974 2.68832ZM9.20287 5.834L8.19037 2.69025L7.80963 2.81287L8.82213 5.95662L9.20287 5.834ZM9.42843 6.07168C9.32148 6.03232 9.23908 5.94678 9.20292 5.83417L8.82208 5.95646C8.89529 6.18447 9.06602 6.36455 9.29032 6.44707L9.42843 6.07168ZM9.74605 6.03947C9.64965 6.09934 9.53458 6.1111 9.42901 6.07189L9.28974 6.44686C9.5123 6.52952 9.7566 6.50378 9.95708 6.37927L9.74605 6.03947ZM11.5695 4.90668L9.74602 6.03949L9.9571 6.37926L11.7805 5.24645L11.5695 4.90668ZM13.073 7.45356L11.8543 4.98794L11.4957 5.16519L12.7145 7.63081L13.073 7.45356ZM13.2909 7.52705C13.2103 7.56698 13.113 7.53426 13.0729 7.45337L12.7146 7.631C12.8526 7.90949 13.1897 8.02365 13.4685 7.88545L13.2909 7.52705ZM13.3646 7.30913C13.4045 7.38968 13.3718 7.48696 13.2909 7.52705L13.4685 7.88545C13.747 7.74741 13.8611 7.41032 13.7229 7.13149L13.3646 7.30913ZM12.0722 4.69327L13.3644 7.3089L13.7231 7.13173L12.4309 4.5161L12.0722 4.69327ZM11.8407 4.49506C11.9411 4.52449 12.0255 4.59568 12.0712 4.69105L12.432 4.51833C12.337 4.31994 12.162 4.17238 11.9531 4.11119L11.8407 4.49506ZM11.5477 4.53555C11.6361 4.48069 11.7428 4.46609 11.8401 4.4949L11.9536 4.11135C11.7447 4.04953 11.5202 4.08181 11.3367 4.1957L11.5477 4.53555ZM9.74776 5.65424L11.5478 4.53549L11.3366 4.19576L9.53661 5.31451L9.74776 5.65424ZM8.50024 2.5894L9.45181 5.54565L9.83257 5.42309L8.88101 2.46684L8.50024 2.5894ZM7.97946 2.18414C8.21956 2.19569 8.42368 2.35148 8.50024 2.58939L8.88101 2.46686C8.75444 2.07352 8.40857 1.80431 7.99867 1.78461L7.97946 2.18414ZM7.42607 2.53648C7.52322 2.3094 7.74213 2.17378 7.98033 2.18418L7.99779 1.78457C7.59224 1.76685 7.22053 1.99997 7.05831 2.37914L7.42607 2.53648ZM6.12598 5.56636L7.42598 2.53668L7.05839 2.37895L5.75839 5.40864L6.12598 5.56636ZM4.94576 5.04272L5.82857 5.6521L6.0558 5.3229L5.17299 4.71353L4.94576 5.04272ZM4.65463 4.987C4.7543 4.96384 4.8607 4.98399 4.94574 5.0427L5.17301 4.71355C4.99555 4.59101 4.77382 4.54866 4.56412 4.59738L4.65463 4.987ZM4.41591 5.16975C4.46669 5.07733 4.55415 5.01112 4.65605 4.98666L4.5627 4.59771C4.3521 4.64825 4.17081 4.78517 4.06534 4.97713L4.41591 5.16975ZM2.6173 8.42943L4.41574 5.17006L4.06551 4.97681L2.26708 8.23619L2.6173 8.42943ZM2.68124 8.65002C2.60223 8.60628 2.57414 8.50739 2.61717 8.42968L2.26721 8.23595C2.11648 8.50823 2.21652 8.84996 2.48751 8.99998L2.68124 8.65002ZM11.6 4.92187C11.4 4.92187 11.4 4.92197 11.4 4.92207C11.4 4.9221 11.4 4.9222 11.4 4.92227C11.4 4.9224 11.4 4.92253 11.4 4.92266C11.4 4.92293 11.4 4.92319 11.4 4.92346C11.4 4.924 11.4 4.92455 11.4 4.9251C11.4 4.92621 11.4001 4.92737 11.4001 4.92855C11.4002 4.93092 11.4003 4.93347 11.4005 4.93619C11.4009 4.94155 11.4016 4.94789 11.4027 4.95499C11.405 4.96823 11.4097 4.98894 11.4213 5.01208C11.4333 5.03599 11.4543 5.066 11.4897 5.08959C11.5263 5.11401 11.5662 5.12344 11.6016 5.12344V4.72344C11.6362 4.72344 11.6754 4.73267 11.7116 4.7568C11.7465 4.78009 11.7673 4.80971 11.7791 4.83324C11.7905 4.85598 11.7951 4.8763 11.7973 4.88925C11.7985 4.8962 11.7991 4.90242 11.7995 4.9077C11.7997 4.91037 11.7998 4.91288 11.7999 4.91523C11.7999 4.91641 11.8 4.91755 11.8 4.91865C11.8 4.91921 11.8 4.91975 11.8 4.92029C11.8 4.92056 11.8 4.92082 11.8 4.92109C11.8 4.92122 11.8 4.92135 11.8 4.92148C11.8 4.92155 11.8 4.92165 11.8 4.92168C11.8 4.92178 11.8 4.92187 11.6 4.92187ZM11.743 4.78204L11.7414 4.78047L11.4586 5.06327L11.4601 5.06484L11.743 4.78204Z" fill="currentColor"/>
</svg>
