<svg width="24" height="24" viewBox="0 0 24 24" fill="none"
    xmlns="http://www.w3.org/2000/svg">
    <path fill-rule="evenodd" clip-rule="evenodd" d="M12 20.2C16.5287 20.2 20.2 16.5287 20.2 12C20.2 7.47126 16.5287 3.8 12 3.8C7.47126 3.8 3.8 7.47126 3.8 12C3.8 16.5287 7.47126 20.2 12 20.2ZM12 22C17.5228 22 22 17.5228 22 12C22 6.47715 17.5228 2 12 2C6.47715 2 2 6.47715 2 12C2 17.5228 6.47715 22 12 22ZM7 11.9C7 11.4029 7.40294 11 7.9 11H11.2V7.9C11.2 7.40294 11.6029 7 12.1 7C12.5971 7 13 7.40294 13 7.9V11H16.1C16.5971 11 17 11.4029 17 11.9C17 12.3971 16.5971 12.8 16.1 12.8H13V16.1C13 16.5971 12.5971 17 12.1 17C11.6029 17 11.2 16.5971 11.2 16.1V12.8H7.9C7.40294 12.8 7 12.3971 7 11.9Z" fill="currentColor"/>
</svg>
