<svg width="14" height="14" viewBox="0 0 14 14" fill="none"
    xmlns="http://www.w3.org/2000/svg">
    <path d="M5.39587 1.45834H11.5209C11.7916 1.45834 12.0513 1.5659 12.2427 1.75734C12.4342 1.94878 12.5417 2.20843 12.5417 2.47918V8.60418C12.5417 8.87492 12.4342 9.13457 12.2427 9.32601C12.0513 9.51746 11.7916 9.62501 11.5209 9.62501H5.39587C5.12513 9.62501 4.86548 9.51746 4.67404 9.32601C4.48259 9.13457 4.37504 8.87492 4.37504 8.60418V2.47918C4.37504 2.20843 4.48259 1.94878 4.67404 1.75734C4.86548 1.5659 5.12513 1.45834 5.39587 1.45834ZM5.39587 2.33334C5.3572 2.33334 5.3201 2.34871 5.29275 2.37606C5.26541 2.40341 5.25004 2.4405 5.25004 2.47918V8.60418C5.25004 8.62333 5.25381 8.64229 5.26114 8.65998C5.26847 8.67768 5.27921 8.69375 5.29275 8.7073C5.3063 8.72084 5.32237 8.73158 5.34007 8.73891C5.35776 8.74624 5.37672 8.75001 5.39587 8.75001H11.5209C11.5596 8.75001 11.5966 8.73465 11.624 8.7073C11.6513 8.67995 11.6667 8.64285 11.6667 8.60418V2.47918C11.6667 2.4405 11.6513 2.40341 11.624 2.37606C11.5966 2.34871 11.5596 2.33334 11.5209 2.33334H5.39587ZM8.75004 10.5C8.75004 10.384 8.79613 10.2727 8.87818 10.1906C8.96023 10.1086 9.07151 10.0625 9.18754 10.0625C9.30357 10.0625 9.41485 10.1086 9.4969 10.1906C9.57895 10.2727 9.62504 10.384 9.62504 10.5V11.5208C9.62504 11.7916 9.51749 12.0512 9.32605 12.2427C9.1346 12.4341 8.87495 12.5417 8.60421 12.5417H2.47921C2.20847 12.5417 1.94881 12.4341 1.75737 12.2427C1.56593 12.0512 1.45837 11.7916 1.45837 11.5208V5.39584C1.45837 5.1251 1.56593 4.86545 1.75737 4.67401C1.94881 4.48256 2.20847 4.37501 2.47921 4.37501H3.50004C3.61607 4.37501 3.72735 4.4211 3.8094 4.50315C3.89145 4.5852 3.93754 4.69648 3.93754 4.81251C3.93754 4.92854 3.89145 5.03982 3.8094 5.12187C3.72735 5.20392 3.61607 5.25001 3.50004 5.25001H2.47921C2.44053 5.25001 2.40344 5.26537 2.37609 5.29272C2.34874 5.32007 2.33337 5.35717 2.33337 5.39584V11.5208C2.33337 11.5595 2.34874 11.5966 2.37609 11.624C2.40344 11.6513 2.44053 11.6667 2.47921 11.6667H8.60421C8.64288 11.6667 8.67998 11.6513 8.70733 11.624C8.73468 11.5966 8.75004 11.5595 8.75004 11.5208V10.5Z" fill="currentColor"/>
</svg>
