<svg width="14" height="14" viewBox="0 0 14 14" fill="none"
    xmlns="http://www.w3.org/2000/svg">
    <g>
        <mask id="mask0_17132_68219" style="mask-type:alpha" maskUnits="userSpaceOnUse" x="0" y="0" width="14" height="14">
            <path d="M14 0H0V14H14V0Z" fill="white"/>
        </mask>
        <g mask="url(#mask0_17132_68219)">
            <path d="M14 0H0V14H14V0Z" fill="white" fill-opacity="0.01"/>
        </g>
        <mask id="mask1_17132_68219" style="mask-type:alpha" maskUnits="userSpaceOnUse" x="0" y="0" width="14" height="14">
            <path d="M14 0H0V14H14V0Z" fill="white"/>
        </mask>
        <g mask="url(#mask1_17132_68219)">
            <path d="M14 0H0V14H14V0Z" fill="white" fill-opacity="0.01"/>
        </g>
        <mask id="mask2_17132_68219" style="mask-type:alpha" maskUnits="userSpaceOnUse" x="0" y="0" width="14" height="14">
            <path d="M14 0H0V14H14V0Z" fill="white"/>
        </mask>
        <g mask="url(#mask2_17132_68219)">
            <path d="M4.95834 2.91667C4.56945 2.91667 4.37501 3.11111 4.37501 3.5C4.37501 3.88889 4.56945 4.08333 4.95834 4.08333C5.34723 4.08333 5.54168 3.88889 5.54168 3.5C5.54168 3.11111 5.34723 2.91667 4.95834 2.91667ZM4.95834 1.75C5.44159 1.75 5.85407 1.92085 6.19577 2.26256C6.53749 2.60427 6.70834 3.01675 6.70834 3.5C6.70834 3.98324 6.53749 4.39572 6.19577 4.73743C5.85407 5.07914 5.44159 5.25 4.95834 5.25C4.4751 5.25 4.06262 5.07914 3.72091 4.73743C3.3792 4.39572 3.20834 3.98324 3.20834 3.5C3.20834 3.01675 3.3792 2.60427 3.72091 2.26256C4.06262 1.92085 4.4751 1.75 4.95834 1.75Z" fill="currentColor"/>
        </g>
        <mask id="mask3_17132_68219" style="mask-type:alpha" maskUnits="userSpaceOnUse" x="0" y="0" width="14" height="14">
            <path d="M14 0H0V14H14V0Z" fill="white"/>
        </mask>
        <g mask="url(#mask3_17132_68219)">
            <path d="M10.2083 6.41667C9.81945 6.41667 9.62501 6.61111 9.62501 7C9.62501 7.38889 9.81945 7.58333 10.2083 7.58333C10.5972 7.58333 10.7917 7.38889 10.7917 7C10.7917 6.61111 10.5972 6.41667 10.2083 6.41667ZM10.2083 5.25C10.6916 5.25 11.1041 5.42086 11.4458 5.76257C11.7875 6.10428 11.9583 6.51676 11.9583 7C11.9583 7.48324 11.7875 7.89572 11.4458 8.23743C11.1041 8.57914 10.6916 8.75 10.2083 8.75C9.7251 8.75 9.31262 8.57914 8.97091 8.23743C8.6292 7.89572 8.45834 7.48324 8.45834 7C8.45834 6.51676 8.6292 6.10428 8.97091 5.76257C9.31262 5.42086 9.7251 5.25 10.2083 5.25Z" fill="currentColor"/>
        </g>
        <mask id="mask4_17132_68219" style="mask-type:alpha" maskUnits="userSpaceOnUse" x="0" y="0" width="14" height="14">
            <path d="M14 0H0V14H14V0Z" fill="white"/>
        </mask>
        <g mask="url(#mask4_17132_68219)">
            <path d="M4.95834 9.91667C4.56945 9.91667 4.37501 10.1111 4.37501 10.5C4.37501 10.8889 4.56945 11.0833 4.95834 11.0833C5.34723 11.0833 5.54168 10.8889 5.54168 10.5C5.54168 10.1111 5.34723 9.91667 4.95834 9.91667ZM4.95834 8.75C5.44159 8.75 5.85407 8.92086 6.19577 9.26257C6.53749 9.60428 6.70834 10.0168 6.70834 10.5C6.70834 10.9832 6.53749 11.3957 6.19577 11.7374C5.85407 12.0791 5.44159 12.25 4.95834 12.25C4.4751 12.25 4.06262 12.0791 3.72091 11.7374C3.3792 11.3957 3.20834 10.9832 3.20834 10.5C3.20834 10.0168 3.3792 9.60428 3.72091 9.26257C4.06262 8.92086 4.4751 8.75 4.95834 8.75Z" fill="currentColor"/>
        </g>
        <mask id="mask5_17132_68219" style="mask-type:alpha" maskUnits="userSpaceOnUse" x="0" y="0" width="14" height="14">
            <path d="M14 0H0V14H14V0Z" fill="white"/>
        </mask>
        <g mask="url(#mask5_17132_68219)">
            <path d="M3.79168 11.0833H1.16668C1.12837 11.0833 1.09044 11.0796 1.05287 11.0721C1.01531 11.0646 0.978832 11.0536 0.943445 11.0389C0.908058 11.0243 0.874441 11.0063 0.842594 10.985C0.810747 10.9637 0.781282 10.9396 0.754198 10.9125C0.727114 10.8854 0.702932 10.8559 0.681653 10.8241C0.660373 10.7922 0.642405 10.7586 0.627747 10.7232C0.61309 10.6878 0.602025 10.6514 0.594552 10.6138C0.58708 10.5762 0.583344 10.5383 0.583344 10.5C0.583344 10.4617 0.58708 10.4238 0.594552 10.3862C0.602025 10.3486 0.61309 10.3121 0.627747 10.2768C0.642405 10.2414 0.660373 10.2078 0.681653 10.1759C0.702932 10.1441 0.727114 10.1146 0.754198 10.0875C0.781282 10.0604 0.810747 10.0362 0.842594 10.015C0.874441 9.99369 0.908058 9.97572 0.943445 9.96106C0.978832 9.9464 1.01531 9.93534 1.05287 9.92787C1.09044 9.92039 1.12837 9.91666 1.16668 9.91666H3.79168C3.82998 9.91666 3.86791 9.92039 3.90548 9.92787C3.94305 9.93534 3.97952 9.9464 4.01491 9.96106C4.0503 9.97572 4.08391 9.99369 4.11576 10.015C4.14761 10.0362 4.17707 10.0604 4.20416 10.0875C4.23124 10.1146 4.25542 10.1441 4.2767 10.1759C4.29798 10.2078 4.31595 10.2414 4.33061 10.2768C4.34526 10.3121 4.35633 10.3486 4.3638 10.3862C4.37127 10.4238 4.37501 10.4617 4.37501 10.5C4.37501 10.5383 4.37127 10.5762 4.3638 10.6138C4.35633 10.6514 4.34526 10.6878 4.33061 10.7232C4.31595 10.7586 4.29798 10.7922 4.2767 10.8241C4.25542 10.8559 4.23124 10.8854 4.20416 10.9125C4.17707 10.9396 4.14761 10.9637 4.11576 10.985C4.08391 11.0063 4.0503 11.0243 4.01491 11.0389C3.97952 11.0536 3.94305 11.0646 3.90548 11.0721C3.86791 11.0796 3.82998 11.0833 3.79168 11.0833ZM4.37501 10.5C4.37501 10.5383 4.37127 10.5762 4.3638 10.6138C4.35633 10.6514 4.34526 10.6878 4.33061 10.7232C4.31595 10.7586 4.29798 10.7922 4.2767 10.8241C4.25542 10.8559 4.23124 10.8854 4.20416 10.9125C4.17707 10.9396 4.14761 10.9637 4.11576 10.985C4.08391 11.0063 4.0503 11.0243 4.01491 11.0389C3.97952 11.0536 3.94305 11.0646 3.90548 11.0721C3.86791 11.0796 3.82998 11.0833 3.79168 11.0833C3.75338 11.0833 3.71544 11.0796 3.67787 11.0721C3.64031 11.0646 3.60383 11.0536 3.56845 11.0389C3.53306 11.0243 3.49944 11.0063 3.46759 10.985C3.43575 10.9637 3.40628 10.9396 3.3792 10.9125C3.35211 10.8854 3.32793 10.8559 3.30665 10.8241C3.28537 10.7922 3.2674 10.7586 3.25275 10.7232C3.23809 10.6878 3.22702 10.6514 3.21955 10.6138C3.21208 10.5762 3.20834 10.5383 3.20834 10.5C3.20834 10.4617 3.21208 10.4238 3.21955 10.3862C3.22702 10.3486 3.23809 10.3121 3.25275 10.2768C3.2674 10.2414 3.28537 10.2078 3.30665 10.1759C3.32793 10.1441 3.35211 10.1146 3.3792 10.0875C3.40628 10.0604 3.43575 10.0362 3.46759 10.015C3.49944 9.99369 3.53306 9.97572 3.56845 9.96106C3.60383 9.9464 3.64031 9.93534 3.67787 9.92787C3.71544 9.92039 3.75338 9.91666 3.79168 9.91666C3.82998 9.91666 3.86791 9.92039 3.90548 9.92787C3.94305 9.93534 3.97952 9.9464 4.01491 9.96106C4.0503 9.97572 4.08391 9.99369 4.11576 10.015C4.14761 10.0362 4.17707 10.0604 4.20416 10.0875C4.23124 10.1146 4.25542 10.1441 4.2767 10.1759C4.29798 10.2078 4.31595 10.2414 4.33061 10.2768C4.34526 10.3121 4.35633 10.3486 4.3638 10.3862C4.37127 10.4238 4.37501 10.4617 4.37501 10.5ZM1.75001 10.5C1.75001 10.5383 1.74627 10.5762 1.7388 10.6138C1.73133 10.6514 1.72026 10.6878 1.70561 10.7232C1.69095 10.7586 1.67298 10.7922 1.6517 10.8241C1.63042 10.8559 1.60624 10.8854 1.57916 10.9125C1.55207 10.9396 1.52261 10.9637 1.49076 10.985C1.45891 11.0063 1.4253 11.0243 1.38991 11.0389C1.35452 11.0536 1.31805 11.0646 1.28048 11.0721C1.24291 11.0796 1.20498 11.0833 1.16668 11.0833C1.12837 11.0833 1.09044 11.0796 1.05287 11.0721C1.01531 11.0646 0.978832 11.0536 0.943445 11.0389C0.908058 11.0243 0.874441 11.0063 0.842594 10.985C0.810747 10.9637 0.781282 10.9396 0.754198 10.9125C0.727114 10.8854 0.702932 10.8559 0.681653 10.8241C0.660373 10.7922 0.642405 10.7586 0.627747 10.7232C0.61309 10.6878 0.602025 10.6514 0.594552 10.6138C0.58708 10.5762 0.583344 10.5383 0.583344 10.5C0.583344 10.4617 0.58708 10.4238 0.594552 10.3862C0.602025 10.3486 0.61309 10.3121 0.627747 10.2768C0.642405 10.2414 0.660373 10.2078 0.681653 10.1759C0.702932 10.1441 0.727114 10.1146 0.754198 10.0875C0.781282 10.0604 0.810747 10.0362 0.842594 10.015C0.874441 9.99369 0.908058 9.97572 0.943445 9.96106C0.978832 9.9464 1.01531 9.93534 1.05287 9.92787C1.09044 9.92039 1.12837 9.91666 1.16668 9.91666C1.20498 9.91666 1.24291 9.92039 1.28048 9.92787C1.31805 9.93534 1.35452 9.9464 1.38991 9.96106C1.4253 9.97572 1.45891 9.99369 1.49076 10.015C1.52261 10.0362 1.55207 10.0604 1.57916 10.0875C1.60624 10.1146 1.63042 10.1441 1.6517 10.1759C1.67298 10.2078 1.69095 10.2414 1.70561 10.2768C1.72026 10.3121 1.73133 10.3486 1.7388 10.3862C1.74627 10.4238 1.75001 10.4617 1.75001 10.5Z" fill="currentColor"/>
        </g>
        <mask id="mask6_17132_68219" style="mask-type:alpha" maskUnits="userSpaceOnUse" x="0" y="0" width="14" height="14">
            <path d="M14 0H0V14H14V0Z" fill="white"/>
        </mask>
        <g mask="url(#mask6_17132_68219)">
            <path d="M12.8333 11.0833H6.12499C6.08669 11.0833 6.04875 11.0796 6.01119 11.0721C5.97362 11.0646 5.93714 11.0536 5.90176 11.0389C5.86637 11.0243 5.83275 11.0063 5.80091 10.985C5.76906 10.9637 5.73959 10.9396 5.71251 10.9125C5.68543 10.8854 5.66125 10.8559 5.63997 10.8241C5.61869 10.7922 5.60072 10.7586 5.58606 10.7232C5.5714 10.6878 5.56034 10.6514 5.55287 10.6138C5.54539 10.5762 5.54166 10.5383 5.54166 10.5C5.54166 10.4617 5.54539 10.4238 5.55287 10.3862C5.56034 10.3486 5.5714 10.3121 5.58606 10.2768C5.60072 10.2414 5.61869 10.2078 5.63997 10.1759C5.66125 10.1441 5.68543 10.1146 5.71251 10.0875C5.73959 10.0604 5.76906 10.0362 5.80091 10.015C5.83275 9.99369 5.86637 9.97572 5.90176 9.96106C5.93714 9.9464 5.97362 9.93534 6.01119 9.92787C6.04875 9.92039 6.08669 9.91666 6.12499 9.91666H12.8333C12.8716 9.91666 12.9096 9.92039 12.9471 9.92787C12.9847 9.93534 13.0212 9.9464 13.0566 9.96106C13.092 9.97572 13.1256 9.99369 13.1574 10.015C13.1893 10.0362 13.2187 10.0604 13.2458 10.0875C13.2729 10.1146 13.2971 10.1441 13.3184 10.1759C13.3396 10.2078 13.3576 10.2414 13.3723 10.2768C13.3869 10.3121 13.398 10.3486 13.4055 10.3862C13.4129 10.4238 13.4167 10.4617 13.4167 10.5C13.4167 10.5383 13.4129 10.5762 13.4055 10.6138C13.398 10.6514 13.3869 10.6878 13.3723 10.7232C13.3576 10.7586 13.3396 10.7922 13.3184 10.8241C13.2971 10.8559 13.2729 10.8854 13.2458 10.9125C13.2187 10.9396 13.1893 10.9637 13.1574 10.985C13.1256 11.0063 13.092 11.0243 13.0566 11.0389C13.0212 11.0536 12.9847 11.0646 12.9471 11.0721C12.9096 11.0796 12.8716 11.0833 12.8333 11.0833ZM13.4167 10.5C13.4167 10.5383 13.4129 10.5762 13.4055 10.6138C13.398 10.6514 13.3869 10.6878 13.3723 10.7232C13.3576 10.7586 13.3396 10.7922 13.3184 10.8241C13.2971 10.8559 13.2729 10.8854 13.2458 10.9125C13.2187 10.9396 13.1893 10.9637 13.1574 10.985C13.1256 11.0063 13.092 11.0243 13.0566 11.0389C13.0212 11.0536 12.9847 11.0646 12.9471 11.0721C12.9096 11.0796 12.8716 11.0833 12.8333 11.0833C12.795 11.0833 12.7571 11.0796 12.7195 11.0721C12.6819 11.0646 12.6455 11.0536 12.6101 11.0389C12.5747 11.0243 12.5411 11.0063 12.5092 10.985C12.4774 10.9637 12.4479 10.9396 12.4208 10.9125C12.3937 10.8854 12.3696 10.8559 12.3483 10.8241C12.327 10.7922 12.309 10.7586 12.2944 10.7232C12.2797 10.6878 12.2687 10.6514 12.2612 10.6138C12.2537 10.5762 12.25 10.5383 12.25 10.5C12.25 10.4617 12.2537 10.4238 12.2612 10.3862C12.2687 10.3486 12.2797 10.3121 12.2944 10.2768C12.309 10.2414 12.327 10.2078 12.3483 10.1759C12.3696 10.1441 12.3937 10.1146 12.4208 10.0875C12.4479 10.0604 12.4774 10.0362 12.5092 10.015C12.5411 9.99369 12.5747 9.97572 12.6101 9.96106C12.6455 9.9464 12.6819 9.93534 12.7195 9.92787C12.7571 9.92039 12.795 9.91666 12.8333 9.91666C12.8716 9.91666 12.9096 9.92039 12.9471 9.92787C12.9847 9.93534 13.0212 9.9464 13.0566 9.96106C13.092 9.97572 13.1256 9.99369 13.1574 10.015C13.1893 10.0362 13.2187 10.0604 13.2458 10.0875C13.2729 10.1146 13.2971 10.1441 13.3184 10.1759C13.3396 10.2078 13.3576 10.2414 13.3723 10.2768C13.3869 10.3121 13.398 10.3486 13.4055 10.3862C13.4129 10.4238 13.4167 10.4617 13.4167 10.5ZM6.70832 10.5C6.70832 10.5383 6.70459 10.5762 6.69711 10.6138C6.68964 10.6514 6.67858 10.6878 6.66392 10.7232C6.64926 10.7586 6.63129 10.7922 6.61001 10.8241C6.58873 10.8559 6.56455 10.8854 6.53747 10.9125C6.51038 10.9396 6.48092 10.9637 6.44907 10.985C6.41723 11.0063 6.38361 11.0243 6.34822 11.0389C6.31283 11.0536 6.27636 11.0646 6.23879 11.0721C6.20123 11.0796 6.16329 11.0833 6.12499 11.0833C6.08669 11.0833 6.04875 11.0796 6.01119 11.0721C5.97362 11.0646 5.93714 11.0536 5.90176 11.0389C5.86637 11.0243 5.83275 11.0063 5.80091 10.985C5.76906 10.9637 5.73959 10.9396 5.71251 10.9125C5.68543 10.8854 5.66125 10.8559 5.63997 10.8241C5.61869 10.7922 5.60072 10.7586 5.58606 10.7232C5.5714 10.6878 5.56034 10.6514 5.55287 10.6138C5.54539 10.5762 5.54166 10.5383 5.54166 10.5C5.54166 10.4617 5.54539 10.4238 5.55287 10.3862C5.56034 10.3486 5.5714 10.3121 5.58606 10.2768C5.60072 10.2414 5.61869 10.2078 5.63997 10.1759C5.66125 10.1441 5.68543 10.1146 5.71251 10.0875C5.73959 10.0604 5.76906 10.0362 5.80091 10.015C5.83275 9.99369 5.86637 9.97572 5.90176 9.96106C5.93714 9.9464 5.97362 9.93534 6.01119 9.92787C6.04875 9.92039 6.08669 9.91666 6.12499 9.91666C6.16329 9.91666 6.20123 9.92039 6.23879 9.92787C6.27636 9.93534 6.31283 9.9464 6.34822 9.96106C6.38361 9.97572 6.41723 9.99369 6.44907 10.015C6.48092 10.0362 6.51038 10.0604 6.53747 10.0875C6.56455 10.1146 6.58873 10.1441 6.61001 10.1759C6.63129 10.2078 6.64926 10.2414 6.66392 10.2768C6.67858 10.3121 6.68964 10.3486 6.69711 10.3862C6.70459 10.4238 6.70832 10.4617 6.70832 10.5Z" fill="currentColor"/>
        </g>
        <mask id="mask7_17132_68219" style="mask-type:alpha" maskUnits="userSpaceOnUse" x="0" y="0" width="14" height="14">
            <path d="M14 0H0V14H14V0Z" fill="white"/>
        </mask>
        <g mask="url(#mask7_17132_68219)">
            <path d="M3.79168 4.08332H1.16668C1.12837 4.08332 1.09044 4.07959 1.05287 4.07211C1.01531 4.06464 0.978832 4.05358 0.943445 4.03892C0.908058 4.02426 0.874441 4.00629 0.842594 3.98501C0.810747 3.96373 0.781282 3.93955 0.754198 3.91247C0.727114 3.88539 0.702932 3.85592 0.681653 3.82407C0.660373 3.79223 0.642405 3.75861 0.627747 3.72322C0.61309 3.68783 0.602025 3.65136 0.594552 3.61379C0.58708 3.57623 0.583344 3.53829 0.583344 3.49999C0.583344 3.46169 0.58708 3.42375 0.594552 3.38619C0.602025 3.34862 0.61309 3.31214 0.627747 3.27676C0.642405 3.24137 0.660373 3.20775 0.681653 3.17591C0.702932 3.14406 0.727114 3.11459 0.754198 3.08751C0.781282 3.06043 0.810747 3.03625 0.842594 3.01497C0.874441 2.99369 0.908058 2.97572 0.943445 2.96106C0.978832 2.9464 1.01531 2.93534 1.05287 2.92787C1.09044 2.92039 1.12837 2.91666 1.16668 2.91666H3.79168C3.82998 2.91666 3.86791 2.92039 3.90548 2.92787C3.94305 2.93534 3.97952 2.9464 4.01491 2.96106C4.0503 2.97572 4.08391 2.99369 4.11576 3.01497C4.14761 3.03625 4.17707 3.06043 4.20416 3.08751C4.23124 3.11459 4.25542 3.14406 4.2767 3.17591C4.29798 3.20775 4.31595 3.24137 4.33061 3.27676C4.34526 3.31214 4.35633 3.34862 4.3638 3.38619C4.37127 3.42375 4.37501 3.46169 4.37501 3.49999C4.37501 3.53829 4.37127 3.57623 4.3638 3.61379C4.35633 3.65136 4.34526 3.68783 4.33061 3.72322C4.31595 3.75861 4.29798 3.79223 4.2767 3.82407C4.25542 3.85592 4.23124 3.88539 4.20416 3.91247C4.17707 3.93955 4.14761 3.96373 4.11576 3.98501C4.08391 4.00629 4.0503 4.02426 4.01491 4.03892C3.97952 4.05358 3.94305 4.06464 3.90548 4.07211C3.86791 4.07959 3.82998 4.08332 3.79168 4.08332ZM4.37501 3.49999C4.37501 3.53829 4.37127 3.57623 4.3638 3.61379C4.35633 3.65136 4.34526 3.68783 4.33061 3.72322C4.31595 3.75861 4.29798 3.79223 4.2767 3.82407C4.25542 3.85592 4.23124 3.88539 4.20416 3.91247C4.17707 3.93955 4.14761 3.96373 4.11576 3.98501C4.08391 4.00629 4.0503 4.02426 4.01491 4.03892C3.97952 4.05358 3.94305 4.06464 3.90548 4.07211C3.86791 4.07959 3.82998 4.08332 3.79168 4.08332C3.75338 4.08332 3.71544 4.07959 3.67787 4.07211C3.64031 4.06464 3.60383 4.05358 3.56845 4.03892C3.53306 4.02426 3.49944 4.00629 3.46759 3.98501C3.43575 3.96373 3.40628 3.93955 3.3792 3.91247C3.35211 3.88539 3.32793 3.85592 3.30665 3.82407C3.28537 3.79223 3.2674 3.75861 3.25275 3.72322C3.23809 3.68783 3.22702 3.65136 3.21955 3.61379C3.21208 3.57623 3.20834 3.53829 3.20834 3.49999C3.20834 3.46169 3.21208 3.42375 3.21955 3.38619C3.22702 3.34862 3.23809 3.31214 3.25275 3.27676C3.2674 3.24137 3.28537 3.20775 3.30665 3.17591C3.32793 3.14406 3.35211 3.11459 3.3792 3.08751C3.40628 3.06043 3.43575 3.03625 3.46759 3.01497C3.49944 2.99369 3.53306 2.97572 3.56845 2.96106C3.60383 2.9464 3.64031 2.93534 3.67787 2.92787C3.71544 2.92039 3.75338 2.91666 3.79168 2.91666C3.82998 2.91666 3.86791 2.92039 3.90548 2.92787C3.94305 2.93534 3.97952 2.9464 4.01491 2.96106C4.0503 2.97572 4.08391 2.99369 4.11576 3.01497C4.14761 3.03625 4.17707 3.06043 4.20416 3.08751C4.23124 3.11459 4.25542 3.14406 4.2767 3.17591C4.29798 3.20775 4.31595 3.24137 4.33061 3.27676C4.34526 3.31214 4.35633 3.34862 4.3638 3.38619C4.37127 3.42375 4.37501 3.46169 4.37501 3.49999ZM1.75001 3.49999C1.75001 3.53829 1.74627 3.57623 1.7388 3.61379C1.73133 3.65136 1.72026 3.68783 1.70561 3.72322C1.69095 3.75861 1.67298 3.79223 1.6517 3.82407C1.63042 3.85592 1.60624 3.88539 1.57916 3.91247C1.55207 3.93955 1.52261 3.96373 1.49076 3.98501C1.45891 4.00629 1.4253 4.02426 1.38991 4.03892C1.35452 4.05358 1.31805 4.06464 1.28048 4.07211C1.24291 4.07959 1.20498 4.08332 1.16668 4.08332C1.12837 4.08332 1.09044 4.07959 1.05287 4.07211C1.01531 4.06464 0.978832 4.05358 0.943445 4.03892C0.908058 4.02426 0.874441 4.00629 0.842594 3.98501C0.810747 3.96373 0.781282 3.93955 0.754198 3.91247C0.727114 3.88539 0.702932 3.85592 0.681653 3.82407C0.660373 3.79223 0.642405 3.75861 0.627747 3.72322C0.61309 3.68783 0.602025 3.65136 0.594552 3.61379C0.58708 3.57623 0.583344 3.53829 0.583344 3.49999C0.583344 3.46169 0.58708 3.42375 0.594552 3.38619C0.602025 3.34862 0.61309 3.31214 0.627747 3.27676C0.642405 3.24137 0.660373 3.20775 0.681653 3.17591C0.702932 3.14406 0.727114 3.11459 0.754198 3.08751C0.781282 3.06043 0.810747 3.03625 0.842594 3.01497C0.874441 2.99369 0.908058 2.97572 0.943445 2.96106C0.978832 2.9464 1.01531 2.93534 1.05287 2.92787C1.09044 2.92039 1.12837 2.91666 1.16668 2.91666C1.20498 2.91666 1.24291 2.92039 1.28048 2.92787C1.31805 2.93534 1.35452 2.9464 1.38991 2.96106C1.4253 2.97572 1.45891 2.99369 1.49076 3.01497C1.52261 3.03625 1.55207 3.06043 1.57916 3.08751C1.60624 3.11459 1.63042 3.14406 1.6517 3.17591C1.67298 3.20775 1.69095 3.24137 1.70561 3.27676C1.72026 3.31214 1.73133 3.34862 1.7388 3.38619C1.74627 3.42375 1.75001 3.46169 1.75001 3.49999Z" fill="currentColor"/>
        </g>
        <mask id="mask8_17132_68219" style="mask-type:alpha" maskUnits="userSpaceOnUse" x="0" y="0" width="14" height="14">
            <path d="M14 0H0V14H14V0Z" fill="white"/>
        </mask>
        <g mask="url(#mask8_17132_68219)">
            <path d="M12.8333 4.08332H6.12499C6.08669 4.08332 6.04875 4.07959 6.01119 4.07211C5.97362 4.06464 5.93714 4.05358 5.90176 4.03892C5.86637 4.02426 5.83275 4.00629 5.80091 3.98501C5.76906 3.96373 5.73959 3.93955 5.71251 3.91247C5.68543 3.88539 5.66125 3.85592 5.63997 3.82407C5.61869 3.79223 5.60072 3.75861 5.58606 3.72322C5.5714 3.68783 5.56034 3.65136 5.55287 3.61379C5.54539 3.57623 5.54166 3.53829 5.54166 3.49999C5.54166 3.46169 5.54539 3.42375 5.55287 3.38619C5.56034 3.34862 5.5714 3.31214 5.58606 3.27676C5.60072 3.24137 5.61869 3.20775 5.63997 3.17591C5.66125 3.14406 5.68543 3.11459 5.71251 3.08751C5.73959 3.06043 5.76906 3.03625 5.80091 3.01497C5.83275 2.99369 5.86637 2.97572 5.90176 2.96106C5.93714 2.9464 5.97362 2.93534 6.01119 2.92787C6.04875 2.92039 6.08669 2.91666 6.12499 2.91666H12.8333C12.8716 2.91666 12.9096 2.92039 12.9471 2.92787C12.9847 2.93534 13.0212 2.9464 13.0566 2.96106C13.092 2.97572 13.1256 2.99369 13.1574 3.01497C13.1893 3.03625 13.2187 3.06043 13.2458 3.08751C13.2729 3.11459 13.2971 3.14406 13.3184 3.17591C13.3396 3.20775 13.3576 3.24137 13.3723 3.27676C13.3869 3.31214 13.398 3.34862 13.4055 3.38619C13.4129 3.42375 13.4167 3.46169 13.4167 3.49999C13.4167 3.53829 13.4129 3.57623 13.4055 3.61379C13.398 3.65136 13.3869 3.68783 13.3723 3.72322C13.3576 3.75861 13.3396 3.79223 13.3184 3.82407C13.2971 3.85592 13.2729 3.88539 13.2458 3.91247C13.2187 3.93955 13.1893 3.96373 13.1574 3.98501C13.1256 4.00629 13.092 4.02426 13.0566 4.03892C13.0212 4.05358 12.9847 4.06464 12.9471 4.07211C12.9096 4.07959 12.8716 4.08332 12.8333 4.08332ZM13.4167 3.49999C13.4167 3.53829 13.4129 3.57623 13.4055 3.61379C13.398 3.65136 13.3869 3.68783 13.3723 3.72322C13.3576 3.75861 13.3396 3.79223 13.3184 3.82407C13.2971 3.85592 13.2729 3.88539 13.2458 3.91247C13.2187 3.93955 13.1893 3.96373 13.1574 3.98501C13.1256 4.00629 13.092 4.02426 13.0566 4.03892C13.0212 4.05358 12.9847 4.06464 12.9471 4.07211C12.9096 4.07959 12.8716 4.08332 12.8333 4.08332C12.795 4.08332 12.7571 4.07959 12.7195 4.07211C12.6819 4.06464 12.6455 4.05358 12.6101 4.03892C12.5747 4.02426 12.5411 4.00629 12.5092 3.98501C12.4774 3.96373 12.4479 3.93955 12.4208 3.91247C12.3937 3.88539 12.3696 3.85592 12.3483 3.82407C12.327 3.79223 12.309 3.75861 12.2944 3.72322C12.2797 3.68783 12.2687 3.65136 12.2612 3.61379C12.2537 3.57623 12.25 3.53829 12.25 3.49999C12.25 3.46169 12.2537 3.42375 12.2612 3.38619C12.2687 3.34862 12.2797 3.31214 12.2944 3.27676C12.309 3.24137 12.327 3.20775 12.3483 3.17591C12.3696 3.14406 12.3937 3.11459 12.4208 3.08751C12.4479 3.06043 12.4774 3.03625 12.5092 3.01497C12.5411 2.99369 12.5747 2.97572 12.6101 2.96106C12.6455 2.9464 12.6819 2.93534 12.7195 2.92787C12.7571 2.92039 12.795 2.91666 12.8333 2.91666C12.8716 2.91666 12.9096 2.92039 12.9471 2.92787C12.9847 2.93534 13.0212 2.9464 13.0566 2.96106C13.092 2.97572 13.1256 2.99369 13.1574 3.01497C13.1893 3.03625 13.2187 3.06043 13.2458 3.08751C13.2729 3.11459 13.2971 3.14406 13.3184 3.17591C13.3396 3.20775 13.3576 3.24137 13.3723 3.27676C13.3869 3.31214 13.398 3.34862 13.4055 3.38619C13.4129 3.42375 13.4167 3.46169 13.4167 3.49999ZM6.70832 3.49999C6.70832 3.53829 6.70459 3.57623 6.69711 3.61379C6.68964 3.65136 6.67858 3.68783 6.66392 3.72322C6.64926 3.75861 6.63129 3.79223 6.61001 3.82407C6.58873 3.85592 6.56455 3.88539 6.53747 3.91247C6.51038 3.93955 6.48092 3.96373 6.44907 3.98501C6.41723 4.00629 6.38361 4.02426 6.34822 4.03892C6.31283 4.05358 6.27636 4.06464 6.23879 4.07211C6.20123 4.07959 6.16329 4.08332 6.12499 4.08332C6.08669 4.08332 6.04875 4.07959 6.01119 4.07211C5.97362 4.06464 5.93714 4.05358 5.90176 4.03892C5.86637 4.02426 5.83275 4.00629 5.80091 3.98501C5.76906 3.96373 5.73959 3.93955 5.71251 3.91247C5.68543 3.88539 5.66125 3.85592 5.63997 3.82407C5.61869 3.79223 5.60072 3.75861 5.58606 3.72322C5.5714 3.68783 5.56034 3.65136 5.55287 3.61379C5.54539 3.57623 5.54166 3.53829 5.54166 3.49999C5.54166 3.46169 5.54539 3.42375 5.55287 3.38619C5.56034 3.34862 5.5714 3.31214 5.58606 3.27676C5.60072 3.24137 5.61869 3.20775 5.63997 3.17591C5.66125 3.14406 5.68543 3.11459 5.71251 3.08751C5.73959 3.06043 5.76906 3.03625 5.80091 3.01497C5.83275 2.99369 5.86637 2.97572 5.90176 2.96106C5.93714 2.9464 5.97362 2.93534 6.01119 2.92787C6.04875 2.92039 6.08669 2.91666 6.12499 2.91666C6.16329 2.91666 6.20123 2.92039 6.23879 2.92787C6.27636 2.93534 6.31283 2.9464 6.34822 2.96106C6.38361 2.97572 6.41723 2.99369 6.44907 3.01497C6.48092 3.03625 6.51038 3.06043 6.53747 3.08751C6.56455 3.11459 6.58873 3.14406 6.61001 3.17591C6.63129 3.20775 6.64926 3.24137 6.66392 3.27676C6.67858 3.31214 6.68964 3.34862 6.69711 3.38619C6.70459 3.42375 6.70832 3.46169 6.70832 3.49999Z" fill="currentColor"/>
        </g>
        <mask id="mask9_17132_68219" style="mask-type:alpha" maskUnits="userSpaceOnUse" x="0" y="0" width="14" height="14">
            <path d="M14 0H0V14H14V0Z" fill="white"/>
        </mask>
        <g mask="url(#mask9_17132_68219)">
            <path d="M0.583344 12.8333V1.16668C0.583344 1.12837 0.58708 1.09044 0.594552 1.05287C0.602025 1.01531 0.61309 0.978832 0.627747 0.943445C0.642405 0.908058 0.660373 0.874441 0.681653 0.842594C0.702932 0.810747 0.727114 0.781282 0.754198 0.754198C0.781282 0.727114 0.810747 0.702932 0.842594 0.681653C0.874441 0.660373 0.908058 0.642405 0.943445 0.627747C0.978832 0.61309 1.01531 0.602025 1.05287 0.594552C1.09044 0.58708 1.12837 0.583344 1.16668 0.583344C1.20498 0.583344 1.24291 0.58708 1.28048 0.594552C1.31805 0.602025 1.35452 0.61309 1.38991 0.627747C1.4253 0.642405 1.45891 0.660373 1.49076 0.681653C1.52261 0.702932 1.55207 0.727114 1.57916 0.754198C1.60624 0.781282 1.63042 0.810747 1.6517 0.842594C1.67298 0.874441 1.69095 0.908058 1.70561 0.943445C1.72026 0.978832 1.73133 1.01531 1.7388 1.05287C1.74627 1.09044 1.75001 1.12837 1.75001 1.16668V12.8333C1.75001 12.8716 1.74627 12.9096 1.7388 12.9472C1.73133 12.9847 1.72026 13.0212 1.70561 13.0566C1.69095 13.092 1.67298 13.1256 1.6517 13.1574C1.63042 13.1893 1.60624 13.2188 1.57916 13.2458C1.55207 13.2729 1.52261 13.2971 1.49076 13.3184C1.45891 13.3397 1.4253 13.3576 1.38991 13.3723C1.35452 13.3869 1.31805 13.398 1.28048 13.4055C1.24291 13.4129 1.20498 13.4167 1.16668 13.4167C1.12837 13.4167 1.09044 13.4129 1.05287 13.4055C1.01531 13.398 0.978832 13.3869 0.943445 13.3723C0.908058 13.3576 0.874441 13.3397 0.842594 13.3184C0.810747 13.2971 0.781282 13.2729 0.754198 13.2458C0.727114 13.2188 0.702932 13.1893 0.681653 13.1574C0.660373 13.1256 0.642405 13.092 0.627747 13.0566C0.61309 13.0212 0.602025 12.9847 0.594552 12.9472C0.58708 12.9096 0.583344 12.8716 0.583344 12.8333ZM1.75001 12.8333C1.75001 12.8716 1.74627 12.9096 1.7388 12.9472C1.73133 12.9847 1.72026 13.0212 1.70561 13.0566C1.69095 13.092 1.67298 13.1256 1.6517 13.1574C1.63042 13.1893 1.60624 13.2188 1.57916 13.2458C1.55207 13.2729 1.52261 13.2971 1.49076 13.3184C1.45891 13.3397 1.4253 13.3576 1.38991 13.3723C1.35452 13.3869 1.31805 13.398 1.28048 13.4055C1.24291 13.4129 1.20498 13.4167 1.16668 13.4167C1.12837 13.4167 1.09044 13.4129 1.05287 13.4055C1.01531 13.398 0.978832 13.3869 0.943445 13.3723C0.908058 13.3576 0.874441 13.3397 0.842594 13.3184C0.810747 13.2971 0.781282 13.2729 0.754198 13.2458C0.727114 13.2188 0.702932 13.1893 0.681653 13.1574C0.660373 13.1256 0.642405 13.092 0.627747 13.0566C0.61309 13.0212 0.602025 12.9847 0.594552 12.9472C0.58708 12.9096 0.583344 12.8716 0.583344 12.8333C0.583344 12.795 0.58708 12.7571 0.594552 12.7195C0.602025 12.682 0.61309 12.6455 0.627747 12.6101C0.642405 12.5747 0.660373 12.5411 0.681653 12.5092C0.702932 12.4774 0.727114 12.4479 0.754198 12.4209C0.781282 12.3938 0.810747 12.3696 0.842594 12.3483C0.874441 12.327 0.908058 12.3091 0.943445 12.2944C0.978832 12.2797 1.01531 12.2687 1.05287 12.2612C1.09044 12.2537 1.12837 12.25 1.16668 12.25C1.20498 12.25 1.24291 12.2537 1.28048 12.2612C1.31805 12.2687 1.35452 12.2797 1.38991 12.2944C1.4253 12.3091 1.45891 12.327 1.49076 12.3483C1.52261 12.3696 1.55207 12.3938 1.57916 12.4209C1.60624 12.4479 1.63042 12.4774 1.6517 12.5092C1.67298 12.5411 1.69095 12.5747 1.70561 12.6101C1.72026 12.6455 1.73133 12.682 1.7388 12.7195C1.74627 12.7571 1.75001 12.795 1.75001 12.8333ZM1.75001 1.16668C1.75001 1.20498 1.74627 1.24291 1.7388 1.28048C1.73133 1.31805 1.72026 1.35452 1.70561 1.38991C1.69095 1.4253 1.67298 1.45891 1.6517 1.49076C1.63042 1.52261 1.60624 1.55207 1.57916 1.57916C1.55207 1.60624 1.52261 1.63042 1.49076 1.6517C1.45891 1.67298 1.4253 1.69095 1.38991 1.70561C1.35452 1.72026 1.31805 1.73133 1.28048 1.7388C1.24291 1.74627 1.20498 1.75001 1.16668 1.75001C1.12837 1.75001 1.09044 1.74627 1.05287 1.7388C1.01531 1.73133 0.978832 1.72026 0.943445 1.70561C0.908058 1.69095 0.874441 1.67298 0.842594 1.6517C0.810747 1.63042 0.781282 1.60624 0.754198 1.57916C0.727114 1.55207 0.702932 1.52261 0.681653 1.49076C0.660373 1.45891 0.642405 1.4253 0.627747 1.38991C0.61309 1.35452 0.602025 1.31805 0.594552 1.28048C0.58708 1.24291 0.583344 1.20498 0.583344 1.16668C0.583344 1.12837 0.58708 1.09044 0.594552 1.05287C0.602025 1.01531 0.61309 0.978832 0.627747 0.943445C0.642405 0.908058 0.660373 0.874441 0.681653 0.842594C0.702932 0.810747 0.727114 0.781282 0.754198 0.754198C0.781282 0.727114 0.810747 0.702932 0.842594 0.681653C0.874441 0.660373 0.908058 0.642405 0.943445 0.627747C0.978832 0.61309 1.01531 0.602025 1.05287 0.594552C1.09044 0.58708 1.12837 0.583344 1.16668 0.583344C1.20498 0.583344 1.24291 0.58708 1.28048 0.594552C1.31805 0.602025 1.35452 0.61309 1.38991 0.627747C1.4253 0.642405 1.45891 0.660373 1.49076 0.681653C1.52261 0.702932 1.55207 0.727114 1.57916 0.754198C1.60624 0.781282 1.63042 0.810747 1.6517 0.842594C1.67298 0.874441 1.69095 0.908058 1.70561 0.943445C1.72026 0.978832 1.73133 1.01531 1.7388 1.05287C1.74627 1.09044 1.75001 1.12837 1.75001 1.16668Z" fill="currentColor"/>
        </g>
        <mask id="mask10_17132_68219" style="mask-type:alpha" maskUnits="userSpaceOnUse" x="0" y="0" width="14" height="14">
            <path d="M14 0H0V14H14V0Z" fill="white"/>
        </mask>
        <g mask="url(#mask10_17132_68219)">
            <path d="M9.04168 7.58332H1.16668C1.12837 7.58332 1.09044 7.57959 1.05287 7.57211C1.01531 7.56464 0.978832 7.55358 0.943445 7.53892C0.908058 7.52426 0.874441 7.50629 0.842594 7.48501C0.810747 7.46373 0.781282 7.43955 0.754198 7.41247C0.727114 7.38538 0.702932 7.35592 0.681653 7.32407C0.660373 7.29223 0.642405 7.25861 0.627747 7.22322C0.61309 7.18783 0.602025 7.15136 0.594552 7.11379C0.58708 7.07623 0.583344 7.03829 0.583344 6.99999C0.583344 6.96169 0.58708 6.92375 0.594552 6.88619C0.602025 6.84862 0.61309 6.81214 0.627747 6.77676C0.642405 6.74137 0.660373 6.70775 0.681653 6.67591C0.702932 6.64406 0.727114 6.61459 0.754198 6.58751C0.781282 6.56043 0.810747 6.53625 0.842594 6.51497C0.874441 6.49369 0.908058 6.47572 0.943445 6.46106C0.978832 6.4464 1.01531 6.43534 1.05287 6.42787C1.09044 6.42039 1.12837 6.41666 1.16668 6.41666H9.04168C9.07998 6.41666 9.11792 6.42039 9.15549 6.42787C9.19305 6.43534 9.22953 6.4464 9.26492 6.46106C9.30031 6.47572 9.33393 6.49369 9.36578 6.51497C9.39763 6.53625 9.42709 6.56043 9.45415 6.58751C9.48122 6.61459 9.50541 6.64406 9.52672 6.67591C9.54799 6.70775 9.56596 6.74137 9.58062 6.77676C9.59528 6.81214 9.60634 6.84862 9.61381 6.88619C9.62128 6.92375 9.62501 6.96169 9.62501 6.99999C9.62501 7.03829 9.62128 7.07623 9.61381 7.11379C9.60634 7.15136 9.59528 7.18783 9.58062 7.22322C9.56596 7.25861 9.54799 7.29223 9.52672 7.32407C9.50541 7.35592 9.48122 7.38538 9.45415 7.41247C9.42709 7.43955 9.39763 7.46373 9.36578 7.48501C9.33393 7.50629 9.30031 7.52426 9.26492 7.53892C9.22953 7.55358 9.19305 7.56464 9.15549 7.57211C9.11792 7.57959 9.07998 7.58332 9.04168 7.58332ZM9.62501 6.99999C9.62501 7.03829 9.62128 7.07623 9.61381 7.11379C9.60634 7.15136 9.59528 7.18783 9.58062 7.22322C9.56596 7.25861 9.54799 7.29223 9.52672 7.32407C9.50541 7.35592 9.48122 7.38538 9.45415 7.41247C9.42709 7.43955 9.39763 7.46373 9.36578 7.48501C9.33393 7.50629 9.30031 7.52426 9.26492 7.53892C9.22953 7.55358 9.19305 7.56464 9.15549 7.57211C9.11792 7.57959 9.07998 7.58332 9.04168 7.58332C9.00337 7.58332 8.96544 7.57959 8.92787 7.57211C8.8903 7.56464 8.85382 7.55358 8.81844 7.53892C8.78305 7.52426 8.74943 7.50629 8.71758 7.48501C8.68573 7.46373 8.65627 7.43955 8.6292 7.41247C8.6021 7.38538 8.57791 7.35592 8.55664 7.32407C8.53536 7.29223 8.5174 7.25861 8.50274 7.22322C8.48807 7.18783 8.47701 7.15136 8.46954 7.11379C8.46208 7.07623 8.45834 7.03829 8.45834 6.99999C8.45834 6.96169 8.46208 6.92375 8.46954 6.88619C8.47701 6.84862 8.48807 6.81214 8.50274 6.77676C8.5174 6.74137 8.53536 6.70775 8.55664 6.67591C8.57791 6.64406 8.6021 6.61459 8.6292 6.58751C8.65627 6.56043 8.68573 6.53625 8.71758 6.51497C8.74943 6.49369 8.78305 6.47572 8.81844 6.46106C8.85382 6.4464 8.8903 6.43534 8.92787 6.42787C8.96544 6.42039 9.00337 6.41666 9.04168 6.41666C9.07998 6.41666 9.11792 6.42039 9.15549 6.42787C9.19305 6.43534 9.22953 6.4464 9.26492 6.46106C9.30031 6.47572 9.33393 6.49369 9.36578 6.51497C9.39763 6.53625 9.42709 6.56043 9.45415 6.58751C9.48122 6.61459 9.50541 6.64406 9.52672 6.67591C9.54799 6.70775 9.56596 6.74137 9.58062 6.77676C9.59528 6.81214 9.60634 6.84862 9.61381 6.88619C9.62128 6.92375 9.62501 6.96169 9.62501 6.99999ZM1.75001 6.99999C1.75001 7.03829 1.74627 7.07623 1.7388 7.11379C1.73133 7.15136 1.72026 7.18783 1.70561 7.22322C1.69095 7.25861 1.67298 7.29223 1.6517 7.32407C1.63042 7.35592 1.60624 7.38538 1.57916 7.41247C1.55207 7.43955 1.52261 7.46373 1.49076 7.48501C1.45891 7.50629 1.4253 7.52426 1.38991 7.53892C1.35452 7.55358 1.31805 7.56464 1.28048 7.57211C1.24291 7.57959 1.20498 7.58332 1.16668 7.58332C1.12837 7.58332 1.09044 7.57959 1.05287 7.57211C1.01531 7.56464 0.978832 7.55358 0.943445 7.53892C0.908058 7.52426 0.874441 7.50629 0.842594 7.48501C0.810747 7.46373 0.781282 7.43955 0.754198 7.41247C0.727114 7.38538 0.702932 7.35592 0.681653 7.32407C0.660373 7.29223 0.642405 7.25861 0.627747 7.22322C0.61309 7.18783 0.602025 7.15136 0.594552 7.11379C0.58708 7.07623 0.583344 7.03829 0.583344 6.99999C0.583344 6.96169 0.58708 6.92375 0.594552 6.88619C0.602025 6.84862 0.61309 6.81214 0.627747 6.77676C0.642405 6.74137 0.660373 6.70775 0.681653 6.67591C0.702932 6.64406 0.727114 6.61459 0.754198 6.58751C0.781282 6.56043 0.810747 6.53625 0.842594 6.51497C0.874441 6.49369 0.908058 6.47572 0.943445 6.46106C0.978832 6.4464 1.01531 6.43534 1.05287 6.42787C1.09044 6.42039 1.12837 6.41666 1.16668 6.41666C1.20498 6.41666 1.24291 6.42039 1.28048 6.42787C1.31805 6.43534 1.35452 6.4464 1.38991 6.46106C1.4253 6.47572 1.45891 6.49369 1.49076 6.51497C1.52261 6.53625 1.55207 6.56043 1.57916 6.58751C1.60624 6.61459 1.63042 6.64406 1.6517 6.67591C1.67298 6.70775 1.69095 6.74137 1.70561 6.77676C1.72026 6.81214 1.73133 6.84862 1.7388 6.88619C1.74627 6.92375 1.75001 6.96169 1.75001 6.99999Z" fill="currentColor"/>
        </g>
        <mask id="mask11_17132_68219" style="mask-type:alpha" maskUnits="userSpaceOnUse" x="0" y="0" width="14" height="14">
            <path d="M14 0H0V14H14V0Z" fill="white"/>
        </mask>
        <g mask="url(#mask11_17132_68219)">
            <path d="M12.8333 7.58332H11.375C11.3367 7.58332 11.2988 7.57959 11.2612 7.57211C11.2236 7.56464 11.1871 7.55358 11.1518 7.53892C11.1164 7.52426 11.0828 7.50629 11.0509 7.48501C11.0191 7.46373 10.9896 7.43955 10.9625 7.41247C10.9354 7.38538 10.9112 7.35592 10.89 7.32407C10.8687 7.29223 10.8507 7.25861 10.8361 7.22322C10.8214 7.18783 10.8103 7.15136 10.8029 7.11379C10.7954 7.07623 10.7917 7.03829 10.7917 6.99999C10.7917 6.96169 10.7954 6.92375 10.8029 6.88619C10.8103 6.84862 10.8214 6.81214 10.8361 6.77676C10.8507 6.74137 10.8687 6.70775 10.89 6.67591C10.9112 6.64406 10.9354 6.61459 10.9625 6.58751C10.9896 6.56043 11.0191 6.53625 11.0509 6.51497C11.0828 6.49369 11.1164 6.47572 11.1518 6.46106C11.1871 6.4464 11.2236 6.43534 11.2612 6.42787C11.2988 6.42039 11.3367 6.41666 11.375 6.41666H12.8333C12.8716 6.41666 12.9096 6.42039 12.9471 6.42787C12.9847 6.43534 13.0212 6.4464 13.0566 6.46106C13.0919 6.47572 13.1256 6.49369 13.1574 6.51497C13.1893 6.53625 13.2187 6.56043 13.2458 6.58751C13.2729 6.61459 13.2971 6.64406 13.3183 6.67591C13.3396 6.70775 13.3576 6.74137 13.3723 6.77676C13.3869 6.81214 13.398 6.84862 13.4054 6.88619C13.4129 6.92375 13.4167 6.96169 13.4167 6.99999C13.4167 7.03829 13.4129 7.07623 13.4054 7.11379C13.398 7.15136 13.3869 7.18783 13.3723 7.22322C13.3576 7.25861 13.3396 7.29223 13.3183 7.32407C13.2971 7.35592 13.2729 7.38538 13.2458 7.41247C13.2187 7.43955 13.1893 7.46373 13.1574 7.48501C13.1256 7.50629 13.0919 7.52426 13.0566 7.53892C13.0212 7.55358 12.9847 7.56464 12.9471 7.57211C12.9096 7.57959 12.8716 7.58332 12.8333 7.58332ZM13.4167 6.99999C13.4167 7.03829 13.4129 7.07623 13.4054 7.11379C13.398 7.15136 13.3869 7.18783 13.3723 7.22322C13.3576 7.25861 13.3396 7.29223 13.3183 7.32407C13.2971 7.35592 13.2729 7.38538 13.2458 7.41247C13.2187 7.43955 13.1893 7.46373 13.1574 7.48501C13.1256 7.50629 13.0919 7.52426 13.0566 7.53892C13.0212 7.55358 12.9847 7.56464 12.9471 7.57211C12.9096 7.57959 12.8716 7.58332 12.8333 7.58332C12.795 7.58332 12.7571 7.57959 12.7195 7.57211C12.682 7.56464 12.6455 7.55358 12.6101 7.53892C12.5747 7.52426 12.5411 7.50629 12.5092 7.48501C12.4774 7.46373 12.4479 7.43955 12.4208 7.41247C12.3938 7.38538 12.3696 7.35592 12.3483 7.32407C12.327 7.29223 12.3091 7.25861 12.2944 7.22322C12.2797 7.18783 12.2687 7.15136 12.2612 7.11379C12.2537 7.07623 12.25 7.03829 12.25 6.99999C12.25 6.96169 12.2537 6.92375 12.2612 6.88619C12.2687 6.84862 12.2797 6.81214 12.2944 6.77676C12.3091 6.74137 12.327 6.70775 12.3483 6.67591C12.3696 6.64406 12.3938 6.61459 12.4208 6.58751C12.4479 6.56043 12.4774 6.53625 12.5092 6.51497C12.5411 6.49369 12.5747 6.47572 12.6101 6.46106C12.6455 6.4464 12.682 6.43534 12.7195 6.42787C12.7571 6.42039 12.795 6.41666 12.8333 6.41666C12.8716 6.41666 12.9096 6.42039 12.9471 6.42787C12.9847 6.43534 13.0212 6.4464 13.0566 6.46106C13.0919 6.47572 13.1256 6.49369 13.1574 6.51497C13.1893 6.53625 13.2187 6.56043 13.2458 6.58751C13.2729 6.61459 13.2971 6.64406 13.3183 6.67591C13.3396 6.70775 13.3576 6.74137 13.3723 6.77676C13.3869 6.81214 13.398 6.84862 13.4054 6.88619C13.4129 6.92375 13.4167 6.96169 13.4167 6.99999ZM11.9583 6.99999C11.9583 7.03829 11.9546 7.07623 11.9471 7.11379C11.9396 7.15136 11.9286 7.18783 11.9139 7.22322C11.8993 7.25861 11.8813 7.29223 11.86 7.32407C11.8387 7.35592 11.8146 7.38538 11.7875 7.41247C11.7604 7.43955 11.7309 7.46373 11.6991 7.48501C11.6672 7.50629 11.6336 7.52426 11.5982 7.53892C11.5628 7.55358 11.5264 7.56464 11.4888 7.57211C11.4512 7.57959 11.4133 7.58332 11.375 7.58332C11.3367 7.58332 11.2988 7.57959 11.2612 7.57211C11.2236 7.56464 11.1871 7.55358 11.1518 7.53892C11.1164 7.52426 11.0828 7.50629 11.0509 7.48501C11.0191 7.46373 10.9896 7.43955 10.9625 7.41247C10.9354 7.38538 10.9112 7.35592 10.89 7.32407C10.8687 7.29223 10.8507 7.25861 10.8361 7.22322C10.8214 7.18783 10.8103 7.15136 10.8029 7.11379C10.7954 7.07623 10.7917 7.03829 10.7917 6.99999C10.7917 6.96169 10.7954 6.92375 10.8029 6.88619C10.8103 6.84862 10.8214 6.81214 10.8361 6.77676C10.8507 6.74137 10.8687 6.70775 10.89 6.67591C10.9112 6.64406 10.9354 6.61459 10.9625 6.58751C10.9896 6.56043 11.0191 6.53625 11.0509 6.51497C11.0828 6.49369 11.1164 6.47572 11.1518 6.46106C11.1871 6.4464 11.2236 6.43534 11.2612 6.42787C11.2988 6.42039 11.3367 6.41666 11.375 6.41666C11.4133 6.41666 11.4512 6.42039 11.4888 6.42787C11.5264 6.43534 11.5628 6.4464 11.5982 6.46106C11.6336 6.47572 11.6672 6.49369 11.6991 6.51497C11.7309 6.53625 11.7604 6.56043 11.7875 6.58751C11.8146 6.61459 11.8387 6.64406 11.86 6.67591C11.8813 6.70775 11.8993 6.74137 11.9139 6.77676C11.9286 6.81214 11.9396 6.84862 11.9471 6.88619C11.9546 6.92375 11.9583 6.96169 11.9583 6.99999Z" fill="currentColor"/>
        </g>
    </g>
</svg>
