<svg width="12" height="12" viewBox="0 0 12 12" fill="none"
    xmlns="http://www.w3.org/2000/svg">
    <g clip-path="url(#clip0_19550_89065)">
        <path d="M8.25 6.5C8.52614 6.5 8.75 6.27614 8.75 6C8.75 5.72386 8.52614 5.5 8.25 5.5H6.5V2.75C6.5 2.47386 6.27614 2.25 6 2.25C5.72386 2.25 5.5 2.47386 5.5 2.75V6C5.5 6.27614 5.72386 6.5 6 6.5H8.25Z" fill="currentColor"/>
        <path fill-rule="evenodd" clip-rule="evenodd" d="M6 0.5C2.96243 0.5 0.5 2.96243 0.5 6C0.5 9.03757 2.96243 11.5 6 11.5C9.03757 11.5 11.5 9.03757 11.5 6C11.5 2.96243 9.03757 0.5 6 0.5ZM1.5 6C1.5 3.51472 3.51472 1.5 6 1.5C8.48528 1.5 10.5 3.51472 10.5 6C10.5 8.48528 8.48528 10.5 6 10.5C3.51472 10.5 1.5 8.48528 1.5 6Z" fill="currentColor"/>
    </g>

</svg>
