<svg width="12" height="12" viewBox="0 0 12 12" fill="none"
    xmlns="http://www.w3.org/2000/svg">
    <path d="M6.96394 8.57119C6.92175 8.57126 6.87996 8.563 6.84097 8.54689C6.80197 8.53077 6.76654 8.50712 6.73671 8.47728C6.70687 8.44744 6.68322 8.412 6.66711 8.373C6.651 8.334 6.64274 8.2922 6.64282 8.25V4.71413C6.64282 4.62887 6.67668 4.5471 6.73696 4.48681C6.79723 4.42653 6.87898 4.39266 6.96423 4.39266C7.04947 4.39266 7.13122 4.42653 7.1915 4.48681C7.25177 4.5471 7.28563 4.62887 7.28563 4.71413V8.25C7.28571 8.29225 7.27743 8.33409 7.26129 8.37313C7.24514 8.41217 7.22144 8.44763 7.19154 8.47748C7.16165 8.50733 7.12615 8.53097 7.08709 8.54705C7.04803 8.56313 7.00618 8.57134 6.96394 8.57119ZM5.03606 8.57119C4.99382 8.57134 4.95196 8.56313 4.91291 8.54705C4.87385 8.53097 4.83835 8.50733 4.80845 8.47748C4.77856 8.44763 4.75486 8.41217 4.73871 8.37313C4.72257 8.33409 4.71429 8.29225 4.71437 8.25V4.71413C4.71437 4.62887 4.74823 4.5471 4.8085 4.48681C4.86878 4.42653 4.95053 4.39266 5.03577 4.39266C5.12102 4.39266 5.20277 4.42653 5.26304 4.48681C5.32332 4.5471 5.35718 4.62887 5.35718 4.71413V8.25C5.35726 8.2922 5.349 8.334 5.33289 8.373C5.31678 8.412 5.29313 8.44744 5.26329 8.47728C5.23346 8.50712 5.19803 8.53077 5.15903 8.54689C5.12004 8.563 5.07825 8.57126 5.03606 8.57119ZM10.178 3.10706H8.57014V2.46413C8.57074 2.2096 8.47046 1.96522 8.29125 1.78451C8.11205 1.60379 7.86854 1.50149 7.61407 1.5H4.39268C3.86121 1.5 3.42873 1.93256 3.42873 2.46413V3.10706H1.82141C1.73617 3.10706 1.65441 3.14093 1.59414 3.20122C1.53386 3.26151 1.5 3.34327 1.5 3.42853C1.5 3.51379 1.53386 3.59556 1.59414 3.65584C1.65441 3.71613 1.73617 3.75 1.82141 3.75H10.1786C10.2638 3.75 10.3456 3.71613 10.4059 3.65584C10.4661 3.59556 10.5 3.51379 10.5 3.42853C10.5 3.34327 10.4661 3.26151 10.4059 3.20122C10.3456 3.14093 10.2638 3.10706 10.1786 3.10706H10.178ZM4.07099 2.46413C4.07099 2.28694 4.21552 2.14294 4.39268 2.14294H7.61351C7.78954 2.14294 7.92789 2.28356 7.92789 2.46413V3.10706H4.07099V2.46413ZM8.25014 10.5H3.75098C3.21896 10.5 2.78648 10.0669 2.78648 9.53531V4.70963C2.78995 4.62669 2.82533 4.54831 2.88522 4.49086C2.94512 4.4334 3.0249 4.40132 3.10789 4.40132C3.19088 4.40132 3.27065 4.4334 3.33055 4.49086C3.39045 4.54831 3.42583 4.62669 3.42929 4.70963V9.53588C3.42929 9.71362 3.57327 9.85763 3.75042 9.85763H8.25014C8.33546 9.85763 8.41728 9.82373 8.47761 9.76339C8.53794 9.70305 8.57183 9.62121 8.57183 9.53588V4.72256C8.57183 4.6373 8.60569 4.55554 8.66597 4.49525C8.72624 4.43496 8.808 4.40109 8.89324 4.40109C8.97848 4.40109 9.06023 4.43496 9.12051 4.49525C9.18078 4.55554 9.21465 4.6373 9.21465 4.72256V9.53531C9.21465 10.0674 8.7816 10.5 8.25014 10.5Z" fill="currentColor" stroke="currentColor" stroke-width="0.4"/>
</svg>
