<svg width="12" height="12" viewBox="0 0 12 12" fill="none"
    xmlns="http://www.w3.org/2000/svg">
    <path d="M5 10C5 9.44772 4.55228 9 4 9C3.44772 9 3 9.44772 3 10C3 10.5523 3.44772 11 4 11C4.55228 11 5 10.5523 5 10Z" fill="currentColor"/>
    <path d="M9 10C9 9.44772 8.55228 9 8 9C7.44772 9 7 9.44772 7 10C7 10.5523 7.44772 11 8 11C8.55228 11 9 10.5523 9 10Z" fill="currentColor"/>
    <path d="M4 5C4.55228 5 5 5.44772 5 6C5 6.55228 4.55228 7 4 7C3.44772 7 3 6.55228 3 6C3 5.44772 3.44772 5 4 5Z" fill="currentColor"/>
    <path d="M9 6C9 5.44772 8.55228 5 8 5C7.44772 5 7 5.44772 7 6C7 6.55228 7.44772 7 8 7C8.55228 7 9 6.55228 9 6Z" fill="currentColor"/>
    <path d="M4 1C4.55228 1 5 1.44771 5 2C5 2.55229 4.55228 3 4 3C3.44771 3 3 2.55229 3 2C3 1.44771 3.44771 1 4 1Z" fill="currentColor"/>
    <path d="M9 2C9 1.44771 8.55228 1 8 1C7.44771 1 7 1.44771 7 2C7 2.55229 7.44771 3 8 3C8.55228 3 9 2.55228 9 2Z" fill="currentColor"/>
</svg>
