<svg width="16" height="16" viewBox="0 0 16 16" fill="none"
    xmlns="http://www.w3.org/2000/svg">
    <path d="M2.43766 14C2.31676 13.9845 2.2056 13.9251 2.12503 13.8329C2.04446 13.7407 2 13.622 2 13.499C2 13.3761 2.04446 13.2574 2.12503 13.1652C2.2056 13.0729 2.31676 13.0135 2.43766 12.998H13.5623C13.6832 13.0135 13.7944 13.0729 13.875 13.1652C13.9555 13.2574 14 13.3761 14 13.499C14 13.622 13.9555 13.7407 13.875 13.8329C13.7944 13.9251 13.6832 13.9845 13.5623 14H2.43766ZM11.5996 2.23309L12.72 3.36329C12.868 3.51347 12.9511 3.71663 12.9511 3.92839C12.9511 4.14015 12.868 4.34331 12.72 4.49349L5.61614 11.6354C5.54189 11.7097 5.45384 11.7685 5.35702 11.8084C5.26021 11.8482 5.15654 11.8685 5.05196 11.8678H3.57397C3.4686 11.8678 3.36754 11.8256 3.29303 11.7505C3.21852 11.6753 3.17666 11.5734 3.17666 11.4671V9.93609C3.17606 9.8306 3.1961 9.72602 3.23564 9.62836C3.27519 9.5307 3.33345 9.44188 3.4071 9.36698L10.4792 2.23309C10.6281 2.0838 10.8295 2 11.0394 2C11.2493 2 11.4507 2.0838 11.5996 2.23309ZM4.16993 10.0162V10.8659H5.01223L11.8857 3.9324L11.0434 3.07473L4.16993 10.0162Z" fill="currentColor"/>
</svg>
