<svg width="18" height="17" viewBox="0 0 18 17" fill="none"
    xmlns="http://www.w3.org/2000/svg">
    <path d="M5.01393 12.1371C5.09893 12.2098 5.21327 12.2416 5.32407 12.2251C5.34283 12.2265 5.3616 12.2279 5.37878 12.2277L7.93025 12.2058C8.06931 12.2046 8.1968 12.1301 8.26451 12.0092C8.33223 11.8883 8.33095 11.7398 8.26118 11.6217C8.1914 11.502 8.06265 11.4296 7.92359 11.4308L6.26584 11.4451L8.35237 9.32237C8.50262 9.16951 8.50052 8.9242 8.34766 8.77395C8.1948 8.6237 7.9495 8.6258 7.79924 8.77866L5.64765 10.9675L5.63322 9.28791C5.63138 9.07386 5.45646 8.90192 5.24241 8.90376C5.02835 8.9056 4.85641 9.08052 4.85825 9.29457L4.88016 11.8445C4.87956 11.957 4.92893 12.0644 5.01393 12.1371Z" fill="currentColor"/>
    <path d="M13.504 4.1173C13.419 4.04459 13.3046 4.01276 13.1938 4.02934C13.175 4.02794 13.1563 4.02654 13.1391 4.02669L10.5876 4.04861C10.4486 4.0498 10.3211 4.12434 10.2534 4.24524C10.1857 4.36614 10.1869 4.51457 10.2567 4.63272C10.3265 4.75244 10.4552 4.82477 10.5943 4.82358L12.252 4.80934L10.1655 6.93203C10.0153 7.08489 10.0174 7.33019 10.1702 7.48044C10.3231 7.6307 10.5684 7.62859 10.7186 7.47573L12.8702 5.28685L12.8847 6.96648C12.8865 7.18053 13.0614 7.35247 13.2755 7.35064C13.4895 7.3488 13.6615 7.17388 13.6596 6.95982L13.6377 4.40992C13.6383 4.29741 13.589 4.19001 13.504 4.1173Z" fill="currentColor"/>
</svg>
