<svg width="18" height="17" viewBox="0 0 18 17" fill="none"
    xmlns="http://www.w3.org/2000/svg">
    <path d="M13.0224 12.1007C13.0958 12.0163 13.1286 11.9022 13.113 11.7913C13.1145 11.7726 13.1161 11.7538 13.1161 11.7366L13.1161 9.18506C13.1161 9.046 13.0427 8.91787 12.9224 8.84912C12.802 8.78037 12.6536 8.78037 12.5349 8.84912C12.4145 8.91787 12.3411 9.046 12.3411 9.18506L12.3411 10.8429L10.2364 8.73818C10.0849 8.58662 9.83955 8.58662 9.68798 8.73818C9.53642 8.88975 9.53642 9.13506 9.68798 9.28662L11.8583 11.4569L10.1786 11.4569C9.96455 11.4569 9.79111 11.6304 9.79111 11.8444C9.79111 12.0585 9.96455 12.2319 10.1786 12.2319L12.7286 12.2319C12.8411 12.2335 12.9489 12.1851 13.0224 12.1007Z" fill="currentColor"/>
    <path d="M5.11609 3.50674C5.04265 3.59111 5.00984 3.70518 5.02547 3.81611C5.0239 3.83486 5.02234 3.85361 5.02234 3.8708L5.02234 6.42236C5.02234 6.56143 5.09578 6.68955 5.21609 6.7583C5.3364 6.82705 5.48484 6.82705 5.60359 6.7583C5.7239 6.68955 5.79734 6.56143 5.79734 6.42236L5.79734 4.76455L7.90203 6.86924C8.05359 7.0208 8.2989 7.0208 8.45047 6.86924C8.60203 6.71768 8.60203 6.47236 8.45047 6.3208L6.28015 4.15049L7.95984 4.15049C8.1739 4.15049 8.34734 3.97705 8.34734 3.76299C8.34734 3.54893 8.1739 3.37549 7.95984 3.37549L5.40984 3.37549C5.29734 3.37393 5.18953 3.42236 5.11609 3.50674Z" fill="currentColor"/>
</svg>
