<svg width="14" height="14" viewBox="0 0 14 14" fill="none"
    xmlns="http://www.w3.org/2000/svg">
    <g >
        <path d="M14 0H0V14H14V0Z" fill="white" fill-opacity="0.01"/>
        <path d="M7 12.8333H1.75001C1.7117 12.8333 1.67377 12.8296 1.6362 12.8221C1.59864 12.8147 1.56216 12.8036 1.52677 12.7889C1.49139 12.7743 1.45777 12.7563 1.42592 12.735C1.39408 12.7137 1.36461 12.6895 1.33753 12.6625C1.31044 12.6354 1.28626 12.6059 1.26498 12.5741C1.2437 12.5422 1.22573 12.5086 1.21108 12.4732C1.19642 12.4378 1.18535 12.4014 1.17788 12.3638C1.17041 12.3262 1.16667 12.2883 1.16667 12.25V1.74999C1.16667 1.71169 1.17041 1.67375 1.17788 1.63619C1.18535 1.59862 1.19642 1.56214 1.21108 1.52676C1.22573 1.49137 1.2437 1.45775 1.26498 1.42591C1.28626 1.39406 1.31044 1.36459 1.33753 1.33751C1.36461 1.31043 1.39408 1.28625 1.42592 1.26497C1.45777 1.24369 1.49139 1.22572 1.52677 1.21106C1.56216 1.1964 1.59864 1.18534 1.6362 1.17787C1.67377 1.17039 1.7117 1.16666 1.75001 1.16666H6.99758C7.03589 1.16666 7.07382 1.17039 7.11139 1.17787C7.14895 1.18534 7.18543 1.1964 7.22081 1.21106C7.2562 1.22572 7.28982 1.24369 7.32167 1.26497C7.35351 1.28625 7.38298 1.31043 7.41006 1.33751C7.43715 1.36459 7.46133 1.39406 7.48261 1.42591C7.50389 1.45775 7.52186 1.49137 7.53651 1.52676C7.55117 1.56214 7.56224 1.59862 7.56971 1.63619C7.57718 1.67375 7.58092 1.71169 7.58092 1.74999C7.58092 1.78829 7.57718 1.82623 7.56971 1.86379C7.56224 1.90136 7.55117 1.93784 7.53651 1.97322C7.52186 2.00861 7.50389 2.04223 7.48261 2.07407C7.46133 2.10592 7.43715 2.13539 7.41006 2.16247C7.38298 2.18955 7.35351 2.21373 7.32167 2.23501C7.28982 2.25629 7.2562 2.27426 7.22081 2.28892C7.18543 2.30358 7.14895 2.31464 7.11139 2.32211C7.07382 2.32959 7.03589 2.33332 6.99758 2.33332H1.75001V1.74999H2.33334V12.25H1.75001V11.6667H7C7.03831 11.6667 7.07624 11.6704 7.11381 11.6779C7.15137 11.6853 7.18785 11.6964 7.22323 11.711C7.25862 11.7257 7.29224 11.7437 7.32409 11.7649C7.35593 11.7862 7.3854 11.8104 7.41249 11.8375C7.43957 11.8646 7.46375 11.894 7.48503 11.9259C7.50631 11.9577 7.52428 11.9914 7.53893 12.0267C7.55359 12.0621 7.56466 12.0986 7.57213 12.1362C7.5796 12.1737 7.58334 12.2117 7.58334 12.25C7.58334 12.2883 7.5796 12.3262 7.57213 12.3638C7.56466 12.4014 7.55359 12.4378 7.53893 12.4732C7.52428 12.5086 7.50631 12.5422 7.48503 12.5741C7.46375 12.6059 7.43957 12.6354 7.41249 12.6625C7.3854 12.6895 7.35593 12.7137 7.32409 12.735C7.29224 12.7563 7.25862 12.7743 7.22323 12.7889C7.18785 12.8036 7.15137 12.8147 7.11381 12.8221C7.07624 12.8296 7.03831 12.8333 7 12.8333ZM7.58334 12.25C7.58334 12.2883 7.5796 12.3262 7.57213 12.3638C7.56466 12.4014 7.55359 12.4378 7.53893 12.4732C7.52428 12.5086 7.50631 12.5422 7.48503 12.5741C7.46375 12.6059 7.43957 12.6354 7.41249 12.6625C7.3854 12.6895 7.35593 12.7137 7.32409 12.735C7.29224 12.7563 7.25862 12.7743 7.22323 12.7889C7.18785 12.8036 7.15137 12.8147 7.11381 12.8221C7.07624 12.8296 7.03831 12.8333 7 12.8333C6.9617 12.8333 6.92377 12.8296 6.8862 12.8221C6.84864 12.8147 6.81216 12.8036 6.77677 12.7889C6.74139 12.7743 6.70777 12.7563 6.67592 12.735C6.64408 12.7137 6.61461 12.6895 6.58752 12.6625C6.56044 12.6354 6.53626 12.6059 6.51498 12.5741C6.4937 12.5422 6.47573 12.5086 6.46108 12.4732C6.44642 12.4378 6.43535 12.4014 6.42788 12.3638C6.42041 12.3262 6.41667 12.2883 6.41667 12.25C6.41667 12.2117 6.42041 12.1737 6.42788 12.1362C6.43535 12.0986 6.44642 12.0621 6.46108 12.0267C6.47573 11.9914 6.4937 11.9577 6.51498 11.9259C6.53626 11.894 6.56044 11.8646 6.58752 11.8375C6.61461 11.8104 6.64408 11.7862 6.67592 11.7649C6.70777 11.7437 6.74139 11.7257 6.77677 11.711C6.81216 11.6964 6.84864 11.6853 6.8862 11.6779C6.92377 11.6704 6.9617 11.6667 7 11.6667C7.03831 11.6667 7.07624 11.6704 7.11381 11.6779C7.15137 11.6853 7.18785 11.6964 7.22323 11.711C7.25862 11.7257 7.29224 11.7437 7.32409 11.7649C7.35593 11.7862 7.3854 11.8104 7.41249 11.8375C7.43957 11.8646 7.46375 11.894 7.48503 11.9259C7.50631 11.9577 7.52428 11.9914 7.53893 12.0267C7.55359 12.0621 7.56466 12.0986 7.57213 12.1362C7.5796 12.1737 7.58334 12.2117 7.58334 12.25ZM7.58092 1.74999C7.58092 1.78829 7.57718 1.82623 7.56971 1.86379C7.56224 1.90136 7.55117 1.93784 7.53651 1.97322C7.52186 2.00861 7.50389 2.04223 7.48261 2.07407C7.46133 2.10592 7.43715 2.13539 7.41006 2.16247C7.38298 2.18955 7.35351 2.21373 7.32167 2.23501C7.28982 2.25629 7.2562 2.27426 7.22081 2.28892C7.18543 2.30358 7.14895 2.31464 7.11139 2.32211C7.07382 2.32959 7.03589 2.33332 6.99758 2.33332C6.95928 2.33332 6.92135 2.32959 6.88378 2.32211C6.84622 2.31464 6.80974 2.30358 6.77435 2.28892C6.73896 2.27426 6.70535 2.25629 6.6735 2.23501C6.64166 2.21373 6.61219 2.18955 6.5851 2.16247C6.55802 2.13539 6.53384 2.10592 6.51256 2.07407C6.49128 2.04223 6.47331 2.00861 6.45865 1.97322C6.444 1.93784 6.43293 1.90136 6.42546 1.86379C6.41799 1.82623 6.41425 1.78829 6.41425 1.74999C6.41425 1.71169 6.41799 1.67375 6.42546 1.63619C6.43293 1.59862 6.444 1.56214 6.45865 1.52676C6.47331 1.49137 6.49128 1.45775 6.51256 1.42591C6.53384 1.39406 6.55802 1.36459 6.5851 1.33751C6.61219 1.31043 6.64166 1.28625 6.6735 1.26497C6.70535 1.24369 6.73896 1.22572 6.77435 1.21106C6.80974 1.1964 6.84622 1.18534 6.88378 1.17787C6.92135 1.17039 6.95928 1.16666 6.99758 1.16666C7.03589 1.16666 7.07382 1.17039 7.11139 1.17787C7.14895 1.18534 7.18543 1.1964 7.22081 1.21106C7.2562 1.22572 7.28982 1.24369 7.32167 1.26497C7.35351 1.28625 7.38298 1.31043 7.41006 1.33751C7.43715 1.36459 7.46133 1.39406 7.48261 1.42591C7.50389 1.45775 7.52186 1.49137 7.53651 1.52676C7.55117 1.56214 7.56224 1.59862 7.56971 1.63619C7.57718 1.67375 7.58092 1.71169 7.58092 1.74999Z" fill="currentColor"/>
        <path d="M10.0375 3.96251L12.6625 6.58751C12.6896 6.61459 12.7137 6.64406 12.735 6.67591C12.7563 6.70775 12.7743 6.74137 12.7889 6.77676C12.8036 6.81214 12.8147 6.84862 12.8221 6.88619C12.8296 6.92375 12.8333 6.96169 12.8333 6.99999C12.8333 7.03829 12.8296 7.07623 12.8221 7.11379C12.8147 7.15136 12.8036 7.18783 12.7889 7.22322C12.7743 7.25861 12.7563 7.29223 12.735 7.32407C12.7137 7.35592 12.6896 7.38538 12.6625 7.41247L10.0375 10.0375C10.0104 10.0646 9.98094 10.0887 9.94909 10.11C9.91724 10.1313 9.88362 10.1493 9.84824 10.1639C9.81285 10.1786 9.77637 10.1896 9.73881 10.1971C9.70124 10.2046 9.66331 10.2083 9.62501 10.2083C9.5867 10.2083 9.54877 10.2046 9.5112 10.1971C9.47364 10.1896 9.43716 10.1786 9.40177 10.1639C9.36639 10.1493 9.33277 10.1313 9.30092 10.11C9.26908 10.0887 9.23961 10.0646 9.21253 10.0375C9.18544 10.0104 9.16126 9.98092 9.13998 9.94907C9.1187 9.91723 9.10073 9.88361 9.08608 9.84822C9.07142 9.81284 9.06035 9.77636 9.05288 9.73879C9.04541 9.70123 9.04167 9.66329 9.04167 9.62499C9.04167 9.58669 9.04541 9.54875 9.05288 9.51119C9.06035 9.47362 9.07142 9.43714 9.08608 9.40176C9.10073 9.36637 9.1187 9.33275 9.13998 9.30091C9.16126 9.26906 9.18544 9.23959 9.21253 9.21251L11.8375 6.58751L12.25 6.99999L11.8375 7.41247L9.21253 4.78747C9.18544 4.76038 9.16126 4.73092 9.13998 4.69907C9.1187 4.66723 9.10073 4.63361 9.08608 4.59822C9.07142 4.56283 9.06035 4.52636 9.05288 4.48879C9.04541 4.45123 9.04167 4.41329 9.04167 4.37499C9.04167 4.33669 9.04541 4.29875 9.05288 4.26119C9.06035 4.22362 9.07142 4.18714 9.08608 4.15176C9.10073 4.11637 9.1187 4.08275 9.13998 4.05091C9.16126 4.01906 9.18544 3.98959 9.21253 3.96251C9.23961 3.93543 9.26908 3.91125 9.30092 3.88997C9.33277 3.86869 9.36639 3.85072 9.40177 3.83606C9.43716 3.8214 9.47364 3.81034 9.5112 3.80287C9.54877 3.79539 9.5867 3.79166 9.62501 3.79166C9.66331 3.79166 9.70124 3.79539 9.73881 3.80287C9.77637 3.81034 9.81285 3.8214 9.84824 3.83606C9.88362 3.85072 9.91724 3.86869 9.94909 3.88997C9.98094 3.91125 10.0104 3.93543 10.0375 3.96251ZM10.2083 4.37499C10.2083 4.41329 10.2046 4.45123 10.1971 4.48879C10.1897 4.52636 10.1786 4.56283 10.1639 4.59822C10.1493 4.63361 10.1313 4.66723 10.11 4.69907C10.0888 4.73092 10.0646 4.76038 10.0375 4.78747C10.0104 4.81455 9.98094 4.83873 9.94909 4.86001C9.91724 4.88129 9.88362 4.89926 9.84824 4.91392C9.81285 4.92858 9.77637 4.93964 9.73881 4.94711C9.70124 4.95459 9.66331 4.95832 9.62501 4.95832C9.5867 4.95832 9.54877 4.95459 9.5112 4.94711C9.47364 4.93964 9.43716 4.92858 9.40177 4.91392C9.36639 4.89926 9.33277 4.88129 9.30092 4.86001C9.26908 4.83873 9.23961 4.81455 9.21253 4.78747C9.18544 4.76038 9.16126 4.73092 9.13998 4.69907C9.1187 4.66723 9.10073 4.63361 9.08608 4.59822C9.07142 4.56283 9.06035 4.52636 9.05288 4.48879C9.04541 4.45123 9.04167 4.41329 9.04167 4.37499C9.04167 4.33669 9.04541 4.29875 9.05288 4.26119C9.06035 4.22362 9.07142 4.18714 9.08608 4.15176C9.10073 4.11637 9.1187 4.08275 9.13998 4.05091C9.16126 4.01906 9.18544 3.98959 9.21253 3.96251C9.23961 3.93543 9.26908 3.91125 9.30092 3.88997C9.33277 3.86869 9.36639 3.85072 9.40177 3.83606C9.43716 3.8214 9.47364 3.81034 9.5112 3.80287C9.54877 3.79539 9.5867 3.79166 9.62501 3.79166C9.66331 3.79166 9.70124 3.79539 9.73881 3.80287C9.77637 3.81034 9.81285 3.8214 9.84824 3.83606C9.88362 3.85072 9.91724 3.86869 9.94909 3.88997C9.98094 3.91125 10.0104 3.93543 10.0375 3.96251C10.0646 3.98959 10.0888 4.01906 10.11 4.05091C10.1313 4.08275 10.1493 4.11637 10.1639 4.15176C10.1786 4.18714 10.1897 4.22362 10.1971 4.26119C10.2046 4.29875 10.2083 4.33669 10.2083 4.37499ZM10.2083 9.62499C10.2083 9.66329 10.2046 9.70123 10.1971 9.73879C10.1897 9.77636 10.1786 9.81284 10.1639 9.84822C10.1493 9.88361 10.1313 9.91723 10.11 9.94907C10.0888 9.98092 10.0646 10.0104 10.0375 10.0375C10.0104 10.0646 9.98094 10.0887 9.94909 10.11C9.91724 10.1313 9.88362 10.1493 9.84824 10.1639C9.81285 10.1786 9.77637 10.1896 9.73881 10.1971C9.70124 10.2046 9.66331 10.2083 9.62501 10.2083C9.5867 10.2083 9.54877 10.2046 9.5112 10.1971C9.47364 10.1896 9.43716 10.1786 9.40177 10.1639C9.36639 10.1493 9.33277 10.1313 9.30092 10.11C9.26908 10.0887 9.23961 10.0646 9.21253 10.0375C9.18544 10.0104 9.16126 9.98092 9.13998 9.94907C9.1187 9.91723 9.10073 9.88361 9.08608 9.84822C9.07142 9.81284 9.06035 9.77636 9.05288 9.73879C9.04541 9.70123 9.04167 9.66329 9.04167 9.62499C9.04167 9.58669 9.04541 9.54875 9.05288 9.51119C9.06035 9.47362 9.07142 9.43714 9.08608 9.40176C9.10073 9.36637 9.1187 9.33275 9.13998 9.30091C9.16126 9.26906 9.18544 9.23959 9.21253 9.21251C9.23961 9.18543 9.26908 9.16125 9.30092 9.13997C9.33277 9.11869 9.36639 9.10072 9.40177 9.08606C9.43716 9.0714 9.47364 9.06034 9.5112 9.05286C9.54877 9.04539 9.5867 9.04166 9.62501 9.04166C9.66331 9.04166 9.70124 9.04539 9.73881 9.05286C9.77637 9.06034 9.81285 9.0714 9.84824 9.08606C9.88362 9.10072 9.91724 9.11869 9.94909 9.13997C9.98094 9.16125 10.0104 9.18543 10.0375 9.21251C10.0646 9.23959 10.0888 9.26906 10.11 9.30091C10.1313 9.33275 10.1493 9.36637 10.1639 9.40176C10.1786 9.43714 10.1897 9.47362 10.1971 9.51119C10.2046 9.54875 10.2083 9.58669 10.2083 9.62499Z" fill="currentColor"/>
        <path d="M12.25 7.58091H4.66666C4.62836 7.58091 4.59043 7.57718 4.55286 7.5697C4.51529 7.56223 4.47882 7.55117 4.44343 7.53651C4.40804 7.52185 4.37443 7.50388 4.34258 7.4826C4.31073 7.46132 4.28127 7.43714 4.25418 7.41006C4.2271 7.38297 4.20292 7.35351 4.18164 7.32166C4.16036 7.28981 4.14239 7.2562 4.12773 7.22081C4.11307 7.18542 4.10201 7.14895 4.09454 7.11138C4.08706 7.07382 4.08333 7.03588 4.08333 6.99758C4.08333 6.95928 4.08706 6.92134 4.09454 6.88378C4.10201 6.84621 4.11307 6.80973 4.12773 6.77435C4.14239 6.73896 4.16036 6.70534 4.18164 6.6735C4.20292 6.64165 4.2271 6.61218 4.25418 6.5851C4.28127 6.55802 4.31073 6.53383 4.34258 6.51256C4.37443 6.49128 4.40804 6.47331 4.44343 6.45865C4.47882 6.44399 4.51529 6.43293 4.55286 6.42545C4.59043 6.41798 4.62836 6.41425 4.66666 6.41425H12.25C12.2883 6.41425 12.3262 6.41798 12.3638 6.42545C12.4014 6.43293 12.4378 6.44399 12.4732 6.45865C12.5086 6.47331 12.5422 6.49128 12.5741 6.51256C12.6059 6.53383 12.6354 6.55802 12.6625 6.5851C12.6895 6.61218 12.7137 6.64165 12.735 6.6735C12.7563 6.70534 12.7743 6.73896 12.7889 6.77435C12.8036 6.80973 12.8147 6.84621 12.8221 6.88378C12.8296 6.92134 12.8333 6.95928 12.8333 6.99758C12.8333 7.03588 12.8296 7.07382 12.8221 7.11138C12.8147 7.14895 12.8036 7.18542 12.7889 7.22081C12.7743 7.2562 12.7563 7.28981 12.735 7.32166C12.7137 7.35351 12.6895 7.38297 12.6625 7.41006C12.6354 7.43714 12.6059 7.46132 12.5741 7.4826C12.5422 7.50388 12.5086 7.52185 12.4732 7.53651C12.4378 7.55117 12.4014 7.56223 12.3638 7.5697C12.3262 7.57718 12.2883 7.58091 12.25 7.58091ZM12.8333 6.99758C12.8333 7.03588 12.8296 7.07382 12.8221 7.11138C12.8147 7.14895 12.8036 7.18542 12.7889 7.22081C12.7743 7.2562 12.7563 7.28981 12.735 7.32166C12.7137 7.35351 12.6895 7.38297 12.6625 7.41006C12.6354 7.43714 12.6059 7.46132 12.5741 7.4826C12.5422 7.50388 12.5086 7.52185 12.4732 7.53651C12.4378 7.55117 12.4014 7.56223 12.3638 7.5697C12.3262 7.57718 12.2883 7.58091 12.25 7.58091C12.2117 7.58091 12.1738 7.57718 12.1362 7.5697C12.0986 7.56223 12.0621 7.55117 12.0268 7.53651C11.9914 7.52185 11.9577 7.50388 11.9259 7.4826C11.894 7.46132 11.8646 7.43714 11.8375 7.41006C11.8104 7.38297 11.7862 7.35351 11.765 7.32166C11.7437 7.28981 11.7257 7.2562 11.7111 7.22081C11.6964 7.18542 11.6853 7.14895 11.6779 7.11138C11.6704 7.07382 11.6667 7.03588 11.6667 6.99758C11.6667 6.95928 11.6704 6.92134 11.6779 6.88378C11.6853 6.84621 11.6964 6.80973 11.7111 6.77435C11.7257 6.73896 11.7437 6.70534 11.765 6.6735C11.7862 6.64165 11.8104 6.61218 11.8375 6.5851C11.8646 6.55802 11.894 6.53383 11.9259 6.51256C11.9577 6.49128 11.9914 6.47331 12.0268 6.45865C12.0621 6.44399 12.0986 6.43293 12.1362 6.42545C12.1738 6.41798 12.2117 6.41425 12.25 6.41425C12.2883 6.41425 12.3262 6.41798 12.3638 6.42545C12.4014 6.43293 12.4378 6.44399 12.4732 6.45865C12.5086 6.47331 12.5422 6.49128 12.5741 6.51256C12.6059 6.53383 12.6354 6.55802 12.6625 6.5851C12.6895 6.61218 12.7137 6.64165 12.735 6.6735C12.7563 6.70534 12.7743 6.73896 12.7889 6.77435C12.8036 6.80973 12.8147 6.84621 12.8221 6.88378C12.8296 6.92134 12.8333 6.95928 12.8333 6.99758ZM5.24999 6.99758C5.24999 7.03588 5.24626 7.07382 5.23879 7.11138C5.23131 7.14895 5.22025 7.18542 5.20559 7.22081C5.19093 7.2562 5.17296 7.28981 5.15169 7.32166C5.13041 7.35351 5.10622 7.38297 5.07914 7.41006C5.05206 7.43714 5.02259 7.46132 4.99074 7.4826C4.9589 7.50388 4.92528 7.52185 4.88989 7.53651C4.85451 7.55117 4.81803 7.56223 4.78046 7.5697C4.7429 7.57718 4.70496 7.58091 4.66666 7.58091C4.62836 7.58091 4.59043 7.57718 4.55286 7.5697C4.51529 7.56223 4.47882 7.55117 4.44343 7.53651C4.40804 7.52185 4.37443 7.50388 4.34258 7.4826C4.31073 7.46132 4.28127 7.43714 4.25418 7.41006C4.2271 7.38297 4.20292 7.35351 4.18164 7.32166C4.16036 7.28981 4.14239 7.2562 4.12773 7.22081C4.11307 7.18542 4.10201 7.14895 4.09454 7.11138C4.08706 7.07382 4.08333 7.03588 4.08333 6.99758C4.08333 6.95928 4.08706 6.92134 4.09454 6.88378C4.10201 6.84621 4.11307 6.80973 4.12773 6.77435C4.14239 6.73896 4.16036 6.70534 4.18164 6.6735C4.20292 6.64165 4.2271 6.61218 4.25418 6.5851C4.28127 6.55802 4.31073 6.53383 4.34258 6.51256C4.37443 6.49128 4.40804 6.47331 4.44343 6.45865C4.47882 6.44399 4.51529 6.43293 4.55286 6.42545C4.59043 6.41798 4.62836 6.41425 4.66666 6.41425C4.70496 6.41425 4.7429 6.41798 4.78046 6.42545C4.81803 6.43293 4.85451 6.44399 4.88989 6.45865C4.92528 6.47331 4.9589 6.49128 4.99074 6.51256C5.02259 6.53383 5.05206 6.55802 5.07914 6.5851C5.10622 6.61218 5.13041 6.64165 5.15169 6.6735C5.17296 6.70534 5.19093 6.73896 5.20559 6.77435C5.22025 6.80973 5.23131 6.84621 5.23879 6.88378C5.24626 6.92134 5.24999 6.95928 5.24999 6.99758Z" fill="currentColor"/>
    </g>
</svg>
