<svg width="10" height="10" viewBox="0 0 10 10" fill="none"
    xmlns="http://www.w3.org/2000/svg">
    <path d="M6.216 4.745C6.216 4.885 6.1045 4.9985 5.966 4.9985C5.89925 4.99797 5.83544 4.97098 5.78857 4.92346C5.7417 4.87593 5.7156 4.81175 5.716 4.745V4.4815C5.716 4.3035 5.778 4.1315 5.89 3.9945L7.9325 1.5075H2L4.0425 3.9945C4.1545 4.1315 4.216 4.3035 4.216 4.4815V8.7465C4.216 8.8865 4.1045 9 3.966 9C3.89925 8.99947 3.83544 8.97248 3.78857 8.92496C3.7417 8.87743 3.7156 8.81325 3.716 8.7465V4.4815C3.71608 4.42249 3.69577 4.36526 3.6585 4.3195L1.616 1.832C1.54089 1.74035 1.49989 1.62549 1.5 1.507C1.5 1.2275 1.724 1 2 1H7.9325C8.0495 1 8.1625 1.0415 8.2525 1.1175C8.4645 1.297 8.4935 1.617 8.3165 1.8325L6.274 4.3195C6.23655 4.36519 6.21606 4.42243 6.216 4.4815V4.745ZM5.75 5.82H8.25C8.388 5.82 8.5 5.934 8.5 6.074C8.5 6.214 8.388 6.3275 8.25 6.3275H5.75C5.68325 6.32697 5.61944 6.29998 5.57257 6.25246C5.5257 6.20493 5.4996 6.14075 5.5 6.074C5.5 5.934 5.612 5.82 5.75 5.82ZM5.75 6.835H8.25C8.388 6.835 8.5 6.9485 8.5 7.0885C8.5 7.2285 8.388 7.3425 8.25 7.3425H5.75C5.71691 7.34224 5.68419 7.33546 5.65371 7.32255C5.62324 7.30965 5.59561 7.29086 5.57239 7.26728C5.54918 7.24369 5.53084 7.21576 5.51842 7.18509C5.50599 7.15441 5.49974 7.12159 5.5 7.0885C5.5 6.9485 5.612 6.835 5.75 6.835ZM5.75 7.85H8.25C8.388 7.85 8.5 7.9635 8.5 8.1035C8.5 8.2435 8.388 8.357 8.25 8.357H5.75C5.68325 8.35647 5.61944 8.32948 5.57257 8.28196C5.5257 8.23443 5.4996 8.17025 5.5 8.1035C5.5 7.9635 5.612 7.8495 5.75 7.8495V7.85Z" fill="currentColor"/>
</svg>
