<svg width="14" height="14" viewBox="0 0 14 14" fill="none"
    xmlns="http://www.w3.org/2000/svg">
    <path d="M2.33331 12.25V2.91667C2.33331 2.59583 2.44765 2.32128 2.67631 2.093C2.90498 1.86472 3.17954 1.75039 3.49998 1.75H6.99998C7.32081 1.75 7.59556 1.86433 7.82423 2.093C8.0529 2.32167 8.16704 2.59622 8.16665 2.91667V7H8.74998C9.07081 7 9.34556 7.11433 9.57423 7.343C9.8029 7.57167 9.91704 7.84622 9.91665 8.16667V10.7917C9.91665 10.9569 9.97265 11.0956 10.0846 11.2076C10.1966 11.3196 10.3351 11.3754 10.5 11.375C10.6653 11.375 10.8039 11.3192 10.9159 11.2076C11.0279 11.096 11.0837 10.9573 11.0833 10.7917V6.59167C10.9958 6.64028 10.9035 6.67197 10.8062 6.68675C10.709 6.70153 10.6069 6.70872 10.5 6.70833C10.0916 6.70833 9.74651 6.56736 9.46456 6.28542C9.18262 6.00347 9.04165 5.65833 9.04165 5.25C9.04165 4.93889 9.12681 4.65928 9.29715 4.41117C9.46748 4.16306 9.69342 3.98572 9.97498 3.87917L8.74998 2.65417L9.36248 2.04167L11.5208 4.14167C11.6666 4.2875 11.7761 4.45764 11.8492 4.65208C11.9223 4.84653 11.9587 5.04583 11.9583 5.25V10.7917C11.9583 11.2 11.8173 11.5451 11.5354 11.8271C11.2535 12.109 10.9083 12.25 10.5 12.25C10.0916 12.25 9.74651 12.109 9.46456 11.8271C9.18262 11.5451 9.04165 11.2 9.04165 10.7917V7.875H8.16665V12.25H2.33331ZM3.49998 5.83333H6.99998V2.91667H3.49998V5.83333ZM10.5 5.83333C10.6653 5.83333 10.8039 5.77753 10.9159 5.66592C11.0279 5.55431 11.0837 5.41567 11.0833 5.25C11.0833 5.08472 11.0273 4.94608 10.9153 4.83408C10.8033 4.72208 10.6649 4.66628 10.5 4.66667C10.3347 4.66667 10.1961 4.72267 10.0841 4.83467C9.97206 4.94667 9.91626 5.08511 9.91665 5.25C9.91665 5.41528 9.97265 5.55392 10.0846 5.66592C10.1966 5.77792 10.3351 5.83372 10.5 5.83333ZM3.49998 11.0833H6.99998V7H3.49998V11.0833Z" fill="currentColor"/>
</svg>
