<svg width="14" height="14" viewBox="0 0 14 14" fill="none"
    xmlns="http://www.w3.org/2000/svg">
    <path d="M10.9367 6.27942C10.6781 5.70812 10.3039 5.19665 9.83767 4.77733L9.45208 4.42908C9.43896 4.4176 9.42325 4.40946 9.4063 4.40537C9.38934 4.40128 9.37165 4.40136 9.35474 4.4056C9.33782 4.40985 9.32219 4.41813 9.30917 4.42973C9.29615 4.44134 9.28614 4.45593 9.28 4.47225L9.10733 4.95875C9 5.26383 8.80225 5.57534 8.52283 5.88158C8.50865 5.89679 8.48931 5.90615 8.46858 5.90783C8.4582 5.90874 8.44773 5.90744 8.43788 5.90402C8.42803 5.9006 8.41901 5.89514 8.41142 5.888C8.4024 5.8804 8.39528 5.8708 8.39062 5.85997C8.38596 5.84913 8.38389 5.83736 8.38458 5.82558C8.43417 5.04042 8.195 4.1555 7.67292 3.19183C7.24125 2.39092 6.64042 1.76617 5.88967 1.331L5.3425 1.01425C5.32613 1.00479 5.30753 0.999869 5.28862 1C5.26971 1.00014 5.25118 1.00532 5.23494 1.01501C5.21871 1.02471 5.20536 1.03856 5.19627 1.05514C5.18718 1.07172 5.18269 1.09043 5.18325 1.10933L5.21242 1.73525C5.23225 2.16283 5.18208 2.54083 5.0625 2.85525C4.91562 3.24182 4.70504 3.60107 4.4395 3.91808C4.25264 4.1413 4.04132 4.34284 3.8095 4.51892C3.252 4.9396 2.79725 5.48131 2.4795 6.10325C2.16453 6.72758 2.0003 7.41705 2 8.11633C2 8.73175 2.12308 9.32733 2.3675 9.88967C2.60386 10.4321 2.94367 10.9233 3.36792 11.3358C3.79566 11.7525 4.29945 12.0832 4.85192 12.3099C5.42751 12.5469 6.0442 12.668 6.66667 12.6663C7.29667 12.6663 7.90625 12.5462 8.48142 12.3105C9.03411 12.0845 9.53785 11.7537 9.96483 11.3363C10.3902 10.9245 10.7303 10.4329 10.9658 9.88967C11.2102 9.32792 11.3333 8.73233 11.3333 8.11633C11.3333 7.4805 11.2009 6.86217 10.9367 6.27942ZM9.33133 10.704C8.61846 11.3979 7.66145 11.7838 6.66667 11.7785C5.67187 11.7838 4.71484 11.3979 4.002 10.704C3.44938 10.1715 3.08183 9.47605 2.95324 8.71949C2.82464 7.96293 2.94176 7.18507 3.28742 6.49992C3.54273 5.99842 3.90901 5.56172 4.35842 5.223C4.64544 5.00723 4.90621 4.75859 5.13542 4.48217C5.46416 4.08932 5.72499 3.64434 5.90717 3.16558C5.98111 2.96934 6.03486 2.76607 6.06758 2.55892C6.39488 2.86048 6.669 3.21506 6.87842 3.60775C7.32175 4.42442 7.52592 5.15008 7.48625 5.76842C7.46758 6.06592 7.58542 6.34825 7.80942 6.54834C8.00425 6.72042 8.25625 6.80733 8.51758 6.79333C8.77833 6.77992 9.01867 6.66675 9.19367 6.47483C9.36983 6.28058 9.52208 6.08284 9.64983 5.88042C9.83533 6.11375 9.9905 6.36808 10.1136 6.64167C10.4181 7.31664 10.5065 8.06928 10.3665 8.79644C10.2266 9.52359 9.86522 10.1897 9.33192 10.7034L9.33133 10.704Z" fill="currentColor"/>
</svg>
