<svg width="12" height="12" viewBox="0 0 12 12" fill="none"
    xmlns="http://www.w3.org/2000/svg">

    <path d="M6 9.25C6.27614 9.25 6.5 9.02614 6.5 8.75L6.5 5.25C6.5 4.97386 6.27614 4.75 6 4.75C5.72386 4.75 5.5 4.97386 5.5 5.25L5.5 8.75C5.5 9.02614 5.72386 9.25 6 9.25Z" fill="currentColor"/>
    <path d="M6 4.25C6.41421 4.25 6.75 3.91421 6.75 3.5C6.75 3.08579 6.41421 2.75 6 2.75C5.58579 2.75 5.25 3.08579 5.25 3.5C5.25 3.91421 5.58579 4.25 6 4.25Z" fill="currentColor"/>
    <path fill-rule="evenodd" clip-rule="evenodd" d="M0.5 6C0.5 9.03757 2.96243 11.5 6 11.5C9.03757 11.5 11.5 9.03757 11.5 6C11.5 2.96243 9.03757 0.5 6 0.5C2.96243 0.5 0.5 2.96243 0.5 6ZM6 10.5C3.51472 10.5 1.5 8.48528 1.5 6C1.5 3.51472 3.51472 1.5 6 1.5C8.48528 1.5 10.5 3.51472 10.5 6C10.5 8.48528 8.48528 10.5 6 10.5Z" fill="currentColor"/>


</svg>
