<svg width="20" height="20" viewBox="0 0 20 20" fill="none"
    xmlns="http://www.w3.org/2000/svg">
    <g>
        <path fill-rule="evenodd" clip-rule="evenodd" d="M10.7693 5.60014C10.4846 4.91573 9.51506 4.91573 9.2304 5.60014L8.87278 6.45994C8.75278 6.74847 8.48144 6.94562 8.16995 6.97059L7.24171 7.045C6.50284 7.10424 6.20323 8.02633 6.76618 8.50855L7.47339 9.11436C7.71072 9.31765 7.81436 9.63663 7.74185 9.94059L7.52579 10.8464C7.3538 11.5674 8.13817 12.1373 8.77076 11.7509L9.56545 11.2655C9.83213 11.1026 10.1675 11.1026 10.4342 11.2655L11.2289 11.7509C11.8615 12.1373 12.6459 11.5674 12.4739 10.8464L12.2578 9.94059C12.1853 9.63663 12.2889 9.31765 12.5263 9.11436L13.2335 8.50855C13.7964 8.02633 13.4968 7.10424 12.7579 7.045L11.8297 6.97059C11.5182 6.94562 11.2469 6.74847 11.1269 6.45995L10.7693 5.60014ZM9.99983 7.00228C9.69676 7.66902 9.06522 8.12786 8.33746 8.21006C8.87791 8.70433 9.11914 9.44676 8.97243 10.1643C9.60951 9.80303 10.3901 9.80303 11.0272 10.1643C10.8805 9.44676 11.1218 8.70433 11.6622 8.21006C10.9344 8.12786 10.3029 7.66902 9.99983 7.00228Z" fill="currentColor"/>
        <path d="M6.58333 13.7502C6.16912 13.7502 5.83333 14.0859 5.83333 14.5002C5.83333 14.9144 6.16912 15.2502 6.58333 15.2502H13.4167C13.8309 15.2502 14.1667 14.9144 14.1667 14.5002C14.1667 14.0859 13.8309 13.7502 13.4167 13.7502H6.58333Z" fill="currentColor"/>
        <path fill-rule="evenodd" clip-rule="evenodd" d="M3.33333 2.0835C2.8731 2.0835 2.5 2.45659 2.5 2.91683V17.0835C2.5 17.5437 2.8731 17.9168 3.33333 17.9168H16.6667C17.1269 17.9168 17.5 17.5437 17.5 17.0835V2.91683C17.5 2.45659 17.1269 2.0835 16.6667 2.0835H3.33333ZM4 3.5835V16.4168H16V3.5835H4Z" fill="currentColor"/>
    </g>
</svg>
