<svg width="28" height="24" viewBox="0 0 28 24" fill="none" xmlns="http://www.w3.org/2000/svg">
<path fill-rule="evenodd" clip-rule="evenodd" d="M2.3 20.5551H25.7C26.4317 20.5551 27 21.0908 27 21.7776C27 22.4653 26.4317 23 25.7 23H2.3C1.56829 23 1 22.4653 1 21.7776C1 21.0898 1.56829 20.5551 2.3 20.5551ZM26.2 13H11.8C11.3497 13 11 12.5618 11 12C11 11.4374 11.3497 11 11.8 11H26.2C26.6503 11 27 11.4382 27 12C27 12.5626 26.6503 13 26.2 13ZM2.3 3.44487H25.7C26.4317 3.44487 27 2.91018 27 2.22243C27 1.5347 26.4317 1 25.7 1H2.3C1.56829 1 1 1.5347 1 2.22243C1 2.90922 1.56829 3.44487 2.3 3.44487Z" fill="white"/>
<path d="M25.7 21.0551H2.3V20.0551H25.7V21.0551ZM26.5 21.7776C26.5 21.3951 26.1846 21.0551 25.7 21.0551V20.0551C26.6788 20.0551 27.5 20.7864 27.5 21.7776H26.5ZM25.7 22.5C26.1849 22.5 26.5 22.1607 26.5 21.7776H27.5C27.5 22.7699 26.6785 23.5 25.7 23.5V22.5ZM2.3 22.5H25.7V23.5H2.3V22.5ZM1.5 21.7776C1.5 22.1607 1.81509 22.5 2.3 22.5V23.5C1.32148 23.5 0.5 22.7699 0.5 21.7776H1.5ZM2.3 21.0551C1.81509 21.0551 1.5 21.3944 1.5 21.7776H0.5C0.5 20.7852 1.32148 20.0551 2.3 20.0551V21.0551ZM11.8 12.5H26.2V13.5H11.8V12.5ZM11.5 12C11.5 12.1797 11.5561 12.3165 11.6217 12.3985C11.685 12.4776 11.7486 12.5 11.8 12.5V13.5C10.9749 13.5 10.5 12.7277 10.5 12H11.5ZM11.8 11.5C11.7482 11.5 11.6847 11.5224 11.6216 11.6013C11.5562 11.6831 11.5 11.8198 11.5 12H10.5C10.5 11.2712 10.9751 10.5 11.8 10.5V11.5ZM26.2 11.5H11.8V10.5H26.2V11.5ZM26.5 12C26.5 11.8203 26.4439 11.6835 26.3783 11.6015C26.315 11.5224 26.2514 11.5 26.2 11.5V10.5C27.0251 10.5 27.5 11.2723 27.5 12H26.5ZM26.2 12.5C26.2518 12.5 26.3153 12.4776 26.3784 12.3987C26.4438 12.3169 26.5 12.1802 26.5 12H27.5C27.5 12.7288 27.0249 13.5 26.2 13.5V12.5ZM25.7 3.94487H2.3V2.94487H25.7V3.94487ZM27.5 2.22243C27.5 3.21477 26.6785 3.94487 25.7 3.94487V2.94487C26.1849 2.94487 26.5 2.60558 26.5 2.22243H27.5ZM25.7 0.5C26.6785 0.5 27.5 1.2301 27.5 2.22243H26.5C26.5 1.83929 26.1849 1.5 25.7 1.5V0.5ZM2.3 0.5H25.7V1.5H2.3V0.5ZM0.5 2.22243C0.5 1.2301 1.32148 0.5 2.3 0.5V1.5C1.81509 1.5 1.5 1.83929 1.5 2.22243H0.5ZM2.3 3.94487C1.32122 3.94487 0.5 3.21356 0.5 2.22243H1.5C1.5 2.60487 1.81536 2.94487 2.3 2.94487V3.94487Z" fill="white"/>
</svg>
