<svg width="12" height="12" viewBox="0 0 12 12" fill="none"
    xmlns="http://www.w3.org/2000/svg">
    <path d="M5.2 2.4C5.2 2.89706 5.60294 3.3 6.1 3.3C6.59706 3.3 7 2.89706 7 2.4C7 1.90294 6.59706 1.5 6.1 1.5C5.60294 1.5 5.2 1.90294 5.2 2.4Z" fill="currentColor"/>
    <path d="M6.1 6.9C5.60294 6.9 5.2 6.49706 5.2 6C5.2 5.50294 5.60294 5.1 6.1 5.1C6.59706 5.1 7 5.50294 7 6C7 6.49706 6.59706 6.9 6.1 6.9Z" fill="currentColor"/>
    <path d="M6.1 10.5C5.60294 10.5 5.2 10.0971 5.2 9.6C5.2 9.10294 5.60294 8.7 6.1 8.7C6.59706 8.7 7 9.10294 7 9.6C7 10.0971 6.59706 10.5 6.1 10.5Z" fill="currentColor"/>
</svg>
