<svg width="16" height="16" viewBox="0 0 16 16" fill="none"
    xmlns="http://www.w3.org/2000/svg">
    <path fill-rule="evenodd" clip-rule="evenodd" d="M4.5 2.98333C3.66237 2.98333 2.98333 3.66237 2.98333 4.5C2.98333 5.33763 3.66237 6.01667 4.5 6.01667C5.33763 6.01667 6.01667 5.33763 6.01667 4.5C6.01667 3.66237 5.33763 2.98333 4.5 2.98333ZM1.68333 4.5C1.68333 2.9444 2.9444 1.68333 4.5 1.68333C6.0556 1.68333 7.31667 2.9444 7.31667 4.5C7.31667 6.0556 6.0556 7.31667 4.5 7.31667C2.9444 7.31667 1.68333 6.0556 1.68333 4.5ZM9.98333 4.5C9.98333 3.66237 10.6624 2.98333 11.5 2.98333C12.3376 2.98333 13.0167 3.66237 13.0167 4.5C13.0167 5.33763 12.3376 6.01667 11.5 6.01667C10.6624 6.01667 9.98333 5.33763 9.98333 4.5ZM11.5 1.68333C9.9444 1.68333 8.68333 2.9444 8.68333 4.5C8.68333 6.0556 9.9444 7.31667 11.5 7.31667C13.0556 7.31667 14.3167 6.0556 14.3167 4.5C14.3167 2.9444 13.0556 1.68333 11.5 1.68333ZM9.98333 11.5C9.98333 10.6624 10.6624 9.98333 11.5 9.98333C12.3376 9.98333 13.0167 10.6624 13.0167 11.5C13.0167 12.3376 12.3376 13.0167 11.5 13.0167C10.6624 13.0167 9.98333 12.3376 9.98333 11.5ZM11.5 8.68333C9.9444 8.68333 8.68333 9.9444 8.68333 11.5C8.68333 13.0556 9.9444 14.3167 11.5 14.3167C13.0556 14.3167 14.3167 13.0556 14.3167 11.5C14.3167 9.9444 13.0556 8.68333 11.5 8.68333ZM2.98333 11.5C2.98333 10.6624 3.66237 9.98333 4.5 9.98333C5.33763 9.98333 6.01667 10.6624 6.01667 11.5C6.01667 12.3376 5.33763 13.0167 4.5 13.0167C3.66237 13.0167 2.98333 12.3376 2.98333 11.5ZM4.5 8.68333C2.9444 8.68333 1.68333 9.9444 1.68333 11.5C1.68333 13.0556 2.9444 14.3167 4.5 14.3167C6.0556 14.3167 7.31667 13.0556 7.31667 11.5C7.31667 9.9444 6.0556 8.68333 4.5 8.68333Z" fill="currentColor"/>
</svg>
