<svg width="14" height="14" viewBox="0 0 14 14" fill="none"
    xmlns="http://www.w3.org/2000/svg">
    <path d="M11.9329 10.3359H11.9337V10.3308L11.9329 10.3359Z" fill="#181A1F"/>
    <path d="M7.00375 1.30792C10.1986 1.30792 12.7019 3.85667 12.7019 7.10996C12.7019 7.31083 12.6639 7.90665 12.594 8.25023H12.5952C12.5936 8.25751 12.5914 8.26357 12.5897 8.27044C12.581 8.31045 12.5719 8.3448 12.5624 8.37594C12.5376 8.47254 12.5123 8.56552 12.4867 8.65403L12.4697 8.7179C12.4676 8.73123 12.4602 8.74255 12.4565 8.7559C12.0897 9.95033 11.6402 10.3958 11.6402 10.3958L11.6394 10.3962C11.6382 10.4099 11.6378 10.4245 11.6352 10.437C11.6121 10.7098 11.5501 11.4342 11.8571 12.0692C11.8819 12.1286 11.8943 12.1917 11.8939 12.2499C11.91 12.3465 11.8878 12.4439 11.8302 12.5247C11.7686 12.6108 11.6758 12.6682 11.5703 12.686C11.5553 12.6888 11.54 12.6901 11.5272 12.6909C11.5161 12.6917 11.5052 12.6921 11.4945 12.6921C11.4519 12.6921 11.4104 12.6844 11.3791 12.6723C11.0123 12.5955 10.2038 12.243 9.75315 11.9301C8.91359 12.3905 7.96372 12.6347 7.00372 12.6347C3.85774 12.6347 1.29828 10.0938 1.29828 6.97128C1.29831 3.84838 3.85777 1.30792 7.00375 1.30792ZM7.00375 11.8885C7.94029 11.8885 8.88212 11.612 9.6784 11.1104C9.82877 11.0506 10.0341 11.0797 10.1691 11.1933C10.4209 11.4277 10.6956 11.6145 10.9866 11.7507C10.925 11.2592 10.8646 10.9463 10.8894 10.6824C10.8819 10.6403 10.8828 10.3457 11.0032 10.1116C11.5331 9.39738 11.7243 8.75429 11.788 8.46851L11.7922 8.44548C11.807 8.3796 11.8266 8.26278 11.8468 8.12333C11.8969 7.78259 11.9511 7.30724 11.9511 7.10997C11.9511 4.32112 9.76654 2.0525 7.08015 2.0525L7.00458 2.05331C4.22603 2.09556 2.04895 4.25585 2.04895 6.97132C2.04894 9.68235 4.27128 11.8885 7.00375 11.8885Z" fill="currentColor"/>
    <path d="M4.39621 5.93268C4.11083 5.93268 3.91054 6.02038 3.79676 6.19683C3.7624 6.04445 3.665 5.96199 3.50573 5.95007C3.28847 5.97412 3.17993 6.097 3.17993 6.32012V8.04609C3.19104 8.26921 3.29998 8.38037 3.50573 8.38037C3.69934 8.38037 3.80243 8.26922 3.81414 8.04609V6.91855C3.82484 6.63721 3.96207 6.48441 4.22481 6.46117C4.47582 6.48441 4.61285 6.63721 4.63629 6.91855V8.04609C4.64721 8.26921 4.75028 8.38037 4.94432 8.38037C5.13835 8.38037 5.24667 8.26922 5.26969 8.04609V6.79567C5.23536 6.25585 4.94432 5.96785 4.39621 5.93268Z" fill="currentColor"/>
    <path d="M7.75398 7.11237C7.66222 6.39672 7.2859 6.00302 6.6234 5.93268C5.92654 6.00301 5.54941 6.42036 5.49243 7.1827C5.52717 7.9701 5.92089 8.37472 6.67474 8.39775C7.27983 8.363 7.6226 8.19282 7.70265 7.88764C7.67919 7.72311 7.59392 7.62935 7.44558 7.60551C7.38816 7.60551 7.30289 7.64107 7.18889 7.7114C7.00579 7.8173 6.8522 7.86985 6.72607 7.86985C6.38331 7.85812 6.18361 7.69967 6.12623 7.39409H7.48032C7.66223 7.40623 7.75398 7.31206 7.75398 7.11237ZM6.10925 6.9715C6.15492 6.65501 6.32631 6.48442 6.6234 6.46118C6.89746 6.4725 7.06278 6.64328 7.12017 6.9715H6.10925Z" fill="currentColor"/>
    <path d="M10.8546 5.95026C10.6949 5.96218 10.5975 6.0499 10.5632 6.21422L10.1868 7.44745L9.80972 6.232C9.75191 6.04464 9.64924 5.95026 9.50129 5.95026C9.32991 5.95026 9.22158 6.04464 9.17551 6.232L8.79879 7.44745L8.43902 6.21422C8.39334 6.0499 8.29068 5.96218 8.13062 5.95026C7.9366 5.96218 7.83354 6.0499 7.82221 6.21422C7.81089 6.2615 7.81089 6.31446 7.82221 6.37285C7.83354 6.41995 7.85616 6.47249 7.89052 6.5313L8.42165 8.08125C8.49037 8.28092 8.61607 8.38077 8.79879 8.38077C8.98149 8.38077 9.10114 8.28659 9.15853 8.09863L9.48392 7.05982H9.50129L9.82711 8.09863C9.87196 8.28659 9.99201 8.38077 10.1868 8.38077C10.3574 8.38077 10.4835 8.28092 10.5632 8.08125L11.1117 6.51351C11.146 6.41995 11.163 6.3377 11.163 6.26716C11.1513 6.06768 11.049 5.96218 10.8546 5.95026Z" fill="currentColor"/>
</svg>
