<svg width="16" height="16" viewBox="0 0 16 16" fill="none"
    xmlns="http://www.w3.org/2000/svg">
    <g clip-path="url(#clip0_17230_70468)">
        <path d="M8 14.6667C8.73334 14.6667 9.33334 14.0667 9.33334 13.3333H6.66667C6.66667 14.0667 7.26667 14.6667 8 14.6667ZM12 10.6667V7.33333C12 5.28666 10.9133 3.57333 9 3.12V2.66666C9 2.11333 8.55334 1.66666 8 1.66666C7.44667 1.66666 7 2.11333 7 2.66666V3.12C5.09334 3.57333 4.00001 5.28 4.00001 7.33333V10.6667L2.66667 12V12.6667H13.3333V12L12 10.6667ZM10.6667 11.3333H5.33334V7.33333C5.33334 5.68 6.34 4.33333 8 4.33333C9.66 4.33333 10.6667 5.68 10.6667 7.33333V11.3333Z" fill="currentColor"/>
    </g>
</svg>
