<svg width="16" height="16" viewBox="0 0 16 16" fill="none" xmlns="http://www.w3.org/2000/svg">
<path fill-rule="evenodd" clip-rule="evenodd" d="M13 2C13 1.44772 13.4477 1 14 1C14.5523 1 15 1.44772 15 2V6.9997C14.4186 6.56297 13.7389 6.25003 13 6.10003V2ZM11 6.10003V5C11 4.44772 10.5523 4 10 4C9.44771 4 9 4.44772 9 5V6.9997C9.58141 6.56297 10.2611 6.25003 11 6.10003ZM9.66628 8.94296C9.70143 8.88878 9.74275 8.83743 9.79022 8.78992C10.0005 8.57996 10.2857 8.49084 10.5599 8.52197C10.6453 8.53172 10.7296 8.55311 10.8103 8.58619C10.6286 8.83692 10.3333 9 10 9C9.88298 9 9.77065 8.9799 9.66628 8.94296ZM14.3338 8.94295C14.2294 8.97989 14.117 9 14 9C13.6666 9 13.3713 8.83682 13.1896 8.58596C13.2414 8.56462 13.2949 8.5481 13.3492 8.53662C13.6498 8.47192 13.976 8.55615 14.2098 8.78992C14.2573 8.83743 14.2986 8.88877 14.3338 8.94295ZM7 11V7C7 6.44772 6.55228 6 6 6C5.44772 6 5 6.44772 5 7V12C5 12.5523 5.44772 13 6 13C6.55228 13 7 12.5523 7 12V11ZM1 10C1 9.44771 1.44772 9 2 9C2.55228 9 3 9.44771 3 10V12C3 12.5523 2.55228 13 2 13C1.44772 13 1 12.5523 1 12V10Z" fill="#F82329"/>
<path fill-rule="evenodd" clip-rule="evenodd" d="M12 14C13.933 14 15.5 12.4329 15.5 10.5C15.5 8.56714 13.933 7 12 7C10.067 7 8.5 8.56714 8.5 10.5C8.5 12.4329 10.067 14 12 14ZM13.5468 8.95294C13.8031 9.20929 13.803 9.625 13.5468 9.88135L12.9281 10.5L13.5468 11.1187C13.6522 11.2242 13.7142 11.3562 13.7329 11.4933C13.7598 11.6899 13.6978 11.8958 13.5468 12.0466C13.2906 12.303 12.875 12.303 12.6188 12.0466L12 11.428L11.3812 12.0466C11.1251 12.303 10.7095 12.303 10.4532 12.0466C10.1969 11.7903 10.197 11.375 10.4532 11.1187L11.0719 10.5L10.4532 9.88135C10.1969 9.625 10.197 9.20929 10.4532 8.95294C10.6003 8.80597 10.8 8.74359 10.9919 8.76538C11.1342 8.78162 11.2722 8.84399 11.3812 8.95294L12 9.57202L12.6188 8.95294C12.6692 8.90253 12.7257 8.86194 12.7859 8.8316C12.8365 8.80597 12.8898 8.78717 12.9444 8.77563C13.1548 8.73035 13.3832 8.78931 13.5468 8.95294Z" fill="#F82329"/>
</svg>
