<svg width="16" height="16" viewBox="0 0 16 16" fill="none" xmlns="http://www.w3.org/2000/svg">
<path fill-rule="evenodd" clip-rule="evenodd" d="M14 2C13.4477 2 13 2.44772 13 3V13C13 13.5523 13.4477 14 14 14C14.5523 14 15 13.5523 15 13V3C15 2.44772 14.5523 2 14 2ZM9 6C9 5.44772 9.44771 5 10 5C10.5523 5 11 5.44772 11 6V13C11 13.5523 10.5523 14 10 14C9.44771 14 9 13.5523 9 13V6ZM6 7C5.44772 7 5 7.44772 5 8V13C5 13.5523 5.44772 14 6 14C6.55228 14 7 13.5523 7 13V8C7 7.44772 6.55228 7 6 7ZM2 10C1.44772 10 1 10.4477 1 11V13C1 13.5523 1.44772 14 2 14C2.55228 14 3 13.5523 3 13V11C3 10.4477 2.55228 10 2 10Z" fill="#24F082"/>
</svg>
