<svg width="16" height="16" viewBox="0 0 16 16" fill="none"
    xmlns="http://www.w3.org/2000/svg">
    <path fill-rule="evenodd" clip-rule="evenodd" d="M12.2906 7.30048H8.6887V3.69607C8.6887 3.31013 8.37879 3 7.99311 3C7.60744 3 7.29752 3.31013 7.29752 3.69607V7.30737H3.69559C3.30992 7.30048 3 7.61061 3 7.99655C3 8.38249 3.30992 8.69263 3.69559 8.69263H7.30441V12.3039C7.30441 12.6899 7.61433 13 8 13C8.38567 13 8.69559 12.6899 8.69559 12.3039V8.69263H12.3044C12.6901 8.69263 13 8.38249 13 7.99655C12.9862 7.61061 12.6763 7.30048 12.2906 7.30048Z" fill="currentColor"/>
</svg>
