<svg width="14" height="14" viewBox="0 0 14 14" fill="none"
    xmlns="http://www.w3.org/2000/svg">
    <path d="M5.27764 11.3447V2.92442C5.27764 2.6857 5.47076 2.49258 5.70947 2.49258H8.37139C8.6101 2.49258 8.80322 2.6857 8.80322 2.92442V11.3447H5.27764ZM6.17196 4.18535L6.14268 4.21464V4.25606V4.52266V4.62266H6.24268H6.94111V5.8543V5.9543H7.04111H7.57432H7.67432V5.8543V3.45762V3.35762H7.57432H7.04111H6.99969L6.9704 3.38691L6.17196 4.18535ZM12.6329 6.28614H10.5028C10.2999 6.28614 10.1362 6.44986 10.1362 6.65274C10.1362 6.85563 10.2999 7.01934 10.5028 7.01934H12.2663V11.3461H9.53779V2.39258C9.53779 2.04341 9.25513 1.76075 8.90596 1.76075H5.17764C4.82846 1.76075 4.5458 2.04341 4.5458 2.39258V11.3447H1.81729V5.6877H3.58076C3.78365 5.6877 3.94736 5.52398 3.94736 5.3211C3.94736 5.11822 3.78365 4.9545 3.58076 4.9545H1.45068C1.2478 4.9545 1.08408 5.11822 1.08408 5.3211V11.7113C1.08408 11.9142 1.2478 12.0779 1.45068 12.0779H12.6329C12.8358 12.0779 12.9995 11.9142 12.9995 11.7113V6.65274C12.9995 6.44952 12.8341 6.28614 12.6329 6.28614Z" fill="currentColor" stroke="currentColor" stroke-width="0.2"/>
</svg>
