<svg width="16" height="16" viewBox="0 0 16 16" fill="none"
    xmlns="http://www.w3.org/2000/svg">
    <path d="M7.2623 8.68751C7.17793 8.61407 7.06387 8.58126 6.95293 8.59688C6.93418 8.59532 6.91543 8.59376 6.89824 8.59376H4.34668C4.20762 8.59376 4.07949 8.66719 4.01074 8.78751C3.94199 8.90782 3.94199 9.05626 4.01074 9.17501C4.07949 9.29532 4.20762 9.36876 4.34668 9.36876H6.00449L3.8998 11.4734C3.74824 11.625 3.74824 11.8703 3.8998 12.0219C4.05137 12.1734 4.29668 12.1734 4.44824 12.0219L6.61855 9.85157V11.5313C6.61855 11.7453 6.79199 11.9188 7.00605 11.9188C7.22012 11.9188 7.39355 11.7453 7.39355 11.5313V8.98126C7.39512 8.86876 7.34668 8.76094 7.2623 8.68751ZM11.4232 3.99844L9.49043 5.93126V4.50938C9.49043 4.31251 9.33105 4.15313 9.13418 4.15313C8.9373 4.15313 8.77793 4.31251 8.77793 4.50938V6.85157C8.77793 6.94532 8.81543 7.03594 8.88262 7.10313C8.94668 7.16719 9.03574 7.20782 9.13418 7.20782H11.4764C11.6732 7.20782 11.8326 7.04844 11.8326 6.85157C11.8326 6.65469 11.6732 6.49532 11.4764 6.49532H9.93418L11.9279 4.50157C12.067 4.36251 12.067 4.13594 11.9279 3.99688C11.7873 3.85938 11.5623 3.85938 11.4232 3.99844Z" fill="currentColor"/>
    <path d="M13.3002 10.9985V12.5219C13.3002 12.9297 12.9705 13.2594 12.5627 13.2594H3.46895C3.06113 13.2594 2.73145 12.9297 2.73145 12.5219V3.42814C2.73145 3.02032 3.06113 2.69064 3.46895 2.69064H12.5627C12.758 2.69064 12.9455 2.76876 13.0846 2.90626C13.2221 3.04376 13.3002 3.23282 13.3002 3.42814V11.2H13.9955V6.56954V3.55157C13.9955 2.69376 13.3002 1.99689 12.4408 1.99689H3.59082C2.73301 1.99689 2.03613 2.6922 2.03613 3.55157V12.4C2.03613 13.2578 2.73145 13.9547 3.59082 13.9547H12.4393C13.2971 13.9547 13.9939 13.2594 13.9939 12.4V10.9985H13.3002Z" fill="currentColor"/>
    <path d="M13.3018 9.58906C13.3018 9.68106 13.3383 9.76929 13.4034 9.83434C13.4684 9.89939 13.5566 9.93594 13.6486 9.93594C13.7406 9.93594 13.8289 9.89939 13.8939 9.83434C13.959 9.76929 13.9955 9.68106 13.9955 9.58906C13.9955 9.49707 13.959 9.40884 13.8939 9.34379C13.8289 9.27873 13.7406 9.24219 13.6486 9.24219C13.5566 9.24219 13.4684 9.27873 13.4034 9.34379C13.3383 9.40884 13.3018 9.49707 13.3018 9.58906Z" fill="currentColor"/>
    <path d="M13.3018 10.9984C13.3018 11.0904 13.3383 11.1787 13.4034 11.2437C13.4684 11.3088 13.5566 11.3453 13.6486 11.3453C13.7406 11.3453 13.8289 11.3088 13.8939 11.2437C13.959 11.1787 13.9955 11.0904 13.9955 10.9984C13.9955 10.9064 13.959 10.8182 13.8939 10.7531C13.8289 10.6881 13.7406 10.6516 13.6486 10.6516C13.5566 10.6516 13.4684 10.6881 13.4034 10.7531C13.3383 10.8182 13.3018 10.9064 13.3018 10.9984Z" fill="currentColor"/>
</svg>
