<svg width="17" height="17" viewBox="0 0 17 17" fill="none"
    xmlns="http://www.w3.org/2000/svg">
    <path d="M8.79183 8.81729C8.71839 8.90166 8.68558 9.01572 8.7012 9.12666C8.69964 9.14541 8.69808 9.16416 8.69808 9.18135L8.69808 11.7329C8.69808 11.872 8.77151 12.0001 8.89183 12.0688C9.01214 12.1376 9.16058 12.1376 9.27933 12.0688C9.39964 12.0001 9.47308 11.872 9.47308 11.7329L9.47308 10.0751L11.5778 12.1798C11.7293 12.3313 11.9746 12.3313 12.1262 12.1798C12.2778 12.0282 12.2778 11.7829 12.1262 11.6313L9.95589 9.46104L11.6356 9.46104C11.8496 9.46104 12.0231 9.2876 12.0231 9.07354C12.0231 8.85947 11.8496 8.68604 11.6356 8.68604L9.08558 8.68604C8.97308 8.68447 8.86526 8.73291 8.79183 8.81729Z" fill="currentColor"/>
    <path d="M7.5927 6.91318C7.66613 6.82881 7.69895 6.71475 7.68332 6.60381C7.68488 6.58506 7.68645 6.56631 7.68645 6.54912L7.68645 3.99756C7.68645 3.8585 7.61301 3.73037 7.49269 3.66162C7.37238 3.59287 7.22395 3.59287 7.1052 3.66162C6.98488 3.73037 6.91145 3.8585 6.91145 3.99756L6.91145 5.65537L4.80676 3.55068C4.6552 3.39912 4.40988 3.39912 4.25832 3.55068C4.10676 3.70225 4.10676 3.94756 4.25832 4.09912L6.42863 6.26943L4.74895 6.26943C4.53488 6.26943 4.36145 6.44287 4.36145 6.65693C4.36145 6.871 4.53488 7.04443 4.74895 7.04443L7.29895 7.04443C7.41145 7.046 7.51926 6.99756 7.5927 6.91318Z" fill="currentColor"/>
</svg>
