<svg width="10" height="10" viewBox="0 0 10 10" fill="none"
    xmlns="http://www.w3.org/2000/svg">
    <path d="M3.125 3.71843C3.50439 3.64099 3.84151 3.42544 4.071 3.11356C4.30049 2.80168 4.40601 2.41571 4.36709 2.03045C4.32817 1.6452 4.14759 1.28813 3.86036 1.02845C3.57313 0.768775 3.19972 0.625 2.8125 0.625C2.42529 0.625 2.05187 0.768775 1.76464 1.02845C1.47741 1.28813 1.29683 1.6452 1.25792 2.03045C1.219 2.41571 1.32451 2.80168 1.554 3.11356C1.7835 3.42544 2.12062 3.64099 2.5 3.71843L2.5 6.28093C2.12062 6.35837 1.7835 6.57393 1.554 6.8858C1.32451 7.19768 1.219 7.58366 1.25792 7.96891C1.29683 8.35416 1.47741 8.71124 1.76464 8.97091C2.05187 9.23059 2.42529 9.37436 2.8125 9.37436C3.19972 9.37436 3.57313 9.23059 3.86036 8.97091C4.14759 8.71124 4.32817 8.35416 4.36709 7.96891C4.40601 7.58366 4.30049 7.19768 4.071 6.8858C3.84151 6.57393 3.50439 6.35837 3.125 6.28093V5.62468L5.9375 5.62468C6.14269 5.62468 6.34588 5.58427 6.53545 5.50574C6.72502 5.42722 6.89727 5.31213 7.04236 5.16704C7.18745 5.02194 7.30254 4.8497 7.38107 4.66012C7.45959 4.47055 7.5 4.26737 7.5 4.06218V3.71843C7.87939 3.64099 8.21651 3.42544 8.446 3.11356C8.67549 2.80168 8.78101 2.41571 8.74209 2.03045C8.70317 1.6452 8.52259 1.28813 8.23536 1.02845C7.94813 0.768775 7.57472 0.625 7.1875 0.625C6.80029 0.625 6.42687 0.768775 6.13964 1.02845C5.85241 1.28813 5.67183 1.6452 5.63292 2.03045C5.594 2.41571 5.69951 2.80168 5.929 3.11356C6.1585 3.42544 6.49562 3.64099 6.875 3.71843V4.06218C6.875 4.31082 6.77623 4.54928 6.60042 4.72509C6.4246 4.90091 6.18614 4.99968 5.9375 4.99968L3.125 4.99968L3.125 3.71843ZM2.8125 3.12468C2.68939 3.12468 2.56748 3.10043 2.45374 3.05332C2.34 3.0062 2.23665 2.93715 2.14959 2.85009C2.06254 2.76304 1.99348 2.65969 1.94637 2.54595C1.89925 2.4322 1.875 2.3103 1.875 2.18718C1.875 2.06407 1.89925 1.94216 1.94637 1.82842C1.99348 1.71467 2.06254 1.61132 2.14959 1.52427C2.23665 1.43721 2.34 1.36816 2.45374 1.32104C2.56748 1.27393 2.68939 1.24968 2.8125 1.24968C3.06114 1.24968 3.2996 1.34845 3.47542 1.52427C3.65123 1.70008 3.75 1.93854 3.75 2.18718C3.75 2.43582 3.65123 2.67428 3.47542 2.85009C3.2996 3.02591 3.06114 3.12468 2.8125 3.12468ZM7.1875 3.12468C7.06439 3.12468 6.94248 3.10043 6.82874 3.05332C6.71499 3.0062 6.61165 2.93715 6.52459 2.85009C6.43754 2.76304 6.36848 2.65969 6.32137 2.54595C6.27425 2.4322 6.25 2.3103 6.25 2.18718C6.25 2.06407 6.27425 1.94216 6.32137 1.82842C6.36848 1.71467 6.43754 1.61132 6.52459 1.52427C6.61165 1.43721 6.71499 1.36816 6.82874 1.32104C6.94248 1.27393 7.06439 1.24968 7.1875 1.24968C7.43614 1.24968 7.6746 1.34845 7.85042 1.52427C8.02623 1.70008 8.125 1.93854 8.125 2.18718C8.125 2.43582 8.02623 2.67428 7.85042 2.85009C7.6746 3.02591 7.43614 3.12468 7.1875 3.12468ZM3.75 7.81218C3.75 8.06082 3.65123 8.29928 3.47542 8.47509C3.2996 8.65091 3.06114 8.74968 2.8125 8.74968C2.56386 8.74968 2.32541 8.65091 2.14959 8.47509C1.97378 8.29928 1.875 8.06082 1.875 7.81218C1.875 7.56354 1.97378 7.32508 2.14959 7.14927C2.32541 6.97345 2.56386 6.87468 2.8125 6.87468C3.06114 6.87468 3.2996 6.97345 3.47542 7.14927C3.65123 7.32508 3.75 7.56354 3.75 7.81218Z" fill="currentColor"/>
</svg>
