<svg width="14" height="14" viewBox="0 0 14 14" fill="none"
    xmlns="http://www.w3.org/2000/svg">
    <path d="M11 6V2.5H11.5V3H8C7.96717 3 7.93465 2.9968 7.90245 2.99039C7.87026 2.98399 7.83899 2.9745 7.80866 2.96194C7.77833 2.94938 7.74951 2.93397 7.72222 2.91574C7.69492 2.8975 7.66966 2.87677 7.64645 2.85355C7.62323 2.83034 7.6025 2.80508 7.58427 2.77778C7.56603 2.75049 7.55062 2.72167 7.53806 2.69134C7.5255 2.66101 7.51601 2.62974 7.50961 2.59755C7.5032 2.56535 7.5 2.53283 7.5 2.5C7.5 2.46717 7.5032 2.43465 7.50961 2.40245C7.51601 2.37026 7.5255 2.33899 7.53806 2.30866C7.55062 2.27833 7.56603 2.24951 7.58427 2.22222C7.6025 2.19492 7.62323 2.16966 7.64645 2.14645C7.66966 2.12323 7.69492 2.1025 7.72222 2.08426C7.74951 2.06603 7.77833 2.05062 7.80866 2.03806C7.83899 2.0255 7.87026 2.01601 7.90245 2.00961C7.93465 2.0032 7.96717 2 8 2H11.5C11.5328 2 11.5653 2.0032 11.5975 2.00961C11.6297 2.01601 11.661 2.0255 11.6913 2.03806C11.7217 2.05062 11.7505 2.06603 11.7778 2.08426C11.8051 2.1025 11.8303 2.12323 11.8536 2.14645C11.8768 2.16966 11.8975 2.19492 11.9157 2.22222C11.934 2.24951 11.9494 2.27833 11.9619 2.30866C11.9745 2.33899 11.984 2.37026 11.9904 2.40245C11.9968 2.43465 12 2.46717 12 2.5V6C12 6.03283 11.9968 6.06535 11.9904 6.09755C11.984 6.12975 11.9745 6.16101 11.9619 6.19134C11.9494 6.22167 11.934 6.25049 11.9157 6.27778C11.8975 6.30508 11.8768 6.33034 11.8536 6.35356C11.8303 6.37677 11.8051 6.39749 11.7778 6.41573C11.7505 6.43397 11.7217 6.44938 11.6913 6.46194C11.661 6.4745 11.6297 6.48399 11.5975 6.49039C11.5653 6.4968 11.5328 6.5 11.5 6.5C11.4672 6.5 11.4347 6.4968 11.4025 6.49039C11.3703 6.48399 11.339 6.4745 11.3087 6.46194C11.2783 6.44938 11.2495 6.43397 11.2222 6.41573C11.1949 6.39749 11.1697 6.37677 11.1464 6.35356C11.1232 6.33034 11.1025 6.30508 11.0843 6.27778C11.066 6.25049 11.0506 6.22167 11.0381 6.19134C11.0255 6.16101 11.016 6.12975 11.0096 6.09755C11.0032 6.06535 11 6.03283 11 6ZM12 6C12 6.03283 11.9968 6.06535 11.9904 6.09755C11.984 6.12975 11.9745 6.16101 11.9619 6.19134C11.9494 6.22167 11.934 6.25049 11.9157 6.27778C11.8975 6.30508 11.8768 6.33034 11.8536 6.35356C11.8303 6.37677 11.8051 6.39749 11.7778 6.41573C11.7505 6.43397 11.7217 6.44938 11.6913 6.46194C11.661 6.4745 11.6297 6.48399 11.5975 6.49039C11.5653 6.4968 11.5328 6.5 11.5 6.5C11.4672 6.5 11.4347 6.4968 11.4025 6.49039C11.3703 6.48399 11.339 6.4745 11.3087 6.46194C11.2783 6.44938 11.2495 6.43397 11.2222 6.41573C11.1949 6.39749 11.1697 6.37677 11.1464 6.35356C11.1232 6.33034 11.1025 6.30508 11.0843 6.27778C11.066 6.25049 11.0506 6.22167 11.0381 6.19134C11.0255 6.16101 11.016 6.12975 11.0096 6.09755C11.0032 6.06535 11 6.03283 11 6C11 5.96717 11.0032 5.93465 11.0096 5.90245C11.016 5.87025 11.0255 5.83899 11.0381 5.80866C11.0506 5.77833 11.066 5.74951 11.0843 5.72222C11.1025 5.69492 11.1232 5.66966 11.1464 5.64644C11.1697 5.62323 11.1949 5.60251 11.2222 5.58427C11.2495 5.56603 11.2783 5.55062 11.3087 5.53806C11.339 5.5255 11.3703 5.51601 11.4025 5.5096C11.4347 5.5032 11.4672 5.5 11.5 5.5C11.5328 5.5 11.5653 5.5032 11.5975 5.5096C11.6297 5.51601 11.661 5.5255 11.6913 5.53806C11.7217 5.55062 11.7505 5.56603 11.7778 5.58427C11.8051 5.60251 11.8303 5.62323 11.8536 5.64644C11.8768 5.66966 11.8975 5.69492 11.9157 5.72222C11.934 5.74951 11.9494 5.77833 11.9619 5.80866C11.9745 5.83899 11.984 5.87025 11.9904 5.90245C11.9968 5.93465 12 5.96717 12 6ZM8.5 2.5C8.5 2.53283 8.4968 2.56535 8.49039 2.59755C8.48399 2.62974 8.4745 2.66101 8.46194 2.69134C8.44938 2.72167 8.43397 2.75049 8.41573 2.77778C8.3975 2.80508 8.37677 2.83034 8.35355 2.85355C8.33034 2.87677 8.30508 2.8975 8.27778 2.91574C8.25049 2.93397 8.22167 2.94938 8.19134 2.96194C8.16101 2.9745 8.12974 2.98399 8.09755 2.99039C8.06535 2.9968 8.03283 3 8 3C7.96717 3 7.93465 2.9968 7.90245 2.99039C7.87026 2.98399 7.83899 2.9745 7.80866 2.96194C7.77833 2.94938 7.74951 2.93397 7.72222 2.91574C7.69492 2.8975 7.66966 2.87677 7.64645 2.85355C7.62323 2.83034 7.6025 2.80508 7.58427 2.77778C7.56603 2.75049 7.55062 2.72167 7.53806 2.69134C7.5255 2.66101 7.51601 2.62974 7.50961 2.59755C7.5032 2.56535 7.5 2.53283 7.5 2.5C7.5 2.46717 7.5032 2.43465 7.50961 2.40245C7.51601 2.37026 7.5255 2.33899 7.53806 2.30866C7.55062 2.27833 7.56603 2.24951 7.58427 2.22222C7.6025 2.19492 7.62323 2.16966 7.64645 2.14645C7.66966 2.12323 7.69492 2.1025 7.72222 2.08426C7.74951 2.06603 7.77833 2.05062 7.80866 2.03806C7.83899 2.0255 7.87026 2.01601 7.90245 2.00961C7.93465 2.0032 7.96717 2 8 2C8.03283 2 8.06535 2.0032 8.09755 2.00961C8.12974 2.01601 8.16101 2.0255 8.19134 2.03806C8.22167 2.05062 8.25049 2.06603 8.27778 2.08426C8.30508 2.1025 8.33034 2.12323 8.35355 2.14645C8.37677 2.16966 8.3975 2.19492 8.41573 2.22222C8.43397 2.24951 8.44938 2.27833 8.46194 2.30866C8.4745 2.33899 8.48399 2.37026 8.49039 2.40245C8.4968 2.43465 8.5 2.46717 8.5 2.5Z" fill="currentColor"/>
    <path d="M5.5 3H3.25C3.08333 3 3 3.08333 3 3.25V10.75C3 10.9167 3.08333 11 3.25 11H10.75C10.9167 11 11 10.9167 11 10.75V8.3684C11 8.3356 11.0032 8.3031 11.0096 8.2709C11.016 8.2387 11.0255 8.20743 11.038 8.1771C11.0506 8.14677 11.066 8.11795 11.0843 8.09065C11.1025 8.06335 11.1232 8.03808 11.1465 8.01485C11.1697 7.99165 11.1949 7.97093 11.2222 7.9527C11.2495 7.93447 11.2783 7.91907 11.3087 7.9065C11.339 7.89393 11.3702 7.88445 11.4024 7.87805C11.4346 7.87162 11.4672 7.8684 11.5 7.8684C11.5328 7.8684 11.5654 7.87162 11.5976 7.87805C11.6298 7.88445 11.661 7.89393 11.6913 7.9065C11.7217 7.91907 11.7505 7.93447 11.7778 7.9527C11.8051 7.97093 11.8303 7.99165 11.8535 8.01485C11.8767 8.03808 11.8975 8.06335 11.9157 8.09065C11.934 8.11795 11.9494 8.14677 11.962 8.1771C11.9745 8.20743 11.984 8.2387 11.9904 8.2709C11.9968 8.3031 12 8.3356 12 8.3684V10.75C12 11.0952 11.878 11.3898 11.6339 11.6339C11.3898 11.878 11.0952 12 10.75 12H3.25C2.90482 12 2.61019 11.878 2.36612 11.6339C2.12204 11.3898 2 11.0952 2 10.75V3.25C2 2.90482 2.12204 2.61019 2.36612 2.36612C2.61019 2.12204 2.90482 2 3.25 2H5.5C5.53283 2 5.56535 2.0032 5.59755 2.00961C5.62975 2.01601 5.66101 2.0255 5.69134 2.03806C5.72167 2.05062 5.75049 2.06603 5.77778 2.08426C5.80508 2.1025 5.83034 2.12323 5.85356 2.14645C5.87677 2.16966 5.89749 2.19492 5.91573 2.22222C5.93397 2.24951 5.94938 2.27833 5.96194 2.30866C5.9745 2.33899 5.98399 2.37026 5.99039 2.40245C5.9968 2.43465 6 2.46717 6 2.5C6 2.53283 5.9968 2.56535 5.99039 2.59755C5.98399 2.62974 5.9745 2.66101 5.96194 2.69134C5.94938 2.72167 5.93397 2.75049 5.91573 2.77778C5.89749 2.80508 5.87677 2.83034 5.85356 2.85355C5.83034 2.87677 5.80508 2.8975 5.77778 2.91574C5.75049 2.93397 5.72167 2.94938 5.69134 2.96194C5.66101 2.9745 5.62975 2.98399 5.59755 2.99039C5.56535 2.9968 5.53283 3 5.5 3ZM6 2.5C6 2.53283 5.9968 2.56535 5.99039 2.59755C5.98399 2.62974 5.9745 2.66101 5.96194 2.69134C5.94938 2.72167 5.93397 2.75049 5.91573 2.77778C5.89749 2.80508 5.87677 2.83034 5.85356 2.85355C5.83034 2.87677 5.80508 2.8975 5.77778 2.91574C5.75049 2.93397 5.72167 2.94938 5.69134 2.96194C5.66101 2.9745 5.62975 2.98399 5.59755 2.99039C5.56535 2.9968 5.53283 3 5.5 3C5.46717 3 5.43465 2.9968 5.40245 2.99039C5.37025 2.98399 5.33899 2.9745 5.30866 2.96194C5.27833 2.94938 5.24951 2.93397 5.22222 2.91574C5.19492 2.8975 5.16966 2.87677 5.14644 2.85355C5.12323 2.83034 5.10251 2.80508 5.08427 2.77778C5.06603 2.75049 5.05062 2.72167 5.03806 2.69134C5.0255 2.66101 5.01601 2.62974 5.0096 2.59755C5.0032 2.56535 5 2.53283 5 2.5C5 2.46717 5.0032 2.43465 5.0096 2.40245C5.01601 2.37026 5.0255 2.33899 5.03806 2.30866C5.05062 2.27833 5.06603 2.24951 5.08427 2.22222C5.10251 2.19492 5.12323 2.16966 5.14644 2.14645C5.16966 2.12323 5.19492 2.1025 5.22222 2.08426C5.24951 2.06603 5.27833 2.05062 5.30866 2.03806C5.33899 2.0255 5.37025 2.01601 5.40245 2.00961C5.43465 2.0032 5.46717 2 5.5 2C5.53283 2 5.56535 2.0032 5.59755 2.00961C5.62975 2.01601 5.66101 2.0255 5.69134 2.03806C5.72167 2.05062 5.75049 2.06603 5.77778 2.08426C5.80508 2.1025 5.83034 2.12323 5.85356 2.14645C5.87677 2.16966 5.89749 2.19492 5.91573 2.22222C5.93397 2.24951 5.94938 2.27833 5.96194 2.30866C5.9745 2.33899 5.98399 2.37026 5.99039 2.40245C5.9968 2.43465 6 2.46717 6 2.5ZM12 8.3684C12 8.40123 11.9968 8.43375 11.9904 8.46595C11.984 8.49815 11.9745 8.52942 11.962 8.55975C11.9494 8.59008 11.934 8.6189 11.9157 8.6462C11.8975 8.6735 11.8767 8.69877 11.8535 8.722C11.8303 8.7452 11.8051 8.76592 11.7778 8.78415C11.7505 8.80238 11.7217 8.81778 11.6913 8.83035C11.661 8.84292 11.6298 8.8524 11.5976 8.8588C11.5654 8.8652 11.5328 8.8684 11.5 8.8684C11.4672 8.8684 11.4346 8.8652 11.4024 8.8588C11.3702 8.8524 11.339 8.84292 11.3087 8.83035C11.2783 8.81778 11.2495 8.80238 11.2222 8.78415C11.1949 8.76592 11.1697 8.7452 11.1465 8.722C11.1232 8.69877 11.1025 8.6735 11.0843 8.6462C11.066 8.6189 11.0506 8.59008 11.038 8.55975C11.0255 8.52942 11.016 8.49815 11.0096 8.46595C11.0032 8.43375 11 8.40123 11 8.3684C11 8.3356 11.0032 8.3031 11.0096 8.2709C11.016 8.2387 11.0255 8.20743 11.038 8.1771C11.0506 8.14677 11.066 8.11795 11.0843 8.09065C11.1025 8.06335 11.1232 8.03808 11.1465 8.01485C11.1697 7.99165 11.1949 7.97093 11.2222 7.9527C11.2495 7.93447 11.2783 7.91907 11.3087 7.9065C11.339 7.89393 11.3702 7.88445 11.4024 7.87805C11.4346 7.87162 11.4672 7.8684 11.5 7.8684C11.5328 7.8684 11.5654 7.87162 11.5976 7.87805C11.6298 7.88445 11.661 7.89393 11.6913 7.9065C11.7217 7.91907 11.7505 7.93447 11.7778 7.9527C11.8051 7.97093 11.8303 7.99165 11.8535 8.01485C11.8767 8.03808 11.8975 8.06335 11.9157 8.09065C11.934 8.11795 11.9494 8.14677 11.962 8.1771C11.9745 8.20743 11.984 8.2387 11.9904 8.2709C11.9968 8.3031 12 8.3356 12 8.3684Z" fill="currentColor"/>
    <path d="M11.6287 3.07865L7.80375 6.90365C7.78053 6.92687 7.75528 6.94759 7.72798 6.96583C7.70068 6.98407 7.67187 6.99947 7.64154 7.01204C7.61121 7.0246 7.57994 7.03409 7.54774 7.04049C7.51554 7.0469 7.48303 7.0501 7.4502 7.0501C7.41736 7.0501 7.38485 7.0469 7.35265 7.04049C7.32045 7.03409 7.28919 7.0246 7.25885 7.01204C7.22852 6.99947 7.19971 6.98407 7.17241 6.96584C7.14511 6.9476 7.11986 6.92687 7.09664 6.90365C7.07343 6.88044 7.0527 6.85518 7.03446 6.82788C7.01622 6.80059 7.00082 6.77177 6.98826 6.74144C6.97569 6.71111 6.96621 6.67984 6.9598 6.64765C6.9534 6.61545 6.9502 6.58293 6.9502 6.5501C6.9502 6.51727 6.9534 6.48475 6.9598 6.45256C6.96621 6.42036 6.97569 6.38909 6.98826 6.35876C7.00082 6.32843 7.01622 6.29961 7.03446 6.27232C7.0527 6.24502 7.07343 6.21976 7.09664 6.19655L10.9216 2.37154C10.9449 2.34833 10.9701 2.3276 10.9974 2.30936C11.0247 2.29112 11.0535 2.27572 11.0838 2.26316C11.1142 2.25059 11.1455 2.24111 11.1777 2.23471C11.2099 2.2283 11.2424 2.2251 11.2752 2.2251C11.308 2.2251 11.3405 2.2283 11.3727 2.23471C11.4049 2.24111 11.4362 2.25059 11.4665 2.26316C11.4969 2.27572 11.5257 2.29112 11.553 2.30936C11.5803 2.3276 11.6055 2.34833 11.6287 2.37154C11.652 2.39476 11.6727 2.42002 11.6909 2.44731C11.7092 2.47461 11.7246 2.50342 11.7371 2.53376C11.7497 2.56409 11.7592 2.59535 11.7656 2.62755C11.772 2.65975 11.7752 2.69227 11.7752 2.7251C11.7752 2.75793 11.772 2.79044 11.7656 2.82264C11.7592 2.85484 11.7497 2.88611 11.7371 2.91644C11.7246 2.94677 11.7092 2.97559 11.6909 3.00288C11.6727 3.03018 11.652 3.05544 11.6287 3.07865ZM11.7752 2.7251C11.7752 2.75793 11.772 2.79044 11.7656 2.82264C11.7592 2.85484 11.7497 2.88611 11.7371 2.91644C11.7246 2.94677 11.7092 2.97559 11.6909 3.00288C11.6727 3.03018 11.652 3.05544 11.6287 3.07865C11.6055 3.10187 11.5803 3.12259 11.553 3.14083C11.5257 3.15907 11.4969 3.17447 11.4665 3.18704C11.4362 3.1996 11.4049 3.20909 11.3727 3.21549C11.3405 3.2219 11.308 3.2251 11.2752 3.2251C11.2424 3.2251 11.2099 3.2219 11.1777 3.21549C11.1455 3.20909 11.1142 3.1996 11.0838 3.18704C11.0535 3.17447 11.0247 3.15907 10.9974 3.14083C10.9701 3.12259 10.9449 3.10187 10.9216 3.07865C10.8984 3.05544 10.8777 3.03018 10.8595 3.00288C10.8412 2.97559 10.8258 2.94677 10.8133 2.91644C10.8007 2.88611 10.7912 2.85484 10.7848 2.82264C10.7784 2.79044 10.7752 2.75793 10.7752 2.7251C10.7752 2.69227 10.7784 2.65975 10.7848 2.62755C10.7912 2.59535 10.8007 2.56409 10.8133 2.53376C10.8258 2.50342 10.8412 2.47461 10.8595 2.44731C10.8777 2.42002 10.8984 2.39476 10.9216 2.37154C10.9449 2.34833 10.9701 2.3276 10.9974 2.30936C11.0247 2.29112 11.0535 2.27572 11.0838 2.26316C11.1142 2.25059 11.1455 2.24111 11.1777 2.23471C11.2099 2.2283 11.2424 2.2251 11.2752 2.2251C11.308 2.2251 11.3405 2.2283 11.3727 2.23471C11.4049 2.24111 11.4362 2.25059 11.4665 2.26316C11.4969 2.27572 11.5257 2.29112 11.553 2.30936C11.5803 2.3276 11.6055 2.34833 11.6287 2.37154C11.652 2.39476 11.6727 2.42002 11.6909 2.44731C11.7092 2.47461 11.7246 2.50342 11.7371 2.53376C11.7497 2.56409 11.7592 2.59535 11.7656 2.62755C11.772 2.65975 11.7752 2.69227 11.7752 2.7251ZM7.9502 6.5501C7.9502 6.58293 7.94699 6.61545 7.94059 6.64765C7.93418 6.67984 7.9247 6.71111 7.91213 6.74144C7.89957 6.77177 7.88417 6.80059 7.86593 6.82788C7.84769 6.85518 7.82696 6.88044 7.80375 6.90365C7.78053 6.92687 7.75528 6.94759 7.72798 6.96583C7.70068 6.98407 7.67187 6.99947 7.64154 7.01204C7.61121 7.0246 7.57994 7.03409 7.54774 7.04049C7.51554 7.0469 7.48303 7.0501 7.4502 7.0501C7.41736 7.0501 7.38485 7.0469 7.35265 7.04049C7.32045 7.03409 7.28919 7.0246 7.25885 7.01204C7.22852 6.99947 7.19971 6.98407 7.17241 6.96583C7.14511 6.94759 7.11986 6.92687 7.09664 6.90365C7.07343 6.88044 7.0527 6.85518 7.03446 6.82788C7.01622 6.80059 7.00082 6.77177 6.98826 6.74144C6.97569 6.71111 6.96621 6.67984 6.9598 6.64765C6.9534 6.61545 6.9502 6.58293 6.9502 6.5501C6.9502 6.51727 6.9534 6.48475 6.9598 6.45255C6.96621 6.42036 6.97569 6.38909 6.98826 6.35876C7.00082 6.32843 7.01622 6.29961 7.03446 6.27231C7.0527 6.24502 7.07343 6.21976 7.09664 6.19655C7.11986 6.17333 7.14511 6.1526 7.17241 6.13437C7.19971 6.11613 7.22852 6.10073 7.25885 6.08816C7.28919 6.0756 7.32045 6.06611 7.35265 6.05971C7.38485 6.0533 7.41736 6.0501 7.4502 6.0501C7.48303 6.0501 7.51554 6.0533 7.54774 6.05971C7.57994 6.06611 7.61121 6.0756 7.64154 6.08816C7.67187 6.10073 7.70068 6.11613 7.72798 6.13436C7.75528 6.1526 7.78053 6.17333 7.80375 6.19655C7.82696 6.21976 7.84769 6.24502 7.86593 6.27231C7.88417 6.29961 7.89957 6.32843 7.91213 6.35876C7.9247 6.38909 7.93418 6.42036 7.94059 6.45255C7.94699 6.48475 7.9502 6.51727 7.9502 6.5501Z" fill="currentColor"/>
</svg>
