<svg width="16" height="16" viewBox="-2 -2 20 20" fill="none"
    xmlns="http://www.w3.org/2000/svg">
    <g>
        <path d="M8.49221 1.59472L8.44798 9.88461C8.44736 10.0094 8.39718 10.1289 8.30848 10.2167C8.21979 10.3045 8.09985 10.3535 7.97504 10.3528C7.85023 10.3522 7.73078 10.302 7.64297 10.2133C7.55516 10.1247 7.50618 10.0047 7.5068 9.8799L7.55057 1.61872L5.03857 4.13072C4.94981 4.21644 4.83094 4.26388 4.70755 4.2628C4.58417 4.26173 4.46614 4.21224 4.37889 4.12499C4.29164 4.03774 4.24215 3.91971 4.24107 3.79632C4.24 3.67294 4.28743 3.55406 4.37316 3.46531L7.70069 0.137782C7.78893 0.0495602 7.90861 0 8.03339 0C8.15817 0 8.27785 0.0495602 8.3661 0.137782L11.6936 3.46531C11.7386 3.50872 11.7744 3.56065 11.7991 3.61806C11.8237 3.67548 11.8367 3.73723 11.8373 3.79971C11.8378 3.86219 11.8259 3.92416 11.8022 3.982C11.7786 4.03983 11.7436 4.09237 11.6995 4.13656C11.6553 4.18074 11.6027 4.21568 11.5449 4.23934C11.4871 4.26301 11.4251 4.27491 11.3626 4.27437C11.3001 4.27383 11.2384 4.26085 11.181 4.23618C11.1236 4.21152 11.0716 4.17567 11.0282 4.13072L8.49174 1.59425L8.49221 1.59472ZM11.0673 6.11755C10.9425 6.11755 10.8228 6.06797 10.7345 5.97971C10.6463 5.89146 10.5967 5.77177 10.5967 5.64696C10.5967 5.52215 10.6463 5.40245 10.7345 5.3142C10.8228 5.22595 10.9425 5.17637 11.0673 5.17637H13.647C13.8967 5.17637 14.136 5.27553 14.3126 5.45203C14.4891 5.62854 14.5882 5.86793 14.5882 6.11755V15.0587C14.5882 15.3083 14.4891 15.5477 14.3126 15.7242C14.136 15.9007 13.8967 15.9999 13.647 15.9999H2.35292C2.1033 15.9999 1.86391 15.9007 1.68741 15.7242C1.5109 15.5477 1.41174 15.3083 1.41174 15.0587V6.11755C1.41174 5.86793 1.5109 5.62854 1.68741 5.45203C1.86391 5.27553 2.1033 5.17637 2.35292 5.17637H4.90068C5.02549 5.17637 5.14519 5.22595 5.23344 5.3142C5.32169 5.40245 5.37127 5.52215 5.37127 5.64696C5.37127 5.77177 5.32169 5.89146 5.23344 5.97971C5.14519 6.06797 5.02549 6.11755 4.90068 6.11755H2.35292V15.0587H13.647V6.11755H11.0673Z" fill="currentColor"/>
    </g>
</svg>
