<svg width="12" height="12" viewBox="0 0 12 12" fill="none"
    xmlns="http://www.w3.org/2000/svg">
    <path d="M10.875 9.75C10.875 9.84946 10.8355 9.94484 10.7652 10.0152C10.6948 10.0855 10.5995 10.125 10.5 10.125H1.5C1.40054 10.125 1.30516 10.0855 1.23483 10.0152C1.16451 9.94484 1.125 9.84946 1.125 9.75V2.25C1.125 2.15054 1.16451 2.05516 1.23483 1.98484C1.30516 1.91451 1.40054 1.875 1.5 1.875C1.59946 1.875 1.69484 1.91451 1.76516 1.98484C1.83549 2.05516 1.875 2.15054 1.875 2.25V7.34531L4.23281 4.98281C4.30391 4.91239 4.39993 4.87289 4.5 4.87289C4.60007 4.87289 4.69609 4.91239 4.76719 4.98281L6 6.22031L8.84531 3.375H7.875C7.77554 3.375 7.68016 3.33549 7.60983 3.26516C7.53951 3.19484 7.5 3.09946 7.5 3C7.5 2.90054 7.53951 2.80516 7.60983 2.73484C7.68016 2.66451 7.77554 2.625 7.875 2.625H9.75C9.84946 2.625 9.94484 2.66451 10.0152 2.73484C10.0855 2.80516 10.125 2.90054 10.125 3V4.875C10.125 4.97446 10.0855 5.06984 10.0152 5.14016C9.94484 5.21049 9.84946 5.25 9.75 5.25C9.65054 5.25 9.55516 5.21049 9.48483 5.14016C9.41451 5.06984 9.375 4.97446 9.375 4.875V3.90469L6.26719 7.01719C6.19609 7.08761 6.10007 7.12711 6 7.12711C5.89993 7.12711 5.80391 7.08761 5.73281 7.01719L4.5 5.77969L1.875 8.40469V9.375H10.5C10.5995 9.375 10.6948 9.41451 10.7652 9.48483C10.8355 9.55516 10.875 9.65054 10.875 9.75Z" fill="currentColor"/>
</svg>
