<svg width="12" height="12" viewBox="0 0 12 12" fill="none"
    xmlns="http://www.w3.org/2000/svg">
    <g clip-path="url(#clip0_19550_89054)">
        <path d="M6 3C6.09946 3 6.19484 3.03951 6.26517 3.10984C6.33549 3.18016 6.375 3.27554 6.375 3.375V4.5C6.375 4.59946 6.33549 4.69484 6.26517 4.76516C6.19484 4.83549 6.09946 4.875 6 4.875C5.90054 4.875 5.80516 4.83549 5.73484 4.76516C5.66451 4.69484 5.625 4.59946 5.625 4.5V3.375C5.625 3.27554 5.66451 3.18016 5.73484 3.10984C5.80516 3.03951 5.90054 3 6 3ZM2.799 4.299C2.86932 4.2287 2.96469 4.1892 3.06412 4.1892C3.16356 4.1892 3.25893 4.2287 3.32925 4.299L4.0155 4.9845C4.05037 5.01937 4.07802 5.06076 4.09689 5.10631C4.11576 5.15187 4.12547 5.20069 4.12547 5.25C4.12547 5.29931 4.11576 5.34813 4.09689 5.39369C4.07802 5.43924 4.05037 5.48063 4.0155 5.5155C3.98063 5.55037 3.93924 5.57802 3.89369 5.59689C3.84813 5.61576 3.79931 5.62547 3.75 5.62547C3.70069 5.62547 3.65187 5.61576 3.60631 5.59689C3.56076 5.57802 3.51937 5.55037 3.4845 5.5155L2.799 4.82925C2.7287 4.75893 2.68921 4.66356 2.68921 4.56412C2.68921 4.46469 2.7287 4.36932 2.799 4.299ZM1.5 7.5C1.5 7.40054 1.53951 7.30516 1.60984 7.23483C1.68016 7.16451 1.77554 7.125 1.875 7.125H3.0645C3.16396 7.125 3.25934 7.16451 3.32966 7.23483C3.39999 7.30516 3.4395 7.40054 3.4395 7.5C3.4395 7.59946 3.39999 7.69484 3.32966 7.76517C3.25934 7.83549 3.16396 7.875 3.0645 7.875H1.875C1.77554 7.875 1.68016 7.83549 1.60984 7.76517C1.53951 7.69484 1.5 7.59946 1.5 7.5ZM8.625 7.5C8.625 7.40054 8.66451 7.30516 8.73483 7.23483C8.80516 7.16451 8.90054 7.125 9 7.125H10.125C10.2245 7.125 10.3198 7.16451 10.3902 7.23483C10.4605 7.30516 10.5 7.40054 10.5 7.5C10.5 7.59946 10.4605 7.69484 10.3902 7.76517C10.3198 7.83549 10.2245 7.875 10.125 7.875H9C8.90054 7.875 8.80516 7.83549 8.73483 7.76517C8.66451 7.69484 8.625 7.59946 8.625 7.5ZM9.1905 4.3155C9.13854 4.26381 9.06904 4.23358 8.9958 4.2308C8.92257 4.22802 8.85097 4.2529 8.79525 4.3005L5.66025 6.9825C5.58721 7.04404 5.52789 7.12023 5.48615 7.20614C5.4444 7.29205 5.42115 7.38576 5.4179 7.48122C5.41465 7.57667 5.43148 7.67175 5.46728 7.7603C5.50309 7.84885 5.55708 7.92889 5.62577 7.99526C5.69446 8.06163 5.77632 8.11284 5.86604 8.14558C5.95577 8.17832 6.05137 8.19187 6.14666 8.18534C6.24195 8.17881 6.3348 8.15236 6.41923 8.10768C6.50365 8.06301 6.57775 8.00111 6.63675 7.926L9.21225 4.70325C9.25706 4.64716 9.27961 4.57652 9.2756 4.50484C9.27159 4.43317 9.24129 4.36549 9.1905 4.31475V4.3155Z" fill="currentColor"/>
        <path fill-rule="evenodd" clip-rule="evenodd" d="M3.98087e-06 7.50047C0.000788008 6.62732 0.192134 5.76487 0.560683 4.97331C0.929232 4.18175 1.4661 3.48017 2.13382 2.91755C2.80153 2.35492 3.584 1.94481 4.42659 1.71584C5.26918 1.48687 6.1516 1.44456 7.01223 1.59186C7.87287 1.73917 8.69098 2.07253 9.40946 2.5687C10.1279 3.06486 10.7295 3.71185 11.1721 4.46452C11.6147 5.21718 11.8876 6.05738 11.972 6.92645C12.0563 7.79551 11.9499 8.67251 11.6603 9.49622C11.3288 10.436 10.2765 10.6977 9.46125 10.4337C8.48175 10.1165 7.10625 9.75047 6 9.75047C4.8945 9.75047 3.5175 10.1165 2.53875 10.4337C1.7235 10.6977 0.671254 10.436 0.339754 9.49622C0.11411 8.85506 -0.000779566 8.18018 3.98087e-06 7.50047ZM6 2.25047C5.16028 2.25026 4.33276 2.45147 3.58689 2.83722C2.84101 3.22298 2.19856 3.78202 1.71343 4.46742C1.2283 5.15283 0.914663 5.94461 0.798834 6.7763C0.683005 7.608 0.768367 8.45534 1.04775 9.24722C1.2 9.67847 1.74 9.90422 2.30775 9.71972C3.29775 9.40022 4.7685 9.00047 6 9.00047C7.2315 9.00047 8.703 9.39947 9.69226 9.72047C10.26 9.90422 10.8 9.67847 10.9523 9.24722C11.2316 8.45534 11.317 7.608 11.2012 6.7763C11.0853 5.94461 10.7717 5.15283 10.2866 4.46742C9.80145 3.78202 9.15899 3.22298 8.41312 2.83722C7.66725 2.45147 6.83973 2.25026 6 2.25047Z" fill="currentColor"/>
    </g>

</svg>
