<svg width="18" height="18" viewBox="0 0 18 18" fill="none"
    xmlns="http://www.w3.org/2000/svg">
    <g clip-path="url(#clip0_17970_75823)">
        <path d="M13.7698 11.0868L13.7861 11.0637L13.8013 11.0405C13.884 10.9068 13.9184 10.7483 13.8985 10.5918C13.8787 10.4354 13.8059 10.2907 13.6925 10.1826C13.6175 10.1098 13.528 10.0541 13.43 10.0193C13.3319 9.98452 13.2277 9.97138 13.1243 9.98081H3.72858C3.63483 9.97545 3.54097 9.98954 3.45278 10.0222C3.36458 10.0549 3.28389 10.1054 3.21564 10.1707C3.1474 10.2361 3.09303 10.3148 3.05588 10.4022C3.01872 10.4896 2.99956 10.5837 2.99956 10.6788C2.99956 10.7739 3.01872 10.8681 3.05588 10.9554C3.09303 11.0428 3.1474 11.1216 3.21564 11.1869C3.28389 11.2522 3.36458 11.3028 3.45278 11.3354C3.54097 11.3681 3.63483 11.3822 3.72858 11.3768H11.4641L10.012 12.7993C9.94499 12.863 9.89162 12.9398 9.85513 13.0252C9.81864 13.1105 9.79982 13.2025 9.79982 13.2955C9.79982 13.3885 9.81864 13.4806 9.85513 13.5659C9.89162 13.6513 9.94499 13.7281 10.012 13.7918C10.1476 13.9229 10.3279 13.996 10.5154 13.996C10.7029 13.996 10.8832 13.9229 11.0189 13.7918L13.6675 11.1971C13.7052 11.164 13.7395 11.127 13.7698 11.0868H13.7698ZM3.07979 7.10054L3.06781 7.12811C3.06443 7.13676 3.06152 7.1456 3.0591 7.15458C3.05889 7.15678 3.05889 7.159 3.0591 7.1612C3.0591 7.17002 3.0591 7.17773 3.05148 7.18656V7.19427C3.05148 7.20199 3.05148 7.21082 3.04603 7.21853C3.04628 7.22147 3.04628 7.22442 3.04603 7.22736V7.25382C3.04628 7.25639 3.04628 7.25897 3.04603 7.26154V7.29021C3.04603 7.30013 3.04603 7.29021 3.04603 7.29021C3.0431 7.32507 3.0431 7.36011 3.04603 7.39497V7.42695C3.05739 7.53747 3.09476 7.64362 3.155 7.73648C3.21523 7.82935 3.29658 7.90622 3.39221 7.96065L3.41834 7.97499H3.42595L3.44881 7.98602H3.45862L3.48038 7.99484H3.49128L3.51305 8.00256H3.52393L3.54679 8.00918H3.55768L3.58053 8.01468H13.2113C13.3051 8.02005 13.399 8.00598 13.4872 7.97332C13.5754 7.94067 13.6561 7.89012 13.7243 7.82478C13.7926 7.75944 13.847 7.68067 13.8841 7.59331C13.9213 7.50594 13.9404 7.41181 13.9404 7.31668C13.9404 7.22154 13.9213 7.12741 13.8841 7.04005C13.847 6.95268 13.7926 6.87391 13.7243 6.80857C13.6561 6.74323 13.5754 6.69268 13.4872 6.66003C13.399 6.62738 13.3051 6.6133 13.2113 6.61867H5.47469L6.93014 5.19287C6.99696 5.12915 7.05021 5.05226 7.08661 4.96692C7.123 4.88159 7.14178 4.78961 7.14178 4.69665C7.14178 4.60369 7.123 4.51172 7.08661 4.42638C7.05021 4.34104 6.99696 4.26415 6.93014 4.20044C6.79437 4.06867 6.61361 3.99512 6.42558 3.99512C6.23755 3.99512 6.05679 4.06867 5.92102 4.20044L3.24852 6.81715C3.19189 6.87258 3.14512 6.93749 3.11027 7.00902C3.10249 7.04029 3.0923 7.07089 3.07979 7.10054Z" fill="currentColor"/>
    </g>
    <defs>
        <clipPath id="clip0_17970_75823">
            <rect width="11" height="10" fill="currentColor" transform="translate(3 4)"/>
        </clipPath>
    </defs>
</svg>
