<svg width="16" height="16" viewBox="0 0 16 16" fill="none"
    xmlns="http://www.w3.org/2000/svg">
    <path d="M7.53333 1.60667C7.53333 1.27161 7.80495 1 8.14 1C8.47505 1 8.74667 1.27161 8.74667 1.60667V2.26C8.74667 2.59505 8.47505 2.86667 8.14 2.86667C7.80495 2.86667 7.53333 2.59505 7.53333 2.26V1.60667Z" fill="currentColor"/>
    <path fill-rule="evenodd" clip-rule="evenodd" d="M8 12.2C10.3196 12.2 12.2 10.3196 12.2 8C12.2 5.6804 10.3196 3.8 8 3.8C5.6804 3.8 3.8 5.6804 3.8 8C3.8 10.3196 5.6804 12.2 8 12.2ZM8 10.9867C9.64949 10.9867 10.9867 9.64949 10.9867 8C10.9867 6.35051 9.64949 5.01333 8 5.01333C6.35051 5.01333 5.01333 6.35051 5.01333 8C5.01333 9.64949 6.35051 10.9867 8 10.9867Z" fill="currentColor"/>
    <path d="M8.14 13.1333C7.80495 13.1333 7.53333 13.4049 7.53333 13.74V14.3933C7.53333 14.7284 7.80495 15 8.14 15C8.47505 15 8.74667 14.7284 8.74667 14.3933V13.74C8.74667 13.4049 8.47505 13.1333 8.14 13.1333Z" fill="currentColor"/>
    <path d="M14.3933 7.53333C14.7284 7.53333 15 7.80495 15 8.14C15 8.47505 14.7284 8.74667 14.3933 8.74667H13.74C13.4049 8.74667 13.1333 8.47505 13.1333 8.14C13.1333 7.80495 13.4049 7.53333 13.74 7.53333H14.3933Z" fill="currentColor"/>
    <path d="M2.86667 8.14C2.86667 7.80495 2.59505 7.53333 2.26 7.53333H1.60667C1.27161 7.53333 1 7.80495 1 8.14C1 8.47505 1.27161 8.74667 1.60667 8.74667H2.26C2.59505 8.74667 2.86667 8.47505 2.86667 8.14Z" fill="currentColor"/>
    <path d="M12.1907 3.14924C12.4277 2.91232 12.8118 2.91232 13.0487 3.14924C13.2856 3.38616 13.2856 3.77028 13.0487 4.0072L12.5867 4.46917C12.3498 4.70609 11.9657 4.70609 11.7288 4.46917C11.4919 4.23226 11.4919 3.84814 11.7288 3.61122L12.1907 3.14924Z" fill="currentColor"/>
    <path d="M4.46915 11.7288C4.23223 11.4919 3.84811 11.4919 3.61119 11.7288L3.14921 12.1908C2.9123 12.4277 2.9123 12.8118 3.14921 13.0487C3.38613 13.2857 3.77025 13.2857 4.00717 13.0487L4.46915 12.5868C4.70607 12.3498 4.70607 11.9657 4.46915 11.7288Z" fill="currentColor"/>
    <path d="M12.8508 12.1908C13.0877 12.4277 13.0877 12.8118 12.8508 13.0487C12.6138 13.2857 12.2297 13.2857 11.9928 13.0487L11.5308 12.5868C11.2939 12.3498 11.2939 11.9657 11.5308 11.7288C11.7677 11.4919 12.1519 11.4919 12.3888 11.7288L12.8508 12.1908Z" fill="currentColor"/>
    <path d="M4.2712 4.46918C4.50812 4.23226 4.50812 3.84814 4.2712 3.61122L3.80922 3.14924C3.57231 2.91233 3.18819 2.91233 2.95127 3.14924C2.71435 3.38616 2.71435 3.77028 2.95127 4.0072L3.41324 4.46918C3.65016 4.70609 4.03428 4.70609 4.2712 4.46918Z" fill="currentColor"/>
</svg>
