<svg width="18" height="18" viewBox="0 0 18 18" fill="none"
    xmlns="http://www.w3.org/2000/svg">
    <path d="M17.0152 5.01942C17.0059 4.97534 16.9879 4.93353 16.9624 4.89639C16.9368 4.85925 16.9042 4.8275 16.8664 4.80296C16.8286 4.77842 16.7864 4.76157 16.7421 4.75337C16.6977 4.74517 16.6522 4.74579 16.6082 4.75517L15.6112 4.96756C15.6874 4.86011 15.7626 4.75191 15.8366 4.64297C15.9262 4.51087 16.0126 4.37668 16.0958 4.24053C16.1387 4.17013 16.1799 4.09869 16.2193 4.02627L16.2786 3.91021C16.2983 3.87013 16.3169 3.82356 16.3355 3.78006C16.3602 3.72246 16.3672 3.6588 16.3556 3.59723C16.3439 3.53565 16.3141 3.47895 16.2701 3.43439C16.226 3.38982 16.1696 3.3594 16.1082 3.34704C16.0468 3.33467 15.983 3.34091 15.9252 3.36496L15.8701 3.38787C15.7918 3.4154 15.7149 3.44401 15.637 3.47033C15.5576 3.494 15.4798 3.51956 15.4002 3.54157C15.3197 3.56184 15.2408 3.5843 15.16 3.60258C15.0787 3.61965 14.9987 3.63901 14.9173 3.65421C14.8351 3.6684 14.7544 3.68471 14.6721 3.69727C14.5895 3.70894 14.5078 3.72215 14.4252 3.73261C14.3705 3.73954 14.3155 3.74516 14.2607 3.75099C14.0465 3.53814 13.8012 3.35904 13.5332 3.21983C13.1742 3.03343 12.7818 2.92397 12.3899 2.88588C11.9976 2.84746 11.6049 2.87829 11.229 2.96637C10.8528 3.05482 10.4924 3.20077 10.1606 3.39909C9.82889 3.59739 9.52565 3.8491 9.27099 4.1497C9.01652 4.44961 8.81238 4.79987 8.68202 5.17786C8.55066 5.55542 8.49517 5.95776 8.50926 6.34941C8.51269 6.45963 8.52227 6.56863 8.53624 6.67653C8.48284 6.67048 8.42933 6.66475 8.37593 6.65747C8.22376 6.63827 8.07219 6.61459 7.92141 6.58646C7.77022 6.55947 7.61982 6.52819 7.47041 6.49265C7.17055 6.42233 6.87443 6.33692 6.58317 6.23675C6.29063 6.13612 6.00316 6.02129 5.7218 5.89267C4.59189 5.37749 3.5557 4.63999 2.63488 3.77148C2.59668 3.72978 2.54844 3.69854 2.49476 3.68073C2.44107 3.66293 2.38373 3.65915 2.32817 3.66975C2.27262 3.68035 2.22069 3.70499 2.17734 3.74131C2.13399 3.77764 2.10065 3.82444 2.08048 3.87729L2.07211 3.89919C2.0349 3.99653 1.99946 4.09487 1.97138 4.1955C1.94329 4.29601 1.91851 4.39776 1.90122 4.50071C1.88196 4.60334 1.8693 4.70715 1.86149 4.81099C1.85246 4.91493 1.85015 5.01909 1.85103 5.12303C1.85267 5.22687 1.85841 5.3307 1.8682 5.43409C1.87887 5.53714 1.89342 5.63976 1.91181 5.74172C1.94951 5.94514 2.00269 6.14538 2.0709 6.34069C2.1047 6.43858 2.14239 6.53508 2.18389 6.62996C2.22471 6.72559 2.26963 6.81942 2.31854 6.91117C2.36683 7.0041 2.41914 7.09487 2.47534 7.18324C2.53127 7.27327 2.59142 7.36061 2.65558 7.44498C2.68763 7.48782 2.72071 7.52989 2.75478 7.57113C2.67199 7.58227 2.58883 7.5914 2.50539 7.59745C2.43051 7.60287 2.35544 7.60572 2.28407 7.60441C2.24729 7.60441 2.2124 7.60287 2.17936 7.6C2.14293 7.59856 2.11726 7.59306 2.08522 7.58986C2.05366 7.57447 2.01873 7.56726 1.98365 7.5689C1.94857 7.57055 1.91447 7.58099 1.88449 7.59928C1.85451 7.61756 1.82961 7.64309 1.81208 7.67352C1.79455 7.70395 1.78496 7.7383 1.7842 7.77341L1.78387 7.78992C1.78155 7.89409 1.78188 7.99913 1.79125 8.10484C1.8005 8.2113 1.81689 8.31702 1.84034 8.42129C1.88857 8.63335 1.96622 8.83762 2.07103 9.02818C2.17562 9.21956 2.30588 9.39618 2.45134 9.55505C2.5962 9.71211 2.75503 9.85569 2.92588 9.98402C3.23542 10.2181 3.56957 10.4037 3.91045 10.5623C3.89207 10.5677 3.8738 10.5735 3.85529 10.5786C3.81335 10.5896 3.7715 10.6025 3.72912 10.6111C3.68684 10.62 3.64434 10.6318 3.60174 10.6388C3.5164 10.6552 3.43039 10.6686 3.34407 10.6786C3.25776 10.688 3.17154 10.6932 3.08487 10.696C3.02523 10.6882 2.96459 10.697 2.90966 10.7215C2.85473 10.746 2.80766 10.7853 2.77366 10.8349C2.73965 10.8845 2.72005 10.9426 2.71701 11.0027C2.71397 11.0627 2.72762 11.1225 2.75644 11.1753L2.77074 11.2014C2.94494 11.5197 3.17726 11.7934 3.4314 12.0304C3.68639 12.2677 3.96485 12.4704 4.25421 12.6488C4.52425 12.8136 4.8047 12.9607 5.0938 13.0891C5.0722 13.1033 5.05127 13.1183 5.02959 13.1322C4.72942 13.3252 4.41363 13.4927 4.08553 13.6331C3.75862 13.7719 3.42091 13.8806 3.0797 13.9458C2.9947 13.9616 2.90924 13.9749 2.8235 13.986C2.73837 13.9959 2.65295 14.0033 2.56738 14.0081C2.48254 14.0117 2.3976 14.0124 2.31271 14.0104C2.22861 14.0072 2.14466 14.0009 2.06102 13.9916H2.06077L2.05726 13.9909C1.9621 13.9774 1.86523 13.9981 1.78385 14.0492C1.70246 14.1003 1.64181 14.1786 1.61265 14.2702C1.58349 14.3618 1.5877 14.4608 1.62454 14.5495C1.66139 14.6383 1.72848 14.7112 1.81392 14.7552C2.14512 14.926 2.48656 15.09 2.84198 15.2331C3.19968 15.3782 3.56755 15.4969 3.94262 15.5882C4.31819 15.6782 4.69968 15.7413 5.0842 15.7772C5.27523 15.7927 5.46637 15.807 5.65675 15.8122C5.75156 15.8174 5.84855 15.8176 5.94524 15.8183C6.04114 15.8187 6.14135 15.8208 6.23019 15.8176L6.50414 15.8114L6.79503 15.7953C6.9853 15.7881 7.17491 15.7646 7.36483 15.7468C7.74371 15.7005 8.12237 15.6414 8.49564 15.5518C8.87021 15.469 9.23862 15.3551 9.60143 15.2256C9.96424 15.0951 10.3167 14.9351 10.6619 14.7602C11.0029 14.5772 11.337 14.3794 11.6529 14.1533C11.9667 13.9252 12.2736 13.6849 12.5532 13.4144C12.8346 13.1465 13.1023 12.8629 13.3429 12.5574C13.4684 12.4085 13.5777 12.2477 13.6936 12.0918C13.7997 11.9293 13.9121 11.7704 14.0085 11.6019C14.2118 11.2709 14.3851 10.9233 14.5435 10.5702C14.7009 10.2161 14.8314 9.85212 14.9471 9.48381C15.0561 9.11396 15.1538 8.74049 15.2219 8.36205C15.2605 8.17517 15.2884 7.97997 15.3166 7.78518C15.3327 7.6851 15.3413 7.59604 15.3511 7.50531L15.3576 7.44672C15.3838 7.42293 15.4113 7.40004 15.4362 7.37561L15.571 7.24479C15.6166 7.20196 15.6579 7.15495 15.7016 7.11023C15.7441 7.06465 15.7884 7.02094 15.8289 6.9737L15.9521 6.83376C15.9936 6.78773 16.0312 6.73829 16.0709 6.69085C16.1102 6.64295 16.1497 6.59548 16.1865 6.54582C16.338 6.35129 16.4792 6.14901 16.6097 5.93981C16.6753 5.83533 16.7379 5.72908 16.7977 5.62116C16.8273 5.56621 16.857 5.51249 16.8852 5.45599C16.9153 5.39726 16.944 5.33786 16.9714 5.27784L16.9915 5.23446C17.0223 5.16721 17.0307 5.09179 17.0153 5.01942H17.0152ZM15.4973 5.93232C15.4591 5.97074 15.4187 6.00687 15.3787 6.0433C15.3385 6.07932 15.3 6.11718 15.2581 6.15154L15.135 6.25616C15.0946 6.2916 15.0508 6.32309 15.0091 6.35677C14.9664 6.38927 14.9257 6.42438 14.8818 6.45478L14.7517 6.54847C14.6657 6.61103 14.5747 6.66629 14.4871 6.72553C14.4245 6.76814 14.3721 6.82399 14.3336 6.88912C14.295 6.95426 14.2713 7.02708 14.2641 7.10242L14.2625 7.12082L14.2376 7.39376C14.2294 7.48484 14.2217 7.57776 14.2096 7.65835C14.1878 7.82549 14.1676 7.99241 14.1352 8.16428C14.0799 8.5065 13.998 8.84233 13.9066 9.17495C13.8091 9.50549 13.6987 9.83218 13.5647 10.1485C13.4296 10.464 13.2822 10.7748 13.1075 11.0696C13.0258 11.2204 12.9284 11.3612 12.8379 11.5068C12.738 11.6454 12.6448 11.7895 12.5365 11.9219C12.3301 12.1948 12.0987 12.4476 11.8555 12.6879C11.6143 12.9307 11.3474 13.1462 11.0744 13.3529C10.7993 13.5573 10.5065 13.7373 10.207 13.9057C9.90288 14.0659 9.59173 14.2147 9.26867 14.3371C8.94561 14.4586 8.6164 14.5676 8.2786 14.6483C7.94256 14.7356 7.5989 14.7951 7.25351 14.8436C7.07997 14.8626 6.90711 14.8877 6.73214 14.8972L6.47614 14.9164L6.20231 14.9275C6.10861 14.9324 6.02615 14.9312 5.93927 14.9325C5.85328 14.9334 5.7675 14.935 5.67975 14.9318C5.50467 14.93 5.33125 14.9201 5.15784 14.9092C4.81389 14.8833 4.47222 14.8331 4.1354 14.7588C4.0517 14.7404 3.9684 14.7203 3.88555 14.6985C4.06952 14.6526 4.25137 14.5987 4.43058 14.5368C4.82078 14.4005 5.19889 14.2317 5.56094 14.0323C5.92276 13.8331 6.27002 13.6063 6.60034 13.3419C6.67949 13.2785 6.73962 13.1945 6.77416 13.0991C6.80869 13.0038 6.81629 12.9007 6.79611 12.8013C6.77593 12.7019 6.72875 12.61 6.65976 12.5356C6.59077 12.4613 6.50263 12.4074 6.40502 12.3798L6.36262 12.3682L6.36251 12.368C5.78623 12.2718 5.21058 12.1046 4.67944 11.8618C4.41441 11.74 4.16038 11.5979 3.93047 11.4311C3.92124 11.4243 3.91275 11.417 3.9035 11.4102C3.93181 11.4084 3.96011 11.4064 3.9884 11.4047C4.09615 11.3974 4.20356 11.3856 4.31035 11.3695C4.52823 11.3375 4.74311 11.2876 4.95281 11.2204C5.06214 11.1858 5.16945 11.1451 5.27423 11.0985C5.32785 11.0766 5.38157 11.0478 5.43531 11.0212C5.48906 10.9943 5.54301 10.9607 5.59683 10.9299C5.68524 10.8793 5.75719 10.8043 5.80406 10.7139C5.85093 10.6235 5.87075 10.5215 5.86113 10.42C5.85151 10.3186 5.81287 10.2222 5.74982 10.1422C5.68678 10.0621 5.60202 10.002 5.50567 9.96894L5.38906 9.92873C5.02736 9.87645 4.67183 9.80873 4.32797 9.71437C3.98465 9.61979 3.65224 9.49868 3.35013 9.33583C3.04853 9.17308 2.77788 8.96674 2.57683 8.70502C2.47543 8.57365 2.39296 8.42869 2.33185 8.27439C2.31505 8.23173 2.29991 8.18843 2.28647 8.14459C2.33406 8.1611 2.38083 8.17915 2.42918 8.19325C2.59938 8.24336 2.77226 8.28387 2.94701 8.31458C3.1259 8.34709 3.30677 8.36762 3.4884 8.37604C3.53464 8.37932 3.58399 8.37811 3.63232 8.37866C3.68011 8.38 3.73218 8.37579 3.78315 8.37316C3.83281 8.37185 3.89041 8.36215 3.94512 8.35511C3.99952 8.34828 4.06602 8.32955 4.12645 8.31481C4.2946 8.27253 4.44215 8.14822 4.50315 7.97216V7.97204C4.54924 7.83883 4.54053 7.69278 4.47893 7.566C4.41733 7.43921 4.3079 7.34209 4.1747 7.29599L4.10896 7.2732C4.05767 7.25546 4.00237 7.23741 3.94524 7.2056C3.88797 7.17729 3.82996 7.13965 3.77183 7.09989C3.65609 7.01698 3.5429 6.91513 3.43753 6.80139C3.22645 6.57325 3.046 6.29952 2.90912 6.00642C2.84041 5.85958 2.78303 5.7077 2.73747 5.55212C2.71525 5.47438 2.69585 5.39586 2.67934 5.31671C2.66366 5.2377 2.6511 5.1581 2.64167 5.07811C2.63241 4.99833 2.62697 4.91816 2.62539 4.83786C2.62429 4.80106 2.62418 4.76423 2.62506 4.72742C3.42477 5.49585 4.32311 6.1762 5.322 6.70239C5.62228 6.86085 5.9301 7.00457 6.24438 7.13304C6.55995 7.26205 6.88183 7.37505 7.20879 7.47161C7.3725 7.52048 7.53754 7.56476 7.70373 7.60441C7.86987 7.64512 8.03716 7.68107 8.20537 7.7122C8.37353 7.74414 8.54249 7.77175 8.71207 7.79499C8.88165 7.81878 9.05187 7.83673 9.22231 7.85325C9.31407 7.86005 9.40608 7.84402 9.49014 7.8066C9.57419 7.76917 9.64767 7.71151 9.704 7.63876C9.76034 7.56601 9.79778 7.48045 9.81298 7.3897C9.82819 7.29896 9.82068 7.20586 9.79113 7.11872L9.7875 7.10806C9.69753 6.84324 9.6393 6.57423 9.63181 6.31031C9.62256 6.04652 9.65911 5.78808 9.74334 5.54551C9.90916 5.05993 10.2725 4.63977 10.7366 4.36363C11.199 4.08582 11.7579 3.95238 12.28 4.00414C12.5408 4.02957 12.7913 4.10092 13.0153 4.21706C13.2397 4.33292 13.4366 4.49421 13.6002 4.69197L13.7298 4.80285C13.7857 4.85012 13.8526 4.88253 13.9244 4.89706C13.9962 4.91159 14.0704 4.90778 14.1403 4.88598C14.3177 4.83112 14.4938 4.7723 14.6685 4.70957C14.7558 4.67788 14.8429 4.64319 14.9296 4.61015C15.0162 4.57614 15.1021 4.53805 15.188 4.50215C15.2365 4.48133 15.2846 4.45899 15.3326 4.4364C15.2044 4.68513 15.0708 4.93109 14.9321 5.17413H14.932C14.9076 5.2044 14.8924 5.24101 14.8881 5.27964C14.8837 5.31828 14.8905 5.35734 14.9076 5.39225C14.9248 5.42716 14.9515 5.45647 14.9846 5.47673C15.0178 5.49699 15.0561 5.50737 15.095 5.50664L15.1358 5.50576L15.916 5.48892C15.7836 5.64332 15.6439 5.79129 15.4973 5.93232H15.4973Z" fill="currentColor"/>
</svg>
