<svg width="15" height="15" viewBox="0 0 15 15" fill="none"
    xmlns="http://www.w3.org/2000/svg">
    <path d="M3.47183 5.64286V10.0981C3.47183 10.1533 3.42706 10.1981 3.37183 10.1981H1.27691C1.1833 10.1981 1.14101 10.3152 1.21302 10.375L5.51292 13.9464C5.55025 13.9774 5.60445 13.9771 5.64147 13.9458L9.85538 10.3744C9.92641 10.3142 9.88384 10.1981 9.79072 10.1981H7.69155C7.63632 10.1981 7.59155 10.1533 7.59155 10.0981V4.77925C7.59155 4.72402 7.54678 4.67925 7.49155 4.67925H5.40375C5.30934 4.67925 5.26751 4.56045 5.3411 4.5013L9.63256 1.05194C9.67004 1.02182 9.72365 1.02263 9.7602 1.05388L13.7942 4.50324C13.8648 4.56362 13.8221 4.67925 13.7292 4.67925H11.9028C11.8476 4.67925 11.8028 4.72402 11.8028 4.77925V9.35714" stroke="currentColor" stroke-width="0.8" stroke-linecap="round"/>
</svg>
