<svg width="14" height="12" viewBox="0 0 14 12" fill="none"
    xmlns="http://www.w3.org/2000/svg">
    <g clip-path="url(#clip0_21290_93475)">
        <path d="M2.30042 10.1554L1.18627 3.82023L4.2026 6.21349L6.96978 2.01628L9.43813 6.21416L12.8254 3.82023L11.7924 10.1554H2.30042ZM0.748168 3.15825C0.649528 3.16114 0.551282 3.14514 0.459258 3.11118C0.367235 3.07722 0.283309 3.026 0.21246 2.96056C0.141611 2.89512 0.0852814 2.81679 0.0468142 2.73022C0.00834699 2.64365 -0.0114746 2.5506 -0.0114746 2.4566C-0.0114746 2.36259 0.00834699 2.26954 0.0468142 2.18297C0.0852814 2.0964 0.141611 2.01807 0.21246 1.95263C0.283309 1.88719 0.367235 1.83598 0.459258 1.80202C0.551282 1.76806 0.649528 1.75205 0.748168 1.75495C0.939593 1.76057 1.1212 1.83696 1.25452 1.96793C1.38784 2.0989 1.4624 2.27417 1.4624 2.4566C1.4624 2.63903 1.38784 2.8143 1.25452 2.94527C1.1212 3.07624 0.939593 3.15262 0.748168 3.15825ZM7.01037 1.40363C6.91173 1.40652 6.81348 1.39052 6.72146 1.35656C6.62944 1.3226 6.54551 1.27139 6.47466 1.20595C6.40381 1.1405 6.34748 1.06218 6.30902 0.975605C6.27055 0.889035 6.25073 0.795987 6.25073 0.70198C6.25073 0.607974 6.27055 0.514926 6.30902 0.428355C6.34748 0.341785 6.40381 0.263456 6.47466 0.198016C6.54551 0.132576 6.62944 0.0813574 6.72146 0.0473997C6.81348 0.013442 6.91173 -0.00256328 7.01037 0.000333348C7.2018 0.00595464 7.3834 0.0823418 7.51672 0.213313C7.65004 0.344283 7.7246 0.519549 7.7246 0.70198C7.7246 0.884412 7.65004 1.05968 7.51672 1.19065C7.3834 1.32162 7.2018 1.39801 7.01037 1.40363ZM13.2719 3.15825C13.1732 3.16114 13.075 3.14514 12.983 3.11118C12.8909 3.07722 12.807 3.026 12.7362 2.96056C12.6653 2.89512 12.609 2.81679 12.5705 2.73022C12.5321 2.64365 12.5122 2.5506 12.5122 2.4566C12.5122 2.36259 12.5321 2.26954 12.5705 2.18297C12.609 2.0964 12.6653 2.01807 12.7362 1.95263C12.807 1.88719 12.8909 1.83598 12.983 1.80202C13.075 1.76806 13.1732 1.75205 13.2719 1.75495C13.4633 1.76057 13.6449 1.83696 13.7782 1.96793C13.9115 2.0989 13.9861 2.27417 13.9861 2.4566C13.9861 2.63903 13.9115 2.8143 13.7782 2.94527C13.6449 3.07624 13.4633 3.15262 13.2719 3.15825ZM2.62375 11.742C2.53094 11.742 2.44194 11.7069 2.37632 11.6444C2.31069 11.5819 2.27383 11.4971 2.27383 11.4087C2.27383 11.3203 2.31069 11.2355 2.37632 11.173C2.44194 11.1105 2.53094 11.0754 2.62375 11.0754H11.4838C11.5766 11.0754 11.6656 11.1105 11.7312 11.173C11.7968 11.2355 11.8337 11.3203 11.8337 11.4087C11.8337 11.4971 11.7968 11.5819 11.7312 11.6444C11.6656 11.7069 11.5766 11.742 11.4838 11.742H2.62305H2.62375Z" fill="currentColor"/>
    </g>
</svg>
