<svg width="16" height="16" viewBox="0 0 16 16" fill="none"
    xmlns="http://www.w3.org/2000/svg">
    <path d="M2.8 2.85C2.2625 3.1125 2 3.4 2 3.7125V4.575C2 4.8875 2.2625 5.175 2.8 5.4375C3.3375 5.7 4.0625 5.9125 4.9875 6.0625C5.9125 6.2125 6.9125 6.2875 8 6.2875C9.0875 6.2875 10.0875 6.2125 11.0125 6.0625C11.9375 5.9125 12.6625 5.7 13.2 5.4375C13.7375 5.175 14 4.8875 14 4.575V3.7125C14 3.4 13.7375 3.1125 13.2 2.85C12.6625 2.5875 11.9375 2.375 11.0125 2.225C10.0875 2.075 9.0875 2 8 2C6.9125 2 5.9125 2.075 4.9875 2.225C4.075 2.3875 3.3375 2.5875 2.8 2.85ZM2 8.625V9.7125C2 10.025 2.2625 10.3125 2.8 10.575C3.3375 10.8375 4.0625 11.05 4.9875 11.2C5.9125 11.35 6.9125 11.425 8 11.425C9.0875 11.425 10.0875 11.35 11.0125 11.2C11.9375 11.05 12.6625 10.8375 13.2 10.575C13.7375 10.3125 14 10.025 14 9.7125V8.575C13.375 8.95 12.5375 9.2375 11.4625 9.425C10.3875 9.625 9.2375 9.7125 8 9.7125C6.7625 9.7125 5.6125 9.625 4.5375 9.425C3.4625 9.2375 2.625 8.95 2 8.575M2 11.125V12.2875C2 12.6 2.2625 12.8875 2.8 13.15C3.3375 13.4125 4.0625 13.625 4.9875 13.775C5.9125 13.925 6.9125 14 8 14C9.0875 14 10.0875 13.925 11.0125 13.775C11.9375 13.625 12.6625 13.4125 13.2 13.15C13.7375 12.8875 14 12.6 14 12.2875V11.15C13.375 11.525 12.5375 11.8125 11.4625 12C10.3875 12.1875 9.2375 12.2875 8 12.2875C6.7625 12.2875 5.6125 12.1875 4.5375 12C3.4625 11.8125 2.625 11.525 2 11.15M2 6V7.1375C2 7.45 2.2625 7.7375 2.8 8C3.3375 8.2625 4.0625 8.475 4.9875 8.625C5.9125 8.775 6.9125 8.85 8 8.85C9.0875 8.85 10.0875 8.775 11.0125 8.625C11.9375 8.475 12.6625 8.2625 13.2 8C13.7375 7.7375 14 7.45 14 7.1375V6C13.375 6.375 12.5375 6.6625 11.4625 6.85C10.3875 7.0375 9.2375 7.1375 8 7.1375C6.7625 7.1375 5.6125 7.0375 4.5375 6.85C3.4625 6.6625 2.625 6.375 2 6Z" fill="currentColor"/>
</svg>
