<svg width="10" height="10" viewBox="0 0 10 10" fill="none"
    xmlns="http://www.w3.org/2000/svg">
    <path d="M4.99879 3.49936C4.1725 3.49936 3.49818 4.17369 3.49818 5C3.49818 5.82631 4.1725 6.50064 4.99879 6.50064C5.82508 6.50064 6.4994 5.82631 6.4994 5C6.4994 4.17369 5.82508 3.49936 4.99879 3.49936ZM9.4995 5C9.4995 4.37858 9.50513 3.76279 9.47023 3.14249C9.43533 2.42201 9.27097 1.78258 8.74413 1.25572C8.21616 0.727738 7.57786 0.564503 6.85739 0.529605C6.23598 0.494706 5.6202 0.500335 4.99992 0.500335C4.37851 0.500335 3.76273 0.494706 3.14245 0.529605C2.42197 0.564503 1.78255 0.728864 1.25571 1.25572C0.727734 1.7837 0.564502 2.42201 0.529604 3.14249C0.494706 3.76391 0.500335 4.37971 0.500335 5C0.500335 5.62029 0.494706 6.23721 0.529604 6.85751C0.564502 7.57799 0.72886 8.21742 1.25571 8.74428C1.78368 9.27226 2.42197 9.4355 3.14245 9.4704C3.76385 9.50529 4.37963 9.49967 4.99992 9.49967C5.62132 9.49967 6.2371 9.50529 6.85739 9.4704C7.57786 9.4355 8.21728 9.27114 8.74413 8.74428C9.2721 8.2163 9.43533 7.57799 9.47023 6.85751C9.50625 6.23721 9.4995 5.62142 9.4995 5ZM4.99879 7.30894C3.72108 7.30894 2.6899 6.27774 2.6899 5C2.6899 3.72226 3.72108 2.69106 4.99879 2.69106C6.2765 2.69106 7.30768 3.72226 7.30768 5C7.30768 6.27774 6.2765 7.30894 4.99879 7.30894ZM7.40225 3.13574C7.10392 3.13574 6.86302 2.89483 6.86302 2.5965C6.86302 2.29817 7.10392 2.05726 7.40225 2.05726C7.70057 2.05726 7.94147 2.29817 7.94147 2.5965C7.94156 2.66734 7.92768 2.7375 7.90061 2.80296C7.87354 2.86843 7.83383 2.92791 7.78374 2.978C7.73365 3.02809 7.67417 3.06781 7.6087 3.09487C7.54324 3.12194 7.47308 3.13583 7.40225 3.13574Z" fill="currentColor"/>
</svg>
