<svg width="12" height="10" viewBox="0 0 12 10" fill="none"
    xmlns="http://www.w3.org/2000/svg">
    <path d="M10.2734 3.3295C9.92561 3.3295 9.61958 3.46786 9.39469 3.68433C8.567 3.13312 7.45182 2.77829 6.21609 2.74035L6.8583 0.455256L8.90317 0.897121C8.90317 1.37916 9.31122 1.77193 9.81201 1.77193C10.3221 1.77193 10.7324 1.368 10.7324 0.885963C10.7324 0.403928 10.3244 0 9.81201 0C9.45497 0 9.14661 0.207543 8.99359 0.490962L6.73542 0.00892657C6.62182 -0.0200848 6.51053 0.0580228 6.48039 0.167373L5.77558 2.73812C4.54912 2.78721 3.44553 3.14204 2.61552 3.69326C2.39063 3.46786 2.07301 3.3295 1.72524 3.3295C0.436177 3.3295 0.0142181 4.99431 1.19431 5.56338C1.15258 5.73968 1.13403 5.92714 1.13403 6.11459C1.13403 7.98471 3.32265 9.5 6.00974 9.5C8.70842 9.5 10.897 7.98471 10.897 6.11459C10.897 5.92714 10.8762 5.73075 10.8252 5.55445C11.9821 4.98315 11.5555 3.3295 10.2734 3.3295ZM3.0653 5.68166C3.0653 5.19069 3.47335 4.79569 3.98573 4.79569C4.48652 4.79569 4.89457 5.18846 4.89457 5.68166C4.89457 6.16369 4.48652 6.55646 3.98573 6.55646C3.47567 6.55869 3.0653 6.16369 3.0653 5.68166ZM8.03375 7.76824C7.18984 8.58056 4.80878 8.58056 3.96487 7.76824C3.87213 7.69014 3.87213 7.55177 3.96487 7.46251C4.04601 7.3844 4.18976 7.3844 4.2709 7.46251C4.91543 8.09853 7.05305 8.10968 7.7254 7.46251C7.80655 7.3844 7.95029 7.3844 8.03144 7.46251C8.12649 7.55177 8.12649 7.69014 8.03375 7.76824ZM8.01521 6.55869C7.51442 6.55869 7.10637 6.16592 7.10637 5.68389C7.10637 5.19292 8.01521 4.79792 8.01521 4.79792C8.01521 4.79792 8.93563 5.19069 8.93563 5.68389C8.93331 6.16369 8.52527 6.55869 8.01521 6.55869Z" fill="currentColor"/>
</svg>
