<svg width="10" height="10" viewBox="0 0 10 10" fill="none"
    xmlns="http://www.w3.org/2000/svg">
    <g clip-path="url(#clip0_18498_78188)">
        <path d="M5.00002 0.800293C2.68042 0.800293 0.800018 2.68069 0.800018 5.00029C0.800018 7.31989 2.68042 9.20029 5.00002 9.20029C7.31962 9.20029 9.20002 7.31989 9.20002 5.00029C9.20002 2.68069 7.31962 0.800293 5.00002 0.800293ZM6.39352 6.85639L6.20212 7.04749C6.15142 7.09849 6.11572 7.16089 6.09772 7.22869C6.07192 7.32469 6.05152 7.42159 6.01672 7.51459L5.72242 8.30809C5.48932 8.35879 5.24812 8.38729 5.00002 8.38729V7.92379C5.02852 7.70989 4.87072 7.30969 4.61692 7.05589C4.56653 7.00556 4.52655 6.9458 4.49927 6.88001C4.47199 6.81423 4.45794 6.74371 4.45792 6.67249V6.13039C4.45812 6.03372 4.43237 5.93876 4.38334 5.85543C4.33432 5.77211 4.26382 5.70347 4.17922 5.65669C3.90621 5.50468 3.63067 5.35726 3.35272 5.21449C3.15839 5.11616 2.97809 4.99226 2.81662 4.84609L2.80312 4.83409C2.6874 4.72968 2.58467 4.61174 2.49712 4.48279C2.33842 4.24969 2.07952 3.86599 1.91152 3.61669C2.2592 2.84412 2.88236 2.22887 3.65932 1.89109L4.06582 2.09449C4.10714 2.11523 4.15308 2.12504 4.19927 2.123C4.24546 2.12096 4.29036 2.10714 4.32969 2.08284C4.36902 2.05854 4.40148 2.02458 4.42398 1.98419C4.44648 1.9438 4.45827 1.89833 4.45822 1.85209V1.66069C4.59322 1.63879 4.73122 1.62499 4.87102 1.61989L5.35042 2.09899C5.37562 2.12415 5.39561 2.15404 5.40925 2.18693C5.42289 2.21982 5.42991 2.25508 5.42991 2.29069C5.42991 2.3263 5.42289 2.36156 5.40925 2.39446C5.39561 2.42735 5.37562 2.45723 5.35042 2.48239L5.27092 2.56159L5.09602 2.73679C5.0707 2.76221 5.05649 2.79662 5.05649 2.83249C5.05649 2.86837 5.0707 2.90278 5.09602 2.92819L5.17522 3.00769C5.20054 3.03311 5.21475 3.06752 5.21475 3.10339C5.21475 3.13927 5.20054 3.17368 5.17522 3.19909L5.03992 3.33469C5.0273 3.34728 5.01233 3.35725 4.99586 3.36405C4.97939 3.37084 4.96174 3.37432 4.94392 3.37429H4.79182C4.75652 3.37427 4.7226 3.38805 4.69732 3.41269L4.52932 3.57619C4.50865 3.59623 4.4949 3.62231 4.49005 3.65068C4.48519 3.67905 4.48949 3.70823 4.50232 3.73399L4.76632 4.26199C4.81132 4.35199 4.74592 4.45819 4.64542 4.45819H4.55002C4.51741 4.45825 4.48587 4.44653 4.46122 4.42519L4.30402 4.28839C4.26845 4.25753 4.22546 4.23645 4.17927 4.22725C4.13309 4.21804 4.0853 4.22102 4.04062 4.23589L3.51262 4.41199C3.47464 4.42468 3.44127 4.44834 3.41674 4.47998C3.3922 4.51163 3.3776 4.54983 3.37477 4.58978C3.37194 4.62972 3.38102 4.6696 3.40086 4.70438C3.4207 4.73917 3.4504 4.76729 3.48622 4.78519L3.67402 4.87879C3.83329 4.95847 4.00893 4.99997 4.18702 4.99999C4.36552 4.99999 4.56982 5.46229 4.72912 5.54209H5.85952C6.00352 5.54209 6.14122 5.59909 6.24292 5.70079L6.47482 5.93269C6.57172 6.02959 6.62602 6.16069 6.62602 6.29779C6.62602 6.50779 6.54232 6.70879 6.39352 6.85639ZM7.86202 5.30929C7.764 5.28471 7.67865 5.22449 7.62262 5.14039L7.31812 4.68379C7.27354 4.61705 7.24975 4.5386 7.24975 4.45834C7.24975 4.37809 7.27354 4.29963 7.31812 4.23289L7.64962 3.73549C7.68892 3.67669 7.74262 3.62899 7.80622 3.59749L8.02612 3.48739C8.26307 3.95653 8.38668 4.47471 8.38702 5.00029C8.38702 5.14729 8.37472 5.29099 8.35642 5.43289L7.86202 5.30929Z" fill="currentColor"/>
    </g>
    <defs>
        <clipPath id="clip0_18498_78188">
            <rect width="9.6" height="9.6" fill="currentColor" transform="translate(0.200012 0.200195)"/>
        </clipPath>
    </defs>
</svg>
